<?xml version="1.0" standalone="no"?>
<!DOCTYPE svg PUBLIC "-//W3C//DTD SVG 1.1//EN" "http://www.w3.org/Graphics/SVG/1.1/DTD/svg11.dtd" >
<svg xmlns="http://www.w3.org/2000/svg" xmlns:xlink="http://www.w3.org/1999/xlink" version="1.1">
<metadata>
Created by FontForge 20150318 at Sun Oct  4 17:23:51 2015
 By uniteet7
Copyright (c) 2010-2014 by tyPoland Lukasz Dziedzic with Reserved Font Name "Lato". Licensed under the SIL Open Font License, Version 1.1. 
</metadata>
<defs>
<font id="LatoItalic" horiz-adv-x="1187" >
  <font-face 
    font-family="LatoItalic"
    font-weight="400"
    font-style="italic"
    font-stretch="normal"
    units-per-em="2048"
    panose-1="2 15 5 2 2 2 4 3 2 3"
    ascent="1649"
    descent="-399"
    x-height="1037"
    cap-height="1466"
    bbox="-181 -425 2527 1935"
    underline-thickness="198"
    underline-position="-6"
    slope="-7"
    unicode-range="U+000D-25FC"
  />
<missing-glyph horiz-adv-x="748" 
d="M68 0v1365h544v-1365h-544zM136 68h408v1229h-408v-1229z" />
    <glyph glyph-name=".notdef" horiz-adv-x="748" 
d="M68 0v1365h544v-1365h-544zM136 68h408v1229h-408v-1229z" />
    <glyph glyph-name="glyph1" horiz-adv-x="0" 
 />
    <glyph glyph-name="glyph1" horiz-adv-x="0" 
 />
    <glyph glyph-name="uni000D" unicode="&#xd;" horiz-adv-x="0" 
 />
    <glyph glyph-name="space" unicode=" " horiz-adv-x="479" 
 />
    <glyph glyph-name="exclam" unicode="!" horiz-adv-x="517" 
d="M77 113q0 27 9.5 50t26.5 40.5t40 28t51 10.5q27 0 49.5 -10.5t40 -28t28 -41t10.5 -49.5q0 -28 -10.5 -51t-28 -40.5t-40.5 -27t-49 -9.5q-28 0 -51 9.5t-40 27t-26.5 40.5t-9.5 51zM179 511q1 53 2.5 100t4 91t6.5 88t10 90l71 587h167l-71 -587q-6 -46 -13.5 -90
t-16 -88t-19 -91t-22.5 -100h-119z" />
    <glyph glyph-name="quotedbl" unicode="&#x22;" horiz-adv-x="711" 
d="M184 944zM184 1011l3 158l38 296h153l-37 -296l-35 -158q-8 -32 -23.5 -49.5t-45.5 -17.5q-27 0 -39 17.5t-14 49.5zM497 1011l3 158l38 296h153l-37 -296l-35 -158q-8 -32 -23.5 -49.5t-45.5 -17.5q-27 0 -39 17.5t-14 49.5z" />
    <glyph glyph-name="numbersign" unicode="#" 
d="M48 451q-11 17 0 57l15 56h210l109 339h-238l21 73q8 29 28 42t59 13h165l121 372q10 30 33 46t53 16h79l-141 -434h256l141 434h79q28 0 43 -17.5t4 -47.5l-120 -369h219l-23 -73q-8 -29 -27.5 -42t-57.5 -13h-146l-109 -339h187q28 0 39 -16.5t1 -57.5l-17 -56h-245
l-139 -434h-81q-27 0 -40 22t-2 55l116 357h-256l-118 -366q-11 -37 -35.5 -52.5t-54.5 -15.5h-79l141 434h-151q-28 0 -39 17zM419 564h257l108 339h-256z" />
    <glyph glyph-name="dollar" unicode="$" 
d="M46 175l63 80q9 11 22 18.5t28 7.5q18 0 40 -19.5t55.5 -45t80.5 -49.5t117 -32l105 553q-63 19 -124 44.5t-109 64t-77 95t-29 140.5q0 85 34 164t97 140.5t154 100.5t205 43l28 148q3 19 18.5 34t37.5 15h65l-39 -201q105 -12 178.5 -54t125.5 -102l-49 -66
q-23 -30 -49 -29q-14 0 -33 13t-47 30.5t-65.5 34.5t-87.5 24l-96 -503q66 -22 130.5 -47t115 -62.5t82.5 -93t32 -136.5q0 -97 -36 -184.5t-103.5 -155.5t-164 -110.5t-215.5 -49.5l-35 -183q-2 -18 -18.5 -32.5t-37.5 -14.5h-65l44 233q-122 11 -217.5 60.5t-160.5 126.5z
M388 1072q0 -43 16 -75t43 -57.5t64 -44t79 -35.5l89 469q-74 -6 -128.5 -29t-91 -58t-54 -78.5t-17.5 -91.5zM564 134q76 7 135 33t100 66t62 93.5t21 115.5q0 45 -17.5 78.5t-47.5 58t-69.5 42.5t-84.5 33z" />
    <glyph glyph-name="percent" unicode="%" horiz-adv-x="1523" 
d="M96 0l1166 1437q11 11 25.5 19.5t37.5 8.5h128l-1168 -1436q-10 -12 -24.5 -20.5t-35.5 -8.5h-129zM142 1054q0 101 28 180.5t75.5 134t111.5 83.5t136 29q57 0 105 -21t82.5 -61t53.5 -97.5t19 -130.5q0 -101 -30 -180t-79 -133t-112.5 -82t-130.5 -28q-57 0 -104.5 21
t-82 60t-53.5 96t-19 129zM279 1054q0 -50 10 -85.5t28.5 -58.5t43.5 -34t55 -11q40 0 76 17t64 53.5t43.5 94t15.5 140.5q0 51 -10.5 88t-29 60.5t-43.5 35t-54 11.5q-41 0 -77 -17.5t-63.5 -55.5t-43 -96.5t-15.5 -141.5zM799 288q0 101 27.5 180.5t75 134.5t111 84
t135.5 29q57 0 105.5 -21t82.5 -61t53.5 -97t19.5 -130q0 -101 -30 -181t-79.5 -133.5t-112.5 -81.5t-129 -28q-57 0 -105 21t-82 60t-53 95.5t-19 128.5zM935 288q0 -50 10 -86t28.5 -59t43.5 -34t55 -11q40 0 76.5 17t63.5 54t43 95.5t16 141.5q0 51 -10.5 87t-29 60
t-43.5 34.5t-54 10.5q-41 0 -77.5 -17.5t-63 -55.5t-42.5 -96t-16 -141z" />
    <glyph glyph-name="ampersand" unicode="&#x26;" horiz-adv-x="1345" 
d="M56 343q0 81 27.5 152.5t75 131.5t111.5 107t138 80q-40 68 -59 133.5t-19 129.5q0 84 29 158.5t83 128.5t129.5 86t167.5 32q75 0 135 -24t101 -66t62 -99t20 -123l-104 -19q-24 -5 -35.5 2t-17.5 30q-5 29 -17.5 57.5t-34 51.5t-52 38t-72.5 15q-52 0 -94 -19.5
t-72.5 -54t-46.5 -81t-16 -99.5q0 -116 99 -246l330 -419q42 68 69.5 140t41.5 145q4 18 13.5 29.5t28.5 11.5h122q-16 -118 -62.5 -231.5t-119.5 -212.5l244 -308h-152q-22 0 -37.5 2.5t-28 8.5t-23 16.5t-23.5 24.5l-98 125q-96 -89 -214 -141t-250 -52q-84 0 -153.5 25
t-119.5 71.5t-78 113t-28 149.5zM239 366q0 -57 17.5 -102t49 -75.5t74.5 -46.5t93 -16q97 0 183 44t158 116l-341 435q-118 -63 -176 -155t-58 -200z" />
    <glyph glyph-name="quotesingle" unicode="'" horiz-adv-x="398" 
d="M184 1011l3 158l38 296h153l-37 -296l-35 -158q-8 -32 -23.5 -49.5t-45.5 -17.5q-27 0 -39 17.5t-14 49.5z" />
    <glyph glyph-name="parenleft" unicode="(" horiz-adv-x="529" 
d="M87 435q0 143 16.5 279t60 274t119 285t195.5 313l73 -48q13 -10 19.5 -26.5t-13.5 -46.5q-76 -117 -134 -233t-98 -239t-61 -256t-21 -285q0 -76 7 -157.5t21 -163.5t35.5 -161t48.5 -147q11 -31 1.5 -47.5t-25.5 -26.5l-83 -47q-43 88 -73.5 181.5t-50 188t-28.5 186.5
t-9 177z" />
    <glyph glyph-name="parenright" unicode=")" horiz-adv-x="528" 
d="M-36 -224.5q-2 8.5 1 20t13 27.5q75 117 133.5 235.5t99 244t61.5 258.5t21 276q0 75 -7 156.5t-22 163.5t-36 161t-49 147q-11 30 -2 46.5t26 26.5l85 48q42 -89 72 -182t49 -187.5t28 -186.5t9 -178q0 -143 -16 -279t-59 -274t-119 -284.5t-196 -312.5l-72 47
q-7 5 -12.5 11.5t-7.5 15z" />
    <glyph glyph-name="asterisk" unicode="*" horiz-adv-x="808" 
d="M172 1085l172 104q19 11 36.5 16.5t37.5 7.5q-18 2 -34.5 8t-33.5 17l-148 104l52 75l148 -103q15 -10 27.5 -22t21.5 -26q-6 17 -7.5 34t0.5 37l26 204h87l-26 -203q-2 -20 -7 -37t-14 -33q11 14 26.5 25t32.5 21l173 102l33 -75l-173 -103q-18 -10 -35 -16.5t-35 -8.5
q17 -2 33 -7.5t31 -16.5l148 -105l-51 -73l-148 102q-15 10 -27.5 20t-20.5 24q9 -33 5 -67l-26 -204h-87l26 203q2 18 6.5 35t13.5 32q-12 -13 -26 -23t-31 -20l-173 -102z" />
    <glyph glyph-name="plus" unicode="+" 
d="M104 621l17 133h417l54 439h143l-54 -439h420l-17 -133h-419l-54 -442h-144l54 442h-417z" />
    <glyph glyph-name="comma" unicode="," horiz-adv-x="459" 
d="M44 126q0 48 33.5 82t88.5 34q31 0 54.5 -11.5t39 -31.5t24 -46t8.5 -57q0 -46 -13 -95.5t-38 -98t-61 -95t-82 -85.5l-31 30q-13 12 -14 29q0 12 16.5 31.5t38 46.5t42 62.5t27.5 78.5h-13q-53 0 -86.5 35.5t-33.5 90.5z" />
    <glyph glyph-name="hyphen" unicode="-" horiz-adv-x="718" 
d="M115 539l18 149h468l-18 -149h-468z" />
    <glyph glyph-name="period" unicode="." horiz-adv-x="479" 
d="M53 113q0 27 10 50t26.5 40.5t40.5 28t50 10.5q27 0 50.5 -10.5t41 -28t27.5 -41t10 -49.5q0 -28 -10 -51t-27.5 -40.5t-41 -27t-50.5 -9.5t-50.5 9.5t-40 27t-26.5 40.5t-10 51z" />
    <glyph glyph-name="slash" unicode="/" horiz-adv-x="856" 
d="M-22 -93l743 1514q15 30 40.5 47.5t58.5 17.5h75l-738 -1512q-16 -33 -46 -50t-58 -17h-75z" />
    <glyph glyph-name="zero" unicode="0" 
d="M103 572q0 230 48 401.5t129 284.5t189.5 169t228.5 56q89 0 165 -37t131 -110t85.5 -184t30.5 -258q0 -230 -48 -401t-129.5 -284.5t-190 -168.5t-228.5 -55q-90 0 -165.5 36.5t-130 110t-85 183.5t-30.5 257zM285 562q0 -116 19.5 -197.5t52.5 -133t78 -75t96 -23.5
q75 0 147 40.5t127.5 132t89.5 238.5t34 359q0 116 -19.5 198t-53.5 133.5t-79.5 75.5t-96.5 24q-75 0 -146 -41.5t-126.5 -133t-89 -238.5t-33.5 -359z" />
    <glyph glyph-name="one" unicode="1" 
d="M209 0l17 134h288l125 1015q2 20 5 41.5t8 44.5l-262 -225q-14 -10 -27.5 -13.5t-24 -1t-19 8.5t-12.5 12l-45 77l449 377h144l-164 -1336h263l-17 -134h-728z" />
    <glyph glyph-name="two" unicode="2" 
d="M60 0l8 60q2 18 12 39t30 37l487 474q69 68 124 128t93 120t58.5 121.5t20.5 134.5q0 54 -16 94.5t-43.5 68t-65.5 41t-83 13.5q-50 0 -94 -16.5t-80.5 -46t-64 -70.5t-43.5 -90q-15 -35 -36.5 -46.5t-57.5 -5.5l-90 15q26 100 73.5 177t112 129.5t143 79t166.5 26.5
q80 0 146 -24t114 -70t74.5 -111t26.5 -148q0 -94 -28 -171.5t-75.5 -147t-110.5 -134.5t-134 -133l-411 -404q43 12 86 19.5t82 7.5h440q29 0 43.5 -17t10.5 -44l-12 -106h-906z" />
    <glyph glyph-name="three" unicode="3" 
d="M94 366l80 31q33 13 60 7t36 -32q10 -28 23.5 -68.5t40 -78.5t72 -64.5t117.5 -26.5q75 0 134 29.5t99.5 76.5t62 106.5t21.5 120.5q0 47 -15.5 87.5t-51.5 70t-96.5 46.5t-150.5 17l16 127q180 4 266 84.5t86 220.5q0 52 -15.5 92t-42.5 66.5t-65 39.5t-83 13
q-50 0 -94.5 -16.5t-81 -46t-63.5 -70.5t-42 -90q-17 -35 -38 -46.5t-57 -5.5l-90 15q26 100 73.5 177t112 129.5t143 79t166.5 26.5q80 0 145 -23.5t111 -66.5t71 -103.5t25 -135.5q0 -82 -20 -145.5t-57 -110t-89.5 -79t-117.5 -50.5q116 -35 173.5 -111.5t57.5 -188.5
t-42 -201.5t-112 -152.5t-162.5 -97t-192.5 -34q-106 0 -179 29t-120 80.5t-73.5 121.5t-40.5 151z" />
    <glyph glyph-name="four" unicode="4" 
d="M55 518l772 949h165l-115 -940h200l-12 -101q-2 -16 -13.5 -27t-29.5 -11h-163l-47 -388h-154l48 388h-596q-20 0 -32.5 11.5t-15.5 28.5zM243 527h480l76 617q2 24 6.5 50t11.5 54z" />
    <glyph glyph-name="five" unicode="5" 
d="M89 136l63 76q22 25 50 25q19 0 41 -16t53.5 -35t75 -35t105.5 -16q79 0 143.5 30t110 83t70 126t24.5 161q0 57 -15.5 104t-48 80.5t-81 52t-113.5 18.5q-50 0 -105 -9.5t-116 -28.5l-106 31l193 683h644l-10 -76q-4 -37 -30.5 -61.5t-83.5 -24.5h-415l-111 -392
q108 25 195 25q95 0 167 -29t119.5 -81t72 -121.5t24.5 -150.5q0 -130 -45 -235.5t-121 -180t-177 -115t-213 -40.5q-60 0 -113.5 12.5t-99 33.5t-82.5 48.5t-65 57.5z" />
    <glyph glyph-name="six" unicode="6" horiz-adv-x="1092" 
d="M123 409q0 65 13.5 126t41 123.5t69.5 127.5t99 136l403 501q15 18 41.5 30.5t57.5 12.5h157l-469 -551q-19 -24 -37.5 -45t-34.5 -42q50 33 108 51t123 18q74 0 138 -25.5t111 -73.5t74.5 -118t27.5 -159q0 -114 -40.5 -212t-111.5 -170t-167.5 -113.5t-209.5 -41.5
q-92 0 -165 30t-124 86t-78 134t-27 175zM291 400q0 -58 16 -107.5t46 -86t75 -56.5t103 -20q73 0 134.5 27.5t106 76.5t69.5 115.5t25 145.5q0 61 -17.5 110.5t-49 84t-77 53.5t-101.5 19q-73 0 -133.5 -29.5t-104 -78.5t-68 -114.5t-24.5 -139.5z" />
    <glyph glyph-name="seven" unicode="7" 
d="M187 0l711 1218q16 26 32 46.5t35 39.5h-698q-17 0 -28 13t-9 31l15 118h920l-9 -78q-5 -33 -15.5 -55t-18.5 -38l-705 -1233q-15 -27 -40 -44.5t-64 -17.5h-126z" />
    <glyph glyph-name="eight" unicode="8" 
d="M105 349q0 165 81 270.5t234 146.5q-91 39 -136.5 112.5t-45.5 173.5q0 90 34.5 168.5t96 137t146 92t184.5 33.5q85 0 153 -26.5t115.5 -73t73 -108.5t25.5 -133q0 -136 -67.5 -234.5t-195.5 -143.5q110 -36 167.5 -114t57.5 -196q0 -109 -39 -196t-107 -148t-162 -93.5
t-205 -32.5q-93 0 -169 26t-129 73.5t-82.5 115t-29.5 150.5zM288 362q0 -52 16.5 -96t47 -75t76 -49t103.5 -18q73 0 131.5 24t99.5 67.5t63 104.5t22 135q0 63 -20 107.5t-54 73.5t-78.5 41.5t-93.5 12.5q-57 0 -113 -17t-100.5 -55t-72 -101t-27.5 -155zM410 1051
q0 -43 11 -82.5t36 -70t65 -49t96 -18.5q69 0 121 24.5t86 65.5t51 95.5t17 115.5q0 44 -13.5 83t-39.5 68.5t-65.5 46.5t-91.5 17q-67 0 -118 -24t-85.5 -63.5t-52 -93.5t-17.5 -115z" />
    <glyph glyph-name="nine" unicode="9" 
d="M187 966q0 109 39.5 203t108 163.5t162 110t200.5 40.5q89 0 160 -30.5t119.5 -84t74.5 -128t26 -163.5q0 -76 -14.5 -140.5t-42.5 -125t-68.5 -121.5t-91.5 -129l-390 -520q-14 -17 -40 -29t-56 -12h-162l484 587q24 29 44.5 55t39.5 51q-56 -43 -123 -66t-139 -23
q-69 0 -128.5 24.5t-104.5 71t-71.5 114t-26.5 152.5zM367 986q0 -116 59.5 -181.5t168.5 -65.5q72 0 130 28t99 74.5t63 107.5t22 128q0 58 -16 106t-47 82t-73.5 52.5t-94.5 18.5q-68 0 -125 -25.5t-98.5 -71.5t-64.5 -110.5t-23 -142.5z" />
    <glyph glyph-name="colon" unicode=":" horiz-adv-x="508" 
d="M68 113q0 27 10 50t26.5 40.5t40.5 28t50 10.5q27 0 50.5 -10.5t41 -28t27.5 -41t10 -49.5q0 -28 -10 -51t-27.5 -40.5t-41 -27t-50.5 -9.5t-50.5 9.5t-40 27t-26.5 40.5t-10 51zM69 0zM154 881q0 27 10 50t26.5 40.5t40.5 28t50 10.5q27 0 50.5 -10.5t41 -28t27.5 -41
t10 -49.5q0 -28 -10 -51t-27.5 -40.5t-41 -27t-50.5 -9.5t-50.5 9.5t-40 27t-26.5 40.5t-10 51z" />
    <glyph glyph-name="semicolon" unicode=";" horiz-adv-x="531" 
d="M83 0zM83 126q0 48 33.5 82t88.5 34q31 0 54.5 -11.5t39 -31.5t24 -46t8.5 -57q0 -46 -13 -95.5t-38 -98t-61 -95t-82 -85.5l-31 30q-13 12 -14 29q0 12 16.5 31.5t38 46.5t42 62.5t27.5 78.5h-13q-53 0 -86.5 35.5t-33.5 90.5zM165 881q0 27 10 50t26.5 40.5t40.5 28
t50 10.5q27 0 50.5 -10.5t41 -28t27.5 -41t10 -49.5q0 -28 -10 -51t-27.5 -40.5t-41 -27t-50.5 -9.5t-50.5 9.5t-40 27t-26.5 40.5t-10 51z" />
    <glyph glyph-name="less" unicode="&#x3c;" 
d="M171 651l6 57l3 19l842 411l-15 -130q-2 -17 -12.5 -30t-30.5 -24l-490 -233q-41 -20 -95 -32q48 -12 88 -33l431 -232q18 -10 25.5 -23.5t5.5 -29.5l-18 -131z" />
    <glyph glyph-name="equal" unicode="=" 
d="M131 453l16 134h878l-16 -134h-878zM174 794l16 134h877l-15 -134h-878z" />
    <glyph glyph-name="greater" unicode="&#x3e;" 
d="M180 240l17 131q2 16 11.5 29.5t31.5 23.5l488 232q22 10 45.5 18.5t48.5 13.5q-25 6 -46 14t-41 19l-431 233q-18 10 -25 23t-5 31l16 130l742 -411l-7 -57l-2 -19z" />
    <glyph glyph-name="question" unicode="?" horiz-adv-x="857" 
d="M162 1334q34 30 72 56.5t82.5 47t96 32.5t108.5 12q72 0 130 -21.5t98.5 -59.5t62 -89.5t21.5 -112.5q0 -86 -24.5 -146.5t-61 -105t-80.5 -76.5t-84.5 -62.5t-72 -63t-42.5 -76.5l-38 -158h-122l11 170q2 49 29.5 86.5t66 70.5t83 65t82.5 69.5t63.5 84t25.5 108.5
q0 80 -49 126t-132 46q-57 0 -99 -15t-72 -33.5t-50 -34t-34 -15.5q-13 0 -20 5t-14 18zM218 113q0 27 10 50t26.5 40.5t40 28t50.5 10.5t50.5 -10.5t41 -28t27.5 -41t10 -49.5q0 -28 -10 -51t-27.5 -40.5t-41 -27t-50.5 -9.5t-50.5 9.5t-40 27t-26.5 40.5t-10 51z" />
    <glyph glyph-name="at" unicode="@" horiz-adv-x="1573" 
d="M90 461q0 130 31 249t85.5 222t131.5 187.5t169 144.5t196.5 93t216.5 33q120 0 225.5 -40.5t185 -117.5t125.5 -187.5t46 -251.5q0 -130 -35 -240.5t-95.5 -190.5t-140.5 -126t-169 -46q-72 0 -114 38t-46 117q-65 -82 -133.5 -117t-141.5 -35q-49 0 -85.5 17.5
t-60.5 48.5t-35.5 73t-11.5 91q0 61 16.5 125.5t48.5 124.5t79 113.5t107 93.5t134 63t160 23q65 0 112 -10.5t88 -30.5l-135 -369q-28 -79 -33 -128.5t5 -77t32.5 -37.5t51.5 -10q53 0 102.5 36t88 101t62 155t23.5 198q0 119 -34.5 209t-97 150t-149 91t-190.5 31
q-138 0 -262.5 -60t-218 -167.5t-149 -255t-55.5 -322.5q0 -144 41 -256t114.5 -187t174.5 -114t222 -39q144 0 255 32.5t186 80.5q16 9 29 10.5t22 -2t14 -12t8 -17.5l13 -52q-110 -74 -243 -116t-297 -42q-150 0 -272.5 49t-211 140.5t-137 222t-48.5 294.5zM573 442
q0 -58 26 -95t78 -37q28 0 58.5 10.5t60 36.5t58.5 70.5t52 113.5l111 303q-36 9 -78 9q-75 0 -141.5 -36.5t-116 -94.5t-79 -131.5t-29.5 -148.5z" />
    <glyph glyph-name="A" unicode="A" horiz-adv-x="1292" 
d="M-67 0l719 1467h195l359 -1467h-147q-26 0 -40 13t-21 33l-79 358h-597l-168 -358q-9 -18 -28.5 -32t-42.5 -14h-150zM386 544h502l-134 607q-5 28 -12.5 63.5t-13.5 77.5q-15 -42 -30.5 -78t-26.5 -64z" />
    <glyph glyph-name="B" unicode="B" horiz-adv-x="1232" 
d="M100 0l181 1467h435q114 0 196 -23t135.5 -65.5t79 -103.5t25.5 -135q0 -66 -19 -125.5t-57 -109.5t-94.5 -89t-132.5 -62q132 -30 198.5 -104.5t66.5 -188.5q0 -101 -36.5 -186t-105 -146t-167 -95t-222.5 -34h-483zM310 152h288q82 0 143.5 21.5t102 61t61 96
t20.5 127.5q0 97 -65 155t-198 58h-288zM390 806h238q83 0 145 22t103.5 61.5t61.5 94.5t20 122q0 105 -63.5 158t-196.5 53h-244z" />
    <glyph glyph-name="C" unicode="C" horiz-adv-x="1278" 
d="M100 621q0 191 59.5 349.5t163.5 273t244.5 177.5t301.5 63q78 0 141.5 -13.5t116 -39t95 -61.5t78.5 -80l-65 -80q-8 -10 -18.5 -16.5t-25.5 -6.5q-18 0 -38.5 20.5t-56 44.5t-91.5 44.5t-145 20.5q-120 0 -222.5 -47.5t-178.5 -136.5t-119.5 -214.5t-43.5 -282.5
q0 -114 29.5 -204t82.5 -153t125.5 -97t159.5 -34q68 0 120 11.5t92 28t68 36.5t49 36t35.5 27.5t25.5 11.5q9 0 15.5 -3.5t10.5 -8.5l67 -83q-96 -104 -222 -162t-292 -58q-132 0 -236 47t-176.5 131.5t-111 201t-38.5 257.5z" />
    <glyph glyph-name="D" unicode="D" horiz-adv-x="1448" 
d="M100 0l181 1467h506q135 0 244 -46t185 -129.5t117 -199.5t41 -255q0 -187 -58 -341.5t-160 -264.5t-243 -170.5t-307 -60.5h-506zM311 155h315q122 0 223 46.5t174 134t113.5 213t40.5 284.5q0 111 -28 199.5t-80.5 150.5t-128.5 95.5t-171 33.5h-314z" />
    <glyph glyph-name="E" unicode="E" horiz-adv-x="1101" 
d="M100 0l181 1467h835l-19 -156h-643l-62 -495h520l-19 -150h-519l-63 -510h645l-19 -156h-837z" />
    <glyph glyph-name="F" unicode="F" horiz-adv-x="1085" 
d="M100 0l181 1467h835l-19 -156h-643l-65 -523h550l-20 -155h-548l-78 -633h-193z" />
    <glyph glyph-name="G" unicode="G" horiz-adv-x="1393" 
d="M100 629q0 189 59 346.5t163 270.5t247 175.5t312 62.5q86 0 155 -14.5t126 -40t102.5 -60.5t83.5 -76l-62 -80q-15 -22 -36 -26.5t-44 9.5q-23 13 -50 34t-65.5 40t-93 33t-131.5 14q-126 0 -231 -48t-180 -137.5t-116.5 -215t-41.5 -280.5q0 -116 30 -208t85.5 -156.5
t133.5 -99t173 -34.5q53 0 99 6t87 17t78 27t74 36l41 332h-205q-18 0 -28.5 11t-8.5 26l12 109h421l-69 -560q-55 -40 -114 -69.5t-124.5 -49.5t-138 -29.5t-156.5 -9.5q-133 0 -241.5 47.5t-185.5 133t-118.5 204t-41.5 260.5z" />
    <glyph glyph-name="H" unicode="H" horiz-adv-x="1454" 
d="M100 0l181 1467h192l-81 -658h716l81 658h193l-181 -1467h-192l82 670h-716l-82 -670h-193z" />
    <glyph glyph-name="I" unicode="I" horiz-adv-x="545" 
d="M100 0l180 1467h192l-179 -1467h-193z" />
    <glyph glyph-name="J" unicode="J" horiz-adv-x="820" 
d="M-37 12l13 112q3 15 12.5 26.5t29.5 11.5q11 0 24 -2.5t30 -6t39 -6.5t52 -3q53 0 100 17.5t84.5 57.5t63.5 104.5t38 158.5l120 985h192l-121 -981q-15 -122 -53.5 -215.5t-99.5 -157.5t-142.5 -96.5t-182.5 -32.5q-55 0 -103 7t-96 21z" />
    <glyph glyph-name="K" unicode="K" horiz-adv-x="1265" 
d="M100 0l180 1467h191l-80 -646h68q36 0 59 10t44 33l508 557q22 28 45.5 37t53.5 9h163l-586 -634q-41 -47 -79 -65q25 -10 43.5 -27t33.5 -46l443 -695h-165q-38 0 -53.5 11t-26.5 30l-385 586q-15 26 -35.5 36.5t-64.5 10.5h-83l-83 -674h-191z" />
    <glyph glyph-name="L" unicode="L" horiz-adv-x="973" 
d="M100 0l181 1467h191l-161 -1305h580l-20 -162h-771z" />
    <glyph glyph-name="M" unicode="M" horiz-adv-x="1766" 
d="M100 0l181 1467h141q26 0 37 -6.5t25 -25.5l356 -923q6 -20 11.5 -40.5t10.5 -42.5q10 22 20.5 42.5t22.5 40.5l578 923q17 20 30.5 26t38.5 6h143l-182 -1467h-166l133 1084q3 20 7.5 45t9.5 51l-571 -922q-27 -44 -74 -44h-28q-23 0 -39.5 11.5t-23.5 32.5l-354 923
q-1 -26 -2.5 -49.5t-3.5 -44.5l-132 -1087h-169z" />
    <glyph glyph-name="N" unicode="N" horiz-adv-x="1454" 
d="M100 0l181 1467h99q26 0 37 -6t23 -26l634 -1122q1 24 3 45t4 40l132 1069h169l-181 -1467h-95q-24 0 -38 8.5t-28 27.5l-632 1121l-7 -72l-132 -1085h-169z" />
    <glyph glyph-name="O" unicode="O" horiz-adv-x="1526" 
d="M100 628q0 187 58.5 344t162 271t244.5 177.5t305 63.5q135 0 243.5 -49t184 -135t116 -204t40.5 -258q0 -187 -58 -344t-160.5 -270t-243.5 -176t-307 -63q-135 0 -243 48t-184.5 133.5t-117 203t-40.5 258.5zM297 633q0 -112 28 -202t81.5 -153.5t129 -98t171.5 -34.5
q122 0 223 48.5t174 138t113 217t40 285.5q0 112 -28.5 202t-81 153.5t-129 98.5t-171.5 35q-121 0 -222 -48.5t-174 -138.5t-113.5 -217.5t-40.5 -285.5z" />
    <glyph glyph-name="P" unicode="P" horiz-adv-x="1150" 
d="M100 0l180 1467h404q117 0 203 -27.5t141.5 -78.5t83.5 -123t28 -160q0 -116 -38 -212.5t-110 -166t-178 -109t-243 -39.5h-213l-67 -551h-191zM377 702h213q87 0 153.5 27t111.5 74.5t68.5 113.5t23.5 144q0 59 -17.5 106t-52 80.5t-88 51.5t-123.5 18h-213z" />
    <glyph glyph-name="Q" unicode="Q" horiz-adv-x="1526" 
d="M100 628q0 187 58.5 344t162 271t244.5 177.5t305 63.5q135 0 243.5 -49t184 -135t116 -204t40.5 -258q0 -124 -26 -234.5t-73.5 -205.5t-116.5 -170.5t-153 -129.5l297 -402h-154q-36 0 -62 10t-47 35l-200 279q-55 -17 -114 -26t-120 -9q-135 0 -243 48t-184.5 133.5
t-117 203t-40.5 258.5zM297 633q0 -112 28 -202t81.5 -153.5t129 -98t171.5 -34.5q122 0 223 48.5t174 138t113 217t40 285.5q0 112 -28.5 202t-81 153.5t-129 98.5t-171.5 35q-121 0 -222 -48.5t-174 -138.5t-113.5 -217.5t-40.5 -285.5z" />
    <glyph glyph-name="R" unicode="R" horiz-adv-x="1195" 
d="M100 0l180 1467h386q117 0 202 -24.5t141 -70t83 -110.5t27 -145q0 -89 -26.5 -166t-76.5 -137.5t-121 -103t-160 -63.5q33 -23 55 -61l316 -586h-170q-52 0 -72 41l-276 528q-13 26 -30.5 36t-55.5 10h-135l-76 -615h-191zM384 755h187q87 0 154 24.5t112.5 69
t68.5 105.5t23 133q0 112 -70.5 171t-210.5 59h-194z" />
    <glyph glyph-name="S" unicode="S" horiz-adv-x="1040" 
d="M13 175l68 91q8 11 20.5 18.5t26.5 7.5q19 0 42 -23t57.5 -51.5t86 -51.5t127.5 -23q71 0 128 22.5t96.5 62.5t61 96t21.5 123q0 56 -25 94t-65 63.5t-91 44.5t-104 38.5t-104.5 44t-91.5 62t-64.5 93t-24.5 136.5q0 90 33 173t94.5 146.5t150 101.5t198.5 38
q113 0 203 -43t149 -118l-57 -81q-11 -14 -21 -22t-25 -8q-17 0 -36.5 18t-50 39t-73.5 39t-107 18q-66 0 -117 -20.5t-86.5 -56t-54 -82.5t-18.5 -101q0 -53 25 -89.5t64.5 -62.5t91.5 -46t105 -41t105 -46.5t92 -63.5t64.5 -91.5t24.5 -128.5q0 -104 -36 -197t-103 -162.5
t-162 -110.5t-214 -41q-131 0 -234 51.5t-170 139.5z" />
    <glyph glyph-name="T" unicode="T" horiz-adv-x="1118" 
d="M113 1307l18 160h1060l-20 -160h-433l-160 -1307h-191l160 1307h-434z" />
    <glyph glyph-name="U" unicode="U" horiz-adv-x="1402" 
d="M155 573l108 894h192l-110 -893q-5 -40 -4 -78q0 -48 7 -92q14 -78 52 -134t99 -87.5t144 -31.5t151.5 31.5t121 87.5t85.5 133.5t45 169.5l109 894h192l-110 -894q-15 -126 -66.5 -234t-131.5 -187t-185 -124t-231 -45q-125 0 -220 45t-155.5 124t-84.5 187
q-14 65 -14 136q0 48 6 98z" />
    <glyph glyph-name="V" unicode="V" horiz-adv-x="1289" 
d="M112 1467h153q26 0 41 -13t18 -33l245 -1048q8 -33 15.5 -72.5t12.5 -82.5q14 43 29.5 82.5t32.5 72.5l501 1048q8 17 27 31.5t44 14.5h153l-729 -1467h-173z" />
    <glyph glyph-name="W" unicode="W" horiz-adv-x="1955" 
d="M128 1467h151q26 0 41 -12.5t17 -33.5l159 -1038q2 -28 4 -58.5t4 -64.5q11 34 22 65t22 58l438 1038q8 17 26.5 31.5t43.5 14.5h44q26 0 40.5 -12.5t19.5 -33.5l183 -1038q4 -27 8 -56.5t6 -62.5q9 33 18.5 62.5t19.5 56.5l412 1038q5 17 26 31.5t46 14.5h151
l-603 -1467h-173l-198 1129q-3 16 -5.5 35.5t-4.5 39.5q-7 -20 -14 -39t-13 -36l-477 -1129h-172z" />
    <glyph glyph-name="X" unicode="X" horiz-adv-x="1247" 
d="M-70 0l583 783l-344 684h173q20 0 29.5 -7t17.5 -21l262 -553l10 18t12 20l373 514q11 15 21.5 22t26.5 7h197l-513 -675l387 -792h-172q-20 0 -31.5 12t-17.5 25l-299 640q-4 -8 -8.5 -16t-9.5 -15l-443 -609q-13 -20 -29 -28.5t-34 -8.5h-191z" />
    <glyph glyph-name="Y" unicode="Y" horiz-adv-x="1191" 
d="M110 1467h169q26 0 40 -12t21 -33l243 -587q19 -58 30 -111q12 27 27 54t33 57l389 587q11 17 28 31t42 14h158l-602 -880l-73 -587h-191l73 585z" />
    <glyph glyph-name="Z" unicode="Z" horiz-adv-x="1137" 
d="M-27 0l9 60q2 14 8 25.5t14 24.5l897 1201h-730l19 156h991l-9 -61q-2 -14 -8.5 -25.5t-14.5 -24.5l-897 -1200h756l-21 -156h-1014z" />
    <glyph glyph-name="bracketleft" unicode="[" horiz-adv-x="593" 
d="M70 -294l228 1863h350l-7 -69q-2 -20 -18 -33.5t-36 -13.5h-155l-202 -1630h157q20 0 32 -14t10 -34l-8 -69h-351z" />
    <glyph glyph-name="backslash" unicode="\" horiz-adv-x="848" 
d="M169 1486h75q33 0 55 -17.5t30 -47.5l368 -1514h-72q-29 0 -54.5 17.5t-33.5 49.5z" />
    <glyph glyph-name="bracketright" unicode="]" horiz-adv-x="594" 
d="M-51 -294l8 69q2 20 17.5 34t36.5 14h156l201 1630h-156q-23 0 -34 13.5t-9 33.5l8 69h352l-229 -1863h-351z" />
    <glyph glyph-name="asciicircum" unicode="^" 
d="M220 806l368 661h117l367 -661h-133q-17 0 -29.5 10t-20.5 25l-201 360q-13 24 -23 46t-17 43q-14 -45 -38 -89l-197 -360q-8 -14 -20.5 -24.5t-33.5 -10.5h-139z" />
    <glyph glyph-name="underscore" unicode="_" horiz-adv-x="909" 
d="M-28 -291l15 119h743l-15 -119h-743z" />
    <glyph glyph-name="grave" unicode="`" horiz-adv-x="753" 
d="M291 1484h159q31 0 45 -11t24 -34l112 -248h-95q-19 0 -31 6.5t-24 22.5z" />
    <glyph glyph-name="a" unicode="a" horiz-adv-x="1046" 
d="M51 351q0 92 23 179.5t65.5 165.5t102 143t132.5 112.5t157 74t177 26.5q67 0 129.5 -11t124.5 -37l-124 -1004h-95q-36 0 -48.5 18.5t-12.5 44.5l18 210q-37 -66 -79 -119t-90 -90t-100 -57.5t-108 -20.5q-61 0 -111.5 24t-86 70.5t-55 114.5t-19.5 156zM233 384
q0 -247 158 -247q50 0 98.5 31.5t91.5 86.5t80 131.5t66 167.5l44 356q-23 5 -44.5 7t-43.5 2q-61 0 -118.5 -20t-107.5 -56t-91 -85.5t-70.5 -109t-46 -126.5t-16.5 -138z" />
    <glyph glyph-name="b" unicode="b" horiz-adv-x="1082" 
d="M60 0l183 1508h178l-90 -734q39 63 84 114.5t94 88t102.5 56.5t108.5 20q133 0 206.5 -96.5t73.5 -281.5q0 -84 -17 -168t-49.5 -160.5t-78 -142.5t-101.5 -114.5t-121.5 -76t-136.5 -27.5q-83 0 -150 34.5t-110 99.5l-15 -67q-8 -27 -20.5 -40t-43.5 -13h-97zM264 227
q39 -55 94 -77.5t111 -22.5q53 0 100 22.5t86 61t69.5 90t52 110.5t32 122t10.5 124q0 122 -43.5 185.5t-123.5 63.5q-49 0 -99.5 -30.5t-97.5 -85.5t-87.5 -130t-70.5 -164z" />
    <glyph glyph-name="c" unicode="c" horiz-adv-x="930" 
d="M59 410q0 126 39.5 241.5t110.5 204.5t168.5 142.5t213.5 53.5q103 0 173 -36.5t122 -106.5l-58 -68q-7 -8 -15.5 -13.5t-19.5 -5.5q-14 0 -28 13t-36.5 29t-56 28.5t-85.5 12.5q-71 0 -133.5 -38.5t-109.5 -105t-74 -157.5t-27 -195q0 -63 14 -115t43 -88.5t70.5 -56.5
t96.5 -20q69 0 115.5 20.5t78 44.5t53.5 44.5t44 20.5q19 0 35 -17l45 -56q-53 -58 -101.5 -97t-96.5 -62t-100 -32t-111 -9q-90 0 -159 30.5t-115.5 86.5t-71 134t-24.5 173z" />
    <glyph glyph-name="d" unicode="d" horiz-adv-x="1083" 
d="M56 364q0 84 17.5 167.5t50 160.5t78 143t101.5 114t121 76t137 28q77 0 140 -30.5t106 -85.5l72 571h178l-186 -1508h-95q-36 0 -48 18.5t-12 44.5l19 219q-39 -68 -85 -122.5t-96.5 -93t-105.5 -59.5t-111 -21q-133 0 -207 96.5t-74 281.5zM238 382q0 -122 43.5 -186
t124.5 -64q49 0 98.5 31t96 85t87.5 129.5t71 164.5l33 269q-39 54 -94 76.5t-110 22.5q-81 0 -145.5 -48t-110 -124t-70 -170.5t-24.5 -185.5z" />
    <glyph glyph-name="e" unicode="e" horiz-adv-x="979" 
d="M59 407q0 80 17 159t49.5 150.5t79 133t106.5 106t132 70.5t155 26q79 0 136.5 -22.5t94 -57.5t54.5 -77t18 -80q0 -68 -27.5 -124.5t-101.5 -102t-203 -79.5t-331 -54q-1 -11 -1 -22v-22q0 -137 59.5 -209.5t180.5 -72.5q49 0 87.5 10.5t69 25t53.5 32.5t42 33t35 25
t33 10q19 0 34 -17l46 -57q-52 -54 -102.5 -92.5t-102 -64t-108.5 -37t-123 -11.5q-89 0 -159.5 29.5t-119.5 84.5t-76 132.5t-27 174.5zM255 575q158 19 253 44.5t146.5 54.5t67.5 63t16 71q0 18 -8 38t-26 36.5t-46.5 27.5t-69.5 11q-65 0 -119 -27t-96 -73.5t-72 -109.5
t-46 -136z" />
    <glyph glyph-name="f" unicode="f" horiz-adv-x="656" 
d="M85 943l9 74h148l12 100q11 89 44.5 158.5t84 117t115.5 72t141 24.5q62 0 116 -21l-18 -94q-4 -20 -27.5 -20h-59.5q-44 0 -81.5 -13t-66 -41.5t-48.5 -74.5t-28 -113l-11 -95h259l-18 -131h-252l-103 -852l-48 -212q-11 -37 -33 -57t-61 -20h-71l137 1138l-102 13
q-18 5 -29 16q-9 8 -9 25v6z" />
    <glyph glyph-name="g" unicode="g" horiz-adv-x="991" 
d="M-57 -116q0 66 27.5 116t74.5 86.5t109.5 60t132.5 35.5q64 10 132 10h12q74 -1 144 -11q-9 19 -15 40.5t-5 45.5q0 32 9.5 66t32.5 76q-39 -27 -87 -41.5t-110 -14.5q-59 0 -110.5 19.5t-90.5 57.5t-61.5 95t-22.5 132q0 74 27 145t79 127t129 90t177 34q113 0 196 -54
h281l-8 -60q-5 -37 -41 -49l-130 -23q9 -27 14.5 -55.5t5.5 -61.5q0 -51 -12 -92.5t-29.5 -76t-38 -65.5t-37.5 -61t-29 -62.5t-12 -69.5q0 -28 10 -53t24.5 -49t32.5 -49t33 -52.5t24.5 -59.5t9.5 -71q-1 -73 -34.5 -138t-96 -115t-151.5 -79.5t-201 -29.5
q-89 0 -162.5 18.5t-125 52.5t-79.5 81.5t-28 104.5zM116 -93q0 -74 62 -113t175 -39q68 0 123.5 18t95 47.5t61.5 69.5t22 84q0 27 -5 50t-13 44q-107 18 -191 18q-22 0 -42 -1q-99 -6 -163 -30.5t-94.5 -64t-30.5 -83.5zM281 656q0 -92 44.5 -140t124.5 -48q55 0 97.5 24
t71.5 63.5t44.5 88.5t15.5 99q0 90 -45.5 136.5t-125.5 46.5q-55 0 -97 -22.5t-71.5 -60.5t-44 -86t-14.5 -101z" />
    <glyph glyph-name="h" unicode="h" horiz-adv-x="1084" 
d="M60 0l183 1508h182l-85 -700q80 121 178.5 183t202.5 62q67 0 117 -26.5t81 -76.5t43 -123q6 -37 5 -80q0 -41 -5 -87l-78 -660h-183l78 660q5 41 5 76q0 66 -20 106q-30 60 -110 60q-46 0 -95 -25t-94.5 -71.5t-86 -112t-70.5 -146.5l-66 -547h-182z" />
    <glyph glyph-name="i" unicode="i" horiz-adv-x="471" 
d="M71 0l125 1037h179l-125 -1037h-179zM194 1363q0 27 10 50.5t27.5 41.5t40 28.5t45.5 10.5q25 0 48 -10t40.5 -28t28 -42t10.5 -51t-10.5 -50t-28.5 -41t-41 -28t-48 -10q-24 0 -46 10t-39 28t-27 41t-10 50z" />
    <glyph glyph-name="j" unicode="j" horiz-adv-x="468" 
d="M-181 -352l18 98q3 9 7.5 13.5t12.5 6t19.5 1t29.5 -0.5q73 0 107.5 37t45.5 120l137 1114h179l-137 -1114q-7 -62 -31 -116t-62.5 -94t-92.5 -63t-123 -23q-36 0 -61 5.5t-49 15.5zM189 1363q0 27 10.5 50.5t28 41.5t39.5 28.5t46 10.5q25 0 47.5 -10t40.5 -28t28 -42
t10 -51t-10.5 -50t-28.5 -41t-40.5 -28t-47.5 -10t-46.5 10t-38.5 28t-27.5 41t-10.5 50z" />
    <glyph glyph-name="k" unicode="k" horiz-adv-x="970" 
d="M58 0l186 1508h179l-109 -887h31q22 0 35 5.5t29 22.5l344 351q14 17 30.5 27t39.5 10h162l-400 -406q-31 -36 -63 -54q16 -12 28 -28.5t22 -36.5l312 -512h-157q-23 0 -37.5 7.5t-23.5 28.5l-265 425q-12 22 -25.5 28.5t-41.5 6.5h-35l-60 -496h-181z" />
    <glyph glyph-name="l" unicode="l" horiz-adv-x="460" 
d="M66 0l183 1508h179l-183 -1508h-179z" />
    <glyph glyph-name="m" unicode="m" horiz-adv-x="1611" 
d="M60 0l125 1038h90q62 0 63 -61l-14 -184q77 128 168.5 194t191.5 66q105 0 155.5 -72.5t50.5 -206.5q77 142 173.5 210.5t204.5 68.5q133 -1 188 -103q39 -73 39 -190q0 -47 -6 -100l-78 -660h-180l79 660q5 47 5 85q0 61 -13 97q-22 60 -99 59q-44 0 -87.5 -22
t-84.5 -64.5t-76 -105.5t-63 -145v-1l-67 -563h-180l78 660q7 53 7 94q0 54 -12 88q-20 60 -95 59q-49 0 -95 -24.5t-86.5 -71t-75 -113.5t-63.5 -151l-64 -541h-179z" />
    <glyph glyph-name="n" unicode="n" horiz-adv-x="1085" 
d="M60 0l125 1038h90q61 0 62 -61l-15 -202q83 137 187 207.5t215 70.5q66 0 115.5 -26.5t80.5 -76.5q30 -50 42 -123q6 -37 7 -80q0 -41 -6 -87l-78 -660h-182l78 660q5 40 5 73q0 69 -20 109q-30 59 -110 59q-49 0 -99.5 -26.5t-97.5 -75.5t-87.5 -118.5t-69.5 -154.5
l-59 -526h-183z" />
    <glyph glyph-name="o" unicode="o" horiz-adv-x="1062" 
d="M60 417q0 131 41 246.5t113 202t168.5 137t208.5 50.5q85 0 155.5 -29.5t122 -84.5t80 -135t28.5 -181q0 -130 -41 -246t-112 -203t-168.5 -137.5t-209.5 -50.5q-85 0 -155.5 29t-121.5 84.5t-80 135t-29 182.5zM244 418q0 -143 56 -216.5t164 -73.5q75 0 135.5 41
t104.5 109t67.5 157t23.5 187q0 143 -57 215t-164 72q-76 0 -136.5 -40.5t-103.5 -108t-66.5 -156.5t-23.5 -186z" />
    <glyph glyph-name="p" unicode="p" horiz-adv-x="1082" 
d="M17 -351l169 1389h90q61 0 62 -61l-17 -221q39 68 85 122.5t96.5 93.5t106 60t112.5 21q133 0 206 -96.5t73 -281.5q0 -84 -17 -168t-49.5 -160.5t-78 -142.5t-101.5 -114.5t-121.5 -76t-136.5 -27.5q-77 0 -140 30t-106 85l-55 -452h-178zM265 227q39 -54 93.5 -77
t110.5 -23q53 0 100 22.5t86 61t70 90t52 110.5t32 122t11 124q0 122 -44 185.5t-124 63.5q-49 0 -99 -30t-96.5 -84.5t-87.5 -129t-71 -163.5z" />
    <glyph glyph-name="q" unicode="q" horiz-adv-x="1047" 
d="M51 351q0 92 23 179.5t65.5 165.5t102.5 143t133.5 112.5t157 74t176.5 26.5q67 0 129 -11t124 -37l-167 -1355h-115q-18 0 -30.5 6.5t-19 17.5t-8.5 25t0 29l66 522q-36 -60 -77.5 -109t-87.5 -83t-96 -52.5t-103 -18.5q-61 0 -111.5 24t-86.5 70.5t-55.5 114.5
t-19.5 156zM233 384q0 -123 40.5 -185t118.5 -62q49 0 97.5 31t91.5 85.5t79.5 130t65.5 164.5l45 362q-22 5 -43.5 7t-43.5 2q-62 0 -119.5 -20t-107.5 -56t-91 -85.5t-70.5 -109t-46 -126.5t-16.5 -138z" />
    <glyph glyph-name="r" unicode="r" horiz-adv-x="700" 
d="M60 0l125 1038h90q62 0 63 -61l-17 -229q41 87 88.5 151t99.5 100q51 37 107 45q14 2 29 2q42 0 84 -19l-33 -175q-49 20 -94 20q-77 0 -141 -58q-101 -91 -165 -333l-57 -481h-179z" />
    <glyph glyph-name="s" unicode="s" horiz-adv-x="819" 
d="M-1 110l45 69q9 13 20 20.5t28 7.5q16 0 32.5 -14.5t41 -32.5t62 -32t95.5 -14q50 0 90.5 15t68.5 41t43 60t15 73q0 52 -32 83t-80 51.5t-103.5 38.5t-103.5 46t-79.5 73t-31.5 120q0 66 26 126.5t75 107.5t119 75.5t158 28.5q93 0 164.5 -31.5t122.5 -84.5l-46 -66
q-8 -12 -16 -17.5t-21 -5.5q-14 0 -31 11t-41 25t-59 26t-84 12q-46 0 -84 -13t-65 -35.5t-42 -52.5t-15 -64q0 -48 32 -77t80 -50t103.5 -40.5t103.5 -49t79.5 -75.5t31.5 -120q0 -72 -28 -137.5t-80.5 -115t-127 -79t-166.5 -29.5q-99 0 -175.5 35t-124.5 91z" />
    <glyph glyph-name="t" unicode="t" horiz-adv-x="726" 
d="M77 925l8 72l160 22l78 320q5 15 15.5 25t27.5 10h95l-44 -357h272l-15 -132h-274l-62 -510q-5 -42 -8 -67.5t-4.5 -41t-2 -21.5t-0.5 -9q0 -52 24.5 -77.5t65.5 -25.5q28 0 47.5 7.5t35 17t25.5 17t18 7.5q9 0 13.5 -4t8.5 -13l39 -87q-50 -44 -114 -69t-129 -25
q-99 0 -156 54.5t-59 157.5v15.5t1.5 28t5.5 48t10 78.5l63 519h-116q-14 -1 -22 9q-7 8 -7 23v8z" />
    <glyph glyph-name="u" unicode="u" horiz-adv-x="1084" 
d="M96 211q-6 36 -5 76q0 43 6 91l78 659h181l-77 -659q-5 -40 -4 -73q0 -69 19 -109q29 -60 109 -59q47 0 97 25.5t96.5 73t86.5 114t70 148.5l64 539h181l-125 -1037h-90q-67 0 -66 66l15 188q-83 -132 -185.5 -200t-210.5 -68q-66 0 -116 26t-81 76t-43 123z" />
    <glyph glyph-name="v" unicode="v" horiz-adv-x="980" 
d="M72 1037h147q20 0 32.5 -11t16.5 -27l154 -667q6 -39 10 -77t6 -76q11 38 25 75.5t32 77.5l320 667q8 16 22.5 27t32.5 11h142l-520 -1037h-152z" />
    <glyph glyph-name="w" unicode="w" horiz-adv-x="1480" 
d="M80 1037h136q20 0 32.5 -10t16.5 -28l95 -667q2 -36 4.5 -70t3.5 -66q11 33 24.5 66.5t27.5 69.5l283 672q5 15 19.5 25t32.5 10h75q19 0 30.5 -10t13.5 -25l117 -672q5 -36 9.5 -69.5t7.5 -65.5q9 33 19.5 66t23.5 69l263 667q5 16 20 27t32 11h132l-435 -1037h-138
q-25 0 -31 35l-126 703q-2 16 -4 32.5t-3 33.5q-5 -17 -11.5 -33t-13.5 -34l-299 -702q-14 -35 -42 -35h-133z" />
    <glyph glyph-name="x" unicode="x" horiz-adv-x="950" 
d="M-65 0l419 558l-249 479h163q20 0 29.5 -5.5t15.5 -19.5l174 -358q11 23 26 44l235 311q15 28 41 28h2h163l-370 -481l276 -556h-162q-20 0 -32 10t-19 26l-194 415q-10 -23 -22 -39l-283 -377q-11 -14 -23 -24.5t-31 -10.5h-159z" />
    <glyph glyph-name="y" unicode="y" horiz-adv-x="982" 
d="M74 1037h150q23 0 33 -10.5t15 -27.5l167 -653q5 -22 8.5 -43t5.5 -43q8 22 17.5 44t19.5 43l328 654q8 16 23 26t30 10h145l-701 -1346q-11 -22 -26 -32t-37 -10h-134l225 412z" />
    <glyph glyph-name="z" unicode="z" horiz-adv-x="868" 
d="M-18 0l9 76q1 13 9 31.5t22 33.5l601 753h-503l17 143h719l-10 -78q-2 -19 -11 -37t-20 -32l-598 -748h511l-16 -142h-730z" />
    <glyph glyph-name="braceleft" unicode="{" horiz-adv-x="581" 
d="M68 585l13 106q76 0 113 61t37 188q0 23 -1.5 50t-3 55t-3 55t-1.5 50q0 99 23.5 177t69 131.5t113 82t155.5 28.5h50l-9 -79q-2 -20 -18 -28.5t-26 -8.5h-18q-77 0 -126 -59t-54 -167q-4 -48 -4 -94t1 -90.5t1.5 -87t-2.5 -83.5q-3 -47 -17 -86.5t-37 -69t-53 -50
t-64 -29.5q55 -17 87.5 -64t32.5 -111q0 -61 -15.5 -119.5t-33.5 -117.5t-33.5 -119t-15.5 -124q0 -72 34.5 -115.5t97.5 -43.5h19q11 0 24 -9.5t11 -28.5l-11 -79h-51q-70 0 -122 20.5t-86.5 57t-52 86.5t-17.5 110q0 68 16.5 129t35.5 120t35.5 117t16.5 118
q0 53 -28.5 87t-82.5 34z" />
    <glyph glyph-name="bar" unicode="|" horiz-adv-x="529" 
d="M193 -351v1921h141v-1921h-141z" />
    <glyph glyph-name="braceright" unicode="}" horiz-adv-x="582" 
d="M-47 -294l11 79q2 19 16.5 28.5t26.5 9.5h18q77 0 126 59t54 167q4 47 4 93t-1 90t-1 86.5t3 83.5q2 47 16.5 86t37 69.5t52 50.5t63.5 29q-55 17 -87.5 64.5t-32.5 112.5q0 60 15.5 119t34 118t33.5 119t15 124q0 71 -34 115t-98 44h-17q-12 0 -25 8t-10 29l9 79h51
q70 0 122.5 -20.5t86.5 -57t51.5 -86.5t17.5 -110q0 -68 -16 -129t-35.5 -119.5t-35 -116.5t-15.5 -118q0 -53 27.5 -87t82.5 -34l-13 -106q-75 0 -113 -61t-38 -189q0 -22 1 -49t2.5 -55t3.5 -55.5t2 -49.5q0 -99 -24 -177t-69 -132t-112.5 -82.5t-154.5 -28.5h-51z" />
    <glyph glyph-name="asciitilde" unicode="~" 
d="M119 424q0 69 19 126t54 98t87 64t118 23q53 0 105.5 -17t101 -36.5t92.5 -36.5t82 -17q67 0 104 43.5t38 114.5h148q0 -69 -19 -126t-54.5 -98t-87.5 -63.5t-117 -22.5q-54 0 -106 16.5t-100.5 36.5t-93 37t-81.5 17q-67 0 -104.5 -43t-38.5 -116h-147z" />
    <glyph glyph-name="uni00A0" unicode="&#xa0;" horiz-adv-x="479" 
 />
    <glyph glyph-name="cent" unicode="&#xa2;" 
d="M126 441q0 129 39.5 239.5t113.5 191t180.5 128t241.5 50.5l36 185q4 19 19 34t37 15h65l-46 -240q84 -11 148 -43.5t112 -81.5l-52 -62q-9 -11 -17.5 -15.5t-22.5 -4.5q-12 0 -27.5 9t-37.5 21.5t-53.5 24.5t-74.5 19l-150 -789q66 4 112.5 20t78.5 33.5t53 31t38 13.5
q23 0 31 -15l41 -62q-69 -73 -168.5 -110.5t-211.5 -44.5l-33 -182q-5 -19 -20 -34t-36 -15h-65l44 233q-84 9 -153 44t-118.5 92.5t-76.5 137t-27 177.5zM300 450q0 -135 59 -217.5t167 -104.5l150 786q-91 -6 -161.5 -40.5t-118 -95t-72 -144t-24.5 -184.5z" />
    <glyph glyph-name="sterling" unicode="&#xa3;" 
d="M0 0l13 115q37 10 66.5 26t51 40t35.5 58t20 82l37 309h-167l9 71q2 18 17.5 33t39.5 15h116l33 271q12 96 53 180.5t107.5 147t156.5 98.5t202 36q85 0 147.5 -19.5t108 -53.5t75 -80.5t47.5 -100.5l-76 -45q-27 -12 -49 -10t-39 24q-17 29 -36 54t-44.5 42.5t-62 27.5
t-89.5 10q-67 0 -121.5 -22t-96 -62.5t-67.5 -97.5t-34 -128l-34 -272h484l-7 -72q-2 -17 -18 -32t-39 -15h-435l-31 -262q-9 -77 -37 -131.5t-77 -97.5q31 6 61 10t61 4h701l-8 -75q-2 -13 -8.5 -27t-18.5 -25.5t-26.5 -18.5t-32.5 -7h-988z" />
    <glyph glyph-name="yen" unicode="&#xa5;" 
d="M115 329l12 101h350l13 108h-350l13 101h317l-317 826h147q25 0 39.5 -11.5t19.5 -32.5l218 -586q9 -35 15.5 -64.5t9.5 -57.5q10 29 23 58.5t30 63.5l360 586q11 17 28.5 30.5t41.5 13.5h150l-522 -826h317l-12 -101h-351l-14 -108h352l-13 -101h-351l-40 -329h-176
l40 329h-350z" />
    <glyph glyph-name="dieresis" unicode="&#xa8;" horiz-adv-x="753" 
d="M226 1320q0 24 9.5 45t25 37t36 25.5t44.5 9.5t45 -9.5t37 -25.5t25.5 -37t9.5 -45t-9.5 -44.5t-25.5 -35.5t-37 -24.5t-45 -9.5t-44.5 9.5t-36 24.5t-25 35.5t-9.5 44.5zM596 1320q0 24 9 45t25 37t37 25.5t45 9.5t44.5 -9.5t36.5 -25.5t25 -37t9 -45t-9 -44.5
t-25 -35.5t-37 -24.5t-44 -9.5q-24 0 -45 9.5t-37 24.5t-25 35.5t-9 44.5z" />
    <glyph glyph-name="copyright" unicode="&#xa9;" horiz-adv-x="1701" 
d="M117 733q0 103 26.5 199t75 179.5t117 151.5t151.5 117.5t178.5 76t198.5 26.5t199 -26.5t179 -76t151.5 -117.5t117.5 -151.5t75.5 -179t26.5 -199.5q0 -102 -26.5 -198t-75.5 -179t-117.5 -151t-151.5 -117t-178.5 -75.5t-199.5 -26.5q-103 0 -198.5 26.5t-178.5 75.5
t-151.5 117t-117 151t-75 178.5t-26.5 198.5zM219 733q0 -91 22.5 -175t64.5 -157t100.5 -132.5t130 -102t154.5 -65.5t173 -23t173.5 23t156 65.5t131 102t100.5 132.5t65 157t23 175q0 137 -50.5 257.5t-138 210t-206.5 141.5t-254 52t-252.5 -52t-205 -141.5t-137.5 -210
t-50 -257.5zM421 735q0 103 35.5 190t97.5 149t147.5 96t186.5 34q112 0 189 -34t135 -92l-47 -66q-5 -6 -13 -12.5t-20 -6.5q-14 0 -30.5 11.5t-41.5 25t-64.5 25.5t-98.5 12q-73 0 -130.5 -23t-98 -66t-62.5 -104.5t-22 -138.5q0 -79 22 -141t61 -103.5t93 -64t118 -22.5
q53 0 88.5 8.5t63 20t49 26t47.5 26.5q15 1 27 -11l62 -65q-58 -68 -143 -105.5t-203 -37.5q-100 0 -183 35t-142 97.5t-91 148.5t-32 188z" />
    <glyph glyph-name="guillemotleft" unicode="&#xab;" horiz-adv-x="807" 
d="M81 132zM81 530l3 23l286 397l53 -27q22 -11 24 -31.5t-16 -43.5l-179 -269q-19 -28 -33 -37q11 -11 23 -37l114 -269q10 -24 3.5 -44.5t-29.5 -31.5l-62 -28zM359 530l3 23l286 397l53 -27q22 -11 24 -31.5t-16 -43.5l-179 -269q-19 -28 -33 -37q11 -11 23 -37l114 -269
q10 -24 3.5 -44.5t-29.5 -31.5l-62 -28z" />
    <glyph glyph-name="uni00AD" unicode="&#xad;" horiz-adv-x="718" 
d="M115 539l18 149h468l-18 -149h-468z" />
    <glyph glyph-name="registered" unicode="&#xae;" horiz-adv-x="1701" 
d="M117 733q0 103 26.5 199t75 179.5t117 151.5t151.5 117.5t178.5 76t198.5 26.5t199 -26.5t179 -76t151.5 -117.5t117.5 -151.5t75.5 -179t26.5 -199.5q0 -102 -26.5 -198t-75.5 -179t-117.5 -151t-151.5 -117t-178.5 -75.5t-199.5 -26.5q-103 0 -198.5 26.5t-178.5 75.5
t-151.5 117t-117 151t-75 178.5t-26.5 198.5zM219 733q0 -91 22.5 -175t64.5 -157t100.5 -132.5t130 -102t154.5 -65.5t173 -23t173.5 23t156 65.5t131 102t100.5 132.5t65 157t23 175q0 137 -50.5 257.5t-138 210t-206.5 141.5t-254 52t-252.5 -52t-205 -141.5t-137.5 -210
t-50 -257.5zM558 279v913h294q177 0 261.5 -64t84.5 -189q0 -96 -54 -163t-163 -93q17 -11 29.5 -26.5t23.5 -35.5l235 -342h-153q-34 0 -49 25l-207 309q-8 14 -21.5 21t-39.5 7h-82v-362h-159zM717 758h119q56 0 95.5 10.5t63.5 31t34.5 50.5t10.5 69q0 38 -9 66.5t-31 47
t-58.5 27.5t-89.5 9h-135v-311z" />
    <glyph glyph-name="acute" unicode="&#xb4;" horiz-adv-x="753" 
d="M408 1191l166 248q15 24 32.5 34.5t47.5 10.5h164l-250 -264q-14 -15 -27.5 -22t-32.5 -7h-100z" />
    <glyph glyph-name="cedilla" unicode="&#xb8;" horiz-adv-x="753" 
d="M184 -334l25 56q7 19 25 19q6 0 13 -3.5l16 -8t22.5 -8.5t32.5 -4q41 0 62.5 19.5t21.5 49.5q0 35 -36 49.5t-103 24.5l73 166h102l-40 -104q78 -17 113.5 -49t35.5 -80q0 -37 -17 -66.5t-47.5 -50t-72.5 -31.5t-92 -11q-39 0 -72.5 9t-61.5 23z" />
    <glyph glyph-name="guillemotright" unicode="&#xbb;" horiz-adv-x="806" 
d="M62 132zM63.5 191.5q-1.5 20.5 14.5 44.5l181 269q16 25 31 36q-13 12 -23 38l-114 269q-10 24 -2.5 43.5t30.5 31.5l60 27l186 -397l-2 -23l-284 -398l-54 28q-22 11 -23.5 31.5zM342.5 191.5q-1.5 20.5 14.5 44.5l181 269q16 25 31 36q-13 12 -23 38l-114 269
q-10 24 -2.5 43.5t30.5 31.5l60 27l186 -397l-2 -23l-284 -398l-54 28q-22 11 -23.5 31.5z" />
    <glyph glyph-name="circumflex" unicode="&#x2c6;" horiz-adv-x="753" 
d="M223 1197l241 270h156l180 -270h-113q-10 0 -20 4t-19 16l-101 135q-4 4 -7 9l-6 10l-18 -19l-133 -135q-19 -19 -43 -20h-117z" />
    <glyph glyph-name="ring" unicode="&#x2da;" horiz-adv-x="753" 
d="M340 1347q4 43 23.5 77.5t48 60t64 39.5t73.5 14t71 -14t56.5 -39.5t35 -60t6.5 -77.5q-5 -42 -24 -77t-48 -59.5t-65 -38.5t-75 -14q-38 0 -70.5 14t-55.5 38.5t-34 59.5t-6 77zM434 1347q-5 -45 17 -74t67 -29q42 0 71 29t35 74q5 46 -18 74.5t-65 28.5
q-44 0 -73 -28.5t-34 -74.5z" />
    <glyph glyph-name="tilde" unicode="&#x2dc;" horiz-adv-x="753" 
d="M244 1231q5 49 22 89.5t42.5 69.5t58 45t69.5 16q34 0 60.5 -15t50 -32.5t44.5 -32t43 -14.5q69 0 81 88h102q-5 -48 -21.5 -88.5t-42 -69.5t-57.5 -44.5t-70 -15.5q-33 0 -60 14.5t-50.5 32t-44.5 32.5t-43 15q-69 0 -80 -90h-104z" />
    <glyph glyph-name="uni0400" unicode="&#x400;" horiz-adv-x="1101" 
d="M100 0l181 1467h835l-19 -156h-643l-62 -495h520l-19 -150h-519l-63 -510h645l-19 -156h-837zM100 0zM451 1896h179q31 0 46.5 -5t29.5 -27l182 -281h-121q-20 0 -32 2.5t-23 17.5z" />
    <glyph glyph-name="afii10023" unicode="&#x401;" horiz-adv-x="1101" 
d="M100 0l181 1467h835l-19 -156h-643l-62 -495h520l-19 -150h-519l-63 -510h645l-19 -156h-837zM100 0zM452 1703q0 25 9 45.5t25 37t36.5 26t43.5 9.5q24 0 44.5 -9.5t37 -26t25.5 -37t9 -45.5q0 -24 -9 -44.5t-25.5 -35.5t-37.5 -24t-44 -9t-43.5 9t-36.5 24t-25 35.5
t-9 44.5zM841 1703q0 25 9.5 45.5t24.5 37t36 26t45 9.5t44.5 -9.5t36.5 -26t25.5 -37t9.5 -45.5q0 -24 -9.5 -44.5t-25.5 -35.5t-37 -24t-44 -9q-24 0 -45 9t-36 24t-24.5 35.5t-9.5 44.5z" />
    <glyph glyph-name="afii10051" unicode="&#x402;" horiz-adv-x="1414" 
d="M114 1312l18 154h989l-18 -154h-423l-59 -479h286q114 0 195.5 -26t134 -71.5t77.5 -108t25 -137.5q0 -111 -36 -201t-105.5 -154.5t-168.5 -99.5t-224 -35h-89l18 152h89q82 0 143 21.5t101.5 62t60.5 98.5t20 132q0 102 -61 158.5t-197 56.5h-288l-84 -681h-190
l159 1312h-373z" />
    <glyph glyph-name="afii10052" unicode="&#x403;" horiz-adv-x="1031" 
d="M99 0l181 1466h816l-19 -150h-623l-162 -1316h-193zM99 0zM590 1583l250 281q18 23 34.5 27.5t47.5 4.5h189l-339 -292q-17 -14 -30 -17.5t-33 -3.5h-119z" />
    <glyph glyph-name="afii10053" unicode="&#x404;" horiz-adv-x="1285" 
d="M101 622q0 190 58 348t159.5 272.5t240 177.5t300.5 63q144 0 251.5 -50t179.5 -136l-73 -88q-8 -9 -18 -15.5t-25 -6.5q-12 0 -25.5 9.5t-31.5 24t-42 31.5t-57.5 31t-77.5 24t-101 10q-96 0 -182.5 -34t-155 -98t-117 -156t-70.5 -209h678l-18 -145h-676v-37
q0 -114 29 -205t82 -154t125.5 -97t158.5 -34q57 0 105.5 8t91 24.5t81.5 42t79 61.5q14 11 31 14.5t30 -12.5l66 -82q-95 -103 -221.5 -161.5t-292.5 -58.5q-131 0 -235.5 47t-177 131.5t-111 201.5t-38.5 258z" />
    <glyph glyph-name="afii10054" unicode="&#x405;" horiz-adv-x="1036" 
d="M10 175l67 91q9 11 21.5 18.5t26.5 7.5q19 0 41.5 -23t57.5 -51.5t86 -51.5t128 -23q71 0 127.5 22.5t96 62.5t60.5 96t21 123q0 56 -24.5 94t-64.5 63.5t-90.5 44.5t-104 38.5t-104.5 44t-91 62t-64.5 93t-24.5 136.5q0 90 33 173t94.5 146.5t149.5 101.5t198 38
q114 0 204 -43t148 -118l-56 -81q-11 -14 -21.5 -22t-25.5 -8q-16 0 -35.5 18t-50 39t-74 39t-107.5 18q-66 0 -116.5 -20.5t-86 -56t-54 -82.5t-18.5 -101q0 -53 25 -89.5t64.5 -62.5t91.5 -46t105 -41t105 -46.5t92 -63.5t64.5 -91.5t24.5 -128.5q0 -104 -36 -197
t-103 -162.5t-162.5 -110.5t-213.5 -41q-131 0 -234 51.5t-170 139.5z" />
    <glyph glyph-name="afii10055" unicode="&#x406;" horiz-adv-x="545" 
d="M100 0l180 1467h192l-179 -1467h-193z" />
    <glyph glyph-name="afii10056" unicode="&#x407;" horiz-adv-x="545" 
d="M100 0l180 1467h192l-179 -1467h-193zM100 0zM103 1703q0 25 9 45.5t25 37t36.5 26t43.5 9.5q24 0 44.5 -9.5t37 -26t25.5 -37t9 -45.5q0 -24 -9 -44.5t-25.5 -35.5t-37.5 -24t-44 -9t-43.5 9t-36.5 24t-25 35.5t-9 44.5zM492 1703q0 25 9.5 45.5t24.5 37t36 26t45 9.5
t44.5 -9.5t36.5 -26t25.5 -37t9.5 -45.5q0 -24 -9.5 -44.5t-25.5 -35.5t-37 -24t-44 -9q-24 0 -45 9t-36 24t-24.5 35.5t-9.5 44.5z" />
    <glyph glyph-name="afii10057" unicode="&#x408;" horiz-adv-x="801" 
d="M-37 12l14 112q2 15 12 26.5t30 11.5q10 0 23.5 -2.5t30.5 -6t39 -6.5t51 -3q53 0 100 17.5t84.5 57.5t63.5 104.5t38 158.5l120 985h192l-120 -981q-15 -122 -54 -215.5t-99.5 -157.5t-142.5 -96.5t-183 -32.5q-55 0 -102.5 7t-96.5 21z" />
    <glyph glyph-name="afii10058" unicode="&#x409;" horiz-adv-x="2003" 
d="M-71 25l15 120h66q37 0 75.5 16.5t78.5 65t81 138.5t83.5 237t86.5 358.5t89 505.5h810l-79 -633h258q113 0 194.5 -26t134.5 -71.5t78 -108t25 -137.5q0 -111 -36.5 -201t-105.5 -154.5t-168 -99.5t-225 -35h-449l162 1316h-436q-48 -284 -96.5 -492.5t-98 -356.5
t-101.5 -241.5t-106.5 -146t-112.5 -72.5t-119 -20q-52 0 -79.5 9.5t-24.5 28.5zM1152 152h257q82 0 143 21.5t101.5 62t60.5 98.5t20 132q0 102 -61.5 158.5t-197.5 56.5h-258z" />
    <glyph glyph-name="afii10059" unicode="&#x40a;" horiz-adv-x="2066" 
d="M100 0l181 1467h192l-81 -658h716l81 658h193l-78 -634h252q113 0 194.5 -26t134 -71.5t78 -108t25.5 -137.5q0 -111 -36.5 -201t-105.5 -154.5t-168.5 -99.5t-225.5 -35h-443l82 670h-716l-82 -670h-193zM1220 152h251q82 0 143 21.5t101.5 62t60.5 98.5t20 132
q0 102 -61.5 158.5t-197.5 56.5h-252z" />
    <glyph glyph-name="afii10060" unicode="&#x40b;" horiz-adv-x="1419" 
d="M114 1312l18 154h990l-19 -154h-423l-59 -485q111 31 209 48t180 16t145.5 -23.5t103.5 -72.5t55.5 -128t1.5 -192l-59 -476h-191l58 477q12 102 -9 164.5t-83 88t-167.5 14t-261.5 -55.5l-84 -687h-191l160 1312h-374z" />
    <glyph glyph-name="afii10061" unicode="&#x40c;" horiz-adv-x="1280" 
d="M99 0l181 1467h191l-80 -645h139q42 0 73.5 14t65.5 56l409 520q17 24 40.5 39.5t51.5 15.5h162l-478 -605q-53 -71 -132 -95q49 -14 80.5 -45t57.5 -85l328 -637h-173q-29 0 -46.5 15.5t-31.5 44.5l-282 542q-10 19 -20.5 33.5t-25 23t-33 12.5t-42.5 4h-160l-83 -675
h-192zM99 0zM672 1583l250 281q18 23 34.5 27.5t47.5 4.5h189l-339 -292q-17 -14 -30 -17.5t-33 -3.5h-119z" />
    <glyph glyph-name="uni040D" unicode="&#x40d;" horiz-adv-x="1453" 
d="M99 0l181 1467h192l-127 -1034q-6 -43 -13.5 -89.5t-21.5 -98.5q23 45 46 83.5t45 68.5l744 1010q17 23 41 41.5t52 18.5h142l-179 -1467h-192l127 1034q5 43 13 90.5t21 100.5q-22 -46 -45 -85.5t-46 -70.5l-743 -1009q-16 -23 -41 -41.5t-54 -18.5h-142zM99 0z
M564 1895h179q31 0 46.5 -5t29.5 -27l182 -281h-121q-20 0 -32 2.5t-23 17.5z" />
    <glyph glyph-name="afii10062" unicode="&#x40e;" horiz-adv-x="1200" 
d="M110 1466h174q26 0 39 -12t21 -33l242 -677q12 -40 22 -79t16 -79q15 40 34 79.5t39 78.5l360 677q11 17 29 31t41 14h163l-705 -1276q-33 -59 -67.5 -98.5t-70.5 -62.5t-74 -32.5t-79 -9.5q-61 0 -90.5 12t-26.5 41l13 105h67q56 0 99 27t85 99l85 153zM478 1778
q2 22 13 38.5t29 16.5h97q-5 -49 -1 -82.5t18 -54t39 -29.5t64 -9t66.5 9t46.5 29.5t30 54t17 82.5h97q17 0 25.5 -17t5.5 -38q-11 -101 -90 -157t-208 -56q-130 0 -195.5 55t-53.5 158z" />
    <glyph glyph-name="afii10145" unicode="&#x40f;" horiz-adv-x="1400" 
d="M99 0l181 1466h192l-162 -1315h664l162 1315h192l-179 -1466h-437l-37 -301q-3 -26 -22.5 -41t-46.5 -15h-113l43 357h-437z" />
    <glyph glyph-name="afii10017" unicode="&#x410;" horiz-adv-x="1301" 
d="M-58 0l718 1467h195l359 -1467h-148q-26 0 -40 13t-19 33l-80 358h-598l-168 -358q-8 -18 -27.5 -32t-43.5 -14h-148zM394 544h502l-135 607q-5 28 -12 63t-13 77q-15 -42 -30.5 -77.5t-26.5 -63.5z" />
    <glyph glyph-name="afii10018" unicode="&#x411;" horiz-adv-x="1188" 
d="M99 0l181 1466h879l-18 -151h-688l-60 -482h258q113 0 194.5 -26t134 -71.5t77.5 -108t25 -137.5q0 -111 -36 -201t-105.5 -154.5t-168.5 -99.5t-224 -35h-449zM309 152h257q82 0 143 21.5t101.5 62t60.5 98.5t20 132q0 102 -61.5 158.5t-197.5 56.5h-258z" />
    <glyph glyph-name="afii10019" unicode="&#x412;" horiz-adv-x="1232" 
d="M100 0l181 1467h435q114 0 196 -23t135.5 -65.5t79 -103.5t25.5 -135q0 -66 -19 -125.5t-57 -109.5t-94.5 -89t-132.5 -62q132 -30 198.5 -104.5t66.5 -188.5q0 -101 -36.5 -186t-105 -146t-167 -95t-222.5 -34h-483zM310 152h288q82 0 143.5 21.5t102 61t61 96
t20.5 127.5q0 97 -65 155t-198 58h-288zM390 806h238q83 0 145 22t103.5 61.5t61.5 94.5t20 122q0 105 -63.5 158t-196.5 53h-244z" />
    <glyph glyph-name="afii10020" unicode="&#x413;" horiz-adv-x="1031" 
d="M99 0l181 1466h816l-19 -150h-623l-162 -1316h-193z" />
    <glyph glyph-name="afii10021" unicode="&#x414;" horiz-adv-x="1490" 
d="M-100 -357l62 508h136q31 15 64.5 50t68 99t70.5 161.5t72.5 238.5t73.5 330.5t75 435.5h810l-162 -1315h221l-56 -452q-4 -26 -23 -41t-45 -15h-115l44 357h-1076l-38 -301q-2 -26 -21.5 -41t-46.5 -15h-114zM316 151h662l143 1165h-436q-43 -255 -88 -446.5t-91 -332
t-93.5 -234t-96.5 -152.5z" />
    <glyph glyph-name="afii10022" unicode="&#x415;" horiz-adv-x="1101" 
d="M100 0l181 1467h835l-19 -156h-643l-62 -495h520l-19 -150h-519l-63 -510h645l-19 -156h-837z" />
    <glyph glyph-name="afii10024" unicode="&#x416;" horiz-adv-x="1972" 
d="M-56 0l472 637q37 52 77.5 83.5t89.5 46.5q-39 14 -65 41.5t-48 70.5l-315 588h150q30 0 54 -15t35 -42l269 -513q24 -46 53 -60.5t72 -14.5h132l79 645h182l-80 -645h134q42 0 75 14.5t68 60.5l395 513q18 27 45 42t57 15h150l-459 -588q-33 -43 -65 -70.5t-75 -41.5
q46 -15 78.5 -46.5t57.5 -83.5l316 -637h-127q-43 0 -70.5 18.5t-42.5 50.5l-270 525q-20 42 -50 61.5t-80 19.5h-155l-83 -675h-181l83 675h-153q-50 0 -84.5 -19.5t-65.5 -61.5l-398 -525q-23 -32 -55 -50.5t-74 -18.5h-128z" />
    <glyph glyph-name="afii10025" unicode="&#x417;" horiz-adv-x="1098" 
d="M-11 179l65 89q9 11 21.5 18.5t26.5 7.5q20 0 45.5 -23t65 -51.5t98 -51.5t144.5 -23q81 0 145 23t108 65t67.5 101t23.5 132q0 51 -17.5 94t-51.5 74t-84 48t-116 17h-182l20 158h176q63 0 117.5 17.5t94.5 51t62.5 82.5t22.5 111q0 45 -15.5 82.5t-45.5 64.5t-76 42
t-105 15q-76 0 -131.5 -17.5t-96.5 -39t-68 -39t-44 -17.5q-27 0 -40 30l-36 90q90 72 200.5 111.5t238.5 39.5q96 0 170.5 -25t126 -70t78 -105.5t26.5 -133.5q0 -131 -70 -226t-193 -140q105 -42 162.5 -123t57.5 -188q0 -100 -37 -188t-106 -154.5t-168 -104t-223 -37.5
q-152 0 -268 52.5t-189 140.5z" />
    <glyph glyph-name="afii10026" unicode="&#x418;" horiz-adv-x="1453" 
d="M99 0l181 1467h192l-127 -1034q-6 -43 -13.5 -89.5t-21.5 -98.5q23 45 46 83.5t45 68.5l744 1010q17 23 41 41.5t52 18.5h142l-179 -1467h-192l127 1034q5 43 13 90.5t21 100.5q-22 -46 -45 -85.5t-46 -70.5l-743 -1009q-16 -23 -41 -41.5t-54 -18.5h-142z" />
    <glyph glyph-name="afii10027" unicode="&#x419;" horiz-adv-x="1453" 
d="M99 0l181 1467h192l-127 -1034q-6 -43 -13.5 -89.5t-21.5 -98.5q23 45 46 83.5t45 68.5l744 1010q17 23 41 41.5t52 18.5h142l-179 -1467h-192l127 1034q5 43 13 90.5t21 100.5q-22 -46 -45 -85.5t-46 -70.5l-743 -1009q-16 -23 -41 -41.5t-54 -18.5h-142zM99 0z
M596 1777q2 22 13 38.5t29 16.5h97q-5 -49 -1.5 -82.5t18 -54t39.5 -29.5t64 -9t66.5 9t46.5 29.5t30 54t17 82.5h97q17 0 25.5 -17t5.5 -38q-11 -101 -90 -157t-208 -56q-130 0 -195.5 55t-53.5 158z" />
    <glyph glyph-name="afii10028" unicode="&#x41a;" horiz-adv-x="1280" 
d="M99 0l181 1467h191l-80 -645h139q42 0 73.5 14t65.5 56l409 520q17 24 40.5 39.5t51.5 15.5h162l-478 -605q-53 -71 -132 -95q49 -14 80.5 -45t57.5 -85l328 -637h-173q-29 0 -46.5 15.5t-31.5 44.5l-282 542q-10 19 -20.5 33.5t-25 23t-33 12.5t-42.5 4h-160l-83 -675
h-192z" />
    <glyph glyph-name="afii10029" unicode="&#x41b;" horiz-adv-x="1385" 
d="M-71 25l15 120h66q37 0 75.5 16.5t78.5 65t81 138.5t83.5 237t86.5 358.5t89 505.5h810l-180 -1466h-193l162 1316h-436q-48 -284 -96.5 -492.5t-98 -356.5t-101.5 -241.5t-106.5 -146t-112.5 -72.5t-119 -20q-52 0 -79.5 9.5t-24.5 28.5z" />
    <glyph glyph-name="afii10030" unicode="&#x41c;" horiz-adv-x="1766" 
d="M100 0l181 1467h141q26 0 37 -6.5t25 -25.5l356 -923q6 -20 11.5 -40.5t10.5 -42.5q10 22 20.5 42.5t22.5 40.5l578 923q17 20 30.5 26t38.5 6h143l-182 -1467h-166l133 1084q3 20 7.5 45t9.5 51l-571 -922q-27 -44 -74 -44h-28q-23 0 -39.5 11.5t-23.5 32.5l-354 923
q-1 -26 -2.5 -49.5t-3.5 -44.5l-132 -1087h-169z" />
    <glyph glyph-name="afii10031" unicode="&#x41d;" horiz-adv-x="1454" 
d="M100 0l181 1467h192l-81 -658h716l81 658h193l-181 -1467h-192l82 670h-716l-82 -670h-193z" />
    <glyph glyph-name="afii10032" unicode="&#x41e;" horiz-adv-x="1526" 
d="M100 628q0 187 58.5 344t162 271t244.5 177.5t305 63.5q135 0 243.5 -49t184 -135t116 -204t40.5 -258q0 -187 -58 -344t-160.5 -270t-243.5 -176t-307 -63q-135 0 -243 48t-184.5 133.5t-117 203t-40.5 258.5zM297 633q0 -112 28 -202t81.5 -153.5t129 -98t171.5 -34.5
q122 0 223 48.5t174 138t113 217t40 285.5q0 112 -28.5 202t-81 153.5t-129 98.5t-171.5 35q-121 0 -222 -48.5t-174 -138.5t-113.5 -217.5t-40.5 -285.5z" />
    <glyph glyph-name="afii10033" unicode="&#x41f;" horiz-adv-x="1400" 
d="M99 0l181 1466h1048l-179 -1466h-194l162 1316h-663l-162 -1316h-193z" />
    <glyph glyph-name="afii10034" unicode="&#x420;" horiz-adv-x="1150" 
d="M100 0l180 1467h404q117 0 203 -27.5t141.5 -78.5t83.5 -123t28 -160q0 -116 -38 -212.5t-110 -166t-178 -109t-243 -39.5h-213l-67 -551h-191zM377 702h213q87 0 153.5 27t111.5 74.5t68.5 113.5t23.5 144q0 59 -17.5 106t-52 80.5t-88 51.5t-123.5 18h-213z" />
    <glyph glyph-name="afii10035" unicode="&#x421;" horiz-adv-x="1278" 
d="M100 621q0 191 59.5 349.5t163.5 273t244.5 177.5t301.5 63q78 0 141.5 -13.5t116 -39t95 -61.5t78.5 -80l-65 -80q-8 -10 -18.5 -16.5t-25.5 -6.5q-18 0 -38.5 20.5t-56 44.5t-91.5 44.5t-145 20.5q-120 0 -222.5 -47.5t-178.5 -136.5t-119.5 -214.5t-43.5 -282.5
q0 -114 29.5 -204t82.5 -153t125.5 -97t159.5 -34q68 0 120 11.5t92 28t68 36.5t49 36t35.5 27.5t25.5 11.5q9 0 15.5 -3.5t10.5 -8.5l67 -83q-96 -104 -222 -162t-292 -58q-132 0 -236 47t-176.5 131.5t-111 201t-38.5 257.5z" />
    <glyph glyph-name="afii10036" unicode="&#x422;" horiz-adv-x="1118" 
d="M113 1307l18 160h1060l-20 -160h-433l-160 -1307h-191l160 1307h-434z" />
    <glyph glyph-name="afii10037" unicode="&#x423;" horiz-adv-x="1200" 
d="M110 1466h174q26 0 39 -12t21 -33l242 -677q12 -40 22 -79t16 -79q15 40 34 79.5t39 78.5l360 677q11 17 29 31t41 14h163l-705 -1276q-33 -59 -67.5 -98.5t-70.5 -62.5t-74 -32.5t-79 -9.5q-61 0 -90.5 12t-26.5 41l13 105h67q56 0 99 27t85 99l85 153z" />
    <glyph glyph-name="afii10038" unicode="&#x424;" horiz-adv-x="1491" 
d="M90 707q0 133 50 250.5t138.5 206t208 141.5t258.5 56l22 173h182l-21 -173q118 -3 212.5 -46t160.5 -115t101.5 -166.5t35.5 -199.5q0 -89 -22.5 -171t-64 -154.5t-100.5 -132.5t-132 -103.5t-158 -68.5t-179 -27l-21 -177h-181l21 177q-118 3 -212.5 46.5t-160.5 115.5
t-102 166.5t-36 201.5zM283 715q0 -79 23 -148.5t66 -122t105.5 -84t142.5 -32.5l107 884q-95 -2 -176.5 -42t-141 -107.5t-93 -157.5t-33.5 -190zM801 328q95 1 177 41.5t141.5 108.5t93 157.5t33.5 190.5q0 78 -23 147.5t-66.5 122t-106 83.5t-141.5 33z" />
    <glyph glyph-name="afii10039" unicode="&#x425;" horiz-adv-x="1247" 
d="M-70 0l583 783l-344 684h173q20 0 29.5 -7t17.5 -21l262 -553l10 18t12 20l373 514q11 15 21.5 22t26.5 7h197l-513 -675l387 -792h-172q-20 0 -31.5 12t-17.5 25l-299 640q-4 -8 -8.5 -16t-9.5 -15l-443 -609q-13 -20 -29 -28.5t-34 -8.5h-191z" />
    <glyph glyph-name="afii10040" unicode="&#x426;" horiz-adv-x="1479" 
d="M99 0l181 1466h192l-162 -1315h664l162 1315h192l-161 -1315h204l-54 -452q-4 -26 -23 -41t-46 -15h-114l44 357h-1079z" />
    <glyph glyph-name="afii10041" unicode="&#x427;" horiz-adv-x="1261" 
d="M135 988l58 478h193l-59 -479q-12 -103 16 -165.5t100 -87t189 -13t279 56.5l85 688h192l-180 -1466h-192l78 639q-112 -32 -216 -50t-193 -17.5t-160 23t-118 72t-66.5 128t-5.5 193.5z" />
    <glyph glyph-name="afii10042" unicode="&#x428;" horiz-adv-x="2042" 
d="M99 0l181 1466h192l-162 -1315h555l162 1315h193l-162 -1315h559l161 1315h192l-179 -1466h-1692z" />
    <glyph glyph-name="afii10043" unicode="&#x429;" horiz-adv-x="2121" 
d="M99 0l181 1466h192l-162 -1315h555l162 1315h193l-162 -1315h559l161 1315h192l-161 -1315h204l-54 -452q-4 -26 -23 -41t-46 -15h-114l45 357h-1722z" />
    <glyph glyph-name="afii10044" unicode="&#x42a;" horiz-adv-x="1399" 
d="M106 1311l20 155h585l-79 -633h259q113 0 194 -26t134 -71.5t78 -108t25 -137.5q0 -111 -36.5 -201t-105.5 -154.5t-168.5 -99.5t-224.5 -35h-448l161 1311h-394zM549 152h257q82 0 143 21.5t101.5 62t60 98.5t19.5 132q0 102 -61 158.5t-198 56.5h-258z" />
    <glyph glyph-name="afii10045" unicode="&#x42b;" horiz-adv-x="1679" 
d="M99 0l181 1466h191l-79 -633h259q113 0 194.5 -26t134 -71.5t77.5 -108t25 -137.5q0 -111 -36 -201t-105.5 -154.5t-168.5 -99.5t-224 -35h-449zM99 0zM309 152h257q82 0 143 21.5t101.5 62t60.5 98.5t20 132q0 102 -61.5 158.5t-197.5 56.5h-258zM1235 0l180 1467h192
l-179 -1467h-193z" />
    <glyph glyph-name="afii10046" unicode="&#x42c;" horiz-adv-x="1162" 
d="M99 0l181 1466h191l-79 -633h259q113 0 194.5 -26t134 -71.5t77.5 -108t25 -137.5q0 -111 -36 -201t-105.5 -154.5t-168.5 -99.5t-224 -35h-449zM309 152h257q82 0 143 21.5t101.5 62t60.5 98.5t20 132q0 102 -61.5 158.5t-197.5 56.5h-258z" />
    <glyph glyph-name="afii10047" unicode="&#x42d;" horiz-adv-x="1286" 
d="M5 203l86 82q14 13 30 13q17 0 31 -15q32 -35 64.5 -60.5t71 -42t84.5 -25t103 -8.5q94 0 181 35.5t157.5 103t120 166t68.5 223.5h-678l17 145h674v11q0 112 -28 202t-79.5 153.5t-124.5 98t-165 34.5q-86 0 -147.5 -20t-105 -43.5t-71.5 -43.5t-45 -20q-15 0 -24 6.5
t-14 15.5l-50 86q97 86 214.5 134.5t263.5 48.5q133 0 239 -47.5t180 -133t113 -204t39 -259.5q0 -187 -54 -344.5t-152 -270.5t-233 -176.5t-298 -63.5q-84 0 -153 15t-127 43.5t-104 69t-84 91.5z" />
    <glyph glyph-name="afii10048" unicode="&#x42e;" horiz-adv-x="2019" 
d="M100 0l180 1467h192l-81 -659h314q25 151 86.5 275t153.5 212.5t210 138t254 49.5q126 0 225.5 -47t168.5 -131.5t105.5 -201t36.5 -254.5q0 -189 -54 -348t-149.5 -273t-228 -178t-288.5 -64q-126 0 -225.5 47t-168.5 131t-105.5 200t-36.5 254v39h-316l-80 -657h-193z
M884 622q0 -110 24.5 -197.5t70.5 -149.5t113 -95.5t152 -33.5q112 0 204.5 49.5t159 140.5t103.5 220t37 289q0 109 -24.5 196.5t-70.5 150t-112.5 96.5t-151.5 34q-112 0 -204.5 -49.5t-160 -141.5t-104 -221.5t-36.5 -287.5z" />
    <glyph glyph-name="afii10049" unicode="&#x42f;" horiz-adv-x="1267" 
d="M-77 0l411 537q35 47 72 78t81 51q-141 32 -209.5 119.5t-68.5 211.5q0 105 36.5 192t105.5 148.5t167 95t223 33.5h454l-180 -1466h-192l78 634h-178q-25 0 -47.5 -4.5t-44.5 -16.5t-44.5 -33t-46.5 -55l-344 -456q-22 -32 -54 -50.5t-74 -18.5h-145zM398 1005
q0 -102 61.5 -161t197.5 -59h263l64 529h-261q-165 0 -245 -80.5t-80 -228.5z" />
    <glyph glyph-name="afii10065" unicode="&#x430;" horiz-adv-x="1046" 
d="M51 351q0 92 23 179.5t65.5 165.5t102 143t132.5 112.5t157 74t177 26.5q67 0 129.5 -11t124.5 -37l-124 -1004h-95q-36 0 -48.5 18.5t-12.5 44.5l18 210q-37 -66 -79 -119t-90 -90t-100 -57.5t-108 -20.5q-61 0 -111.5 24t-86 70.5t-55 114.5t-19.5 156zM233 384
q0 -247 158 -247q50 0 98.5 31.5t91.5 86.5t80 131.5t66 167.5l44 356q-23 5 -44.5 7t-43.5 2q-61 0 -118.5 -20t-107.5 -56t-91 -85.5t-70.5 -109t-46 -126.5t-16.5 -138z" />
    <glyph glyph-name="afii10066" unicode="&#x431;" horiz-adv-x="1103" 
d="M106 494q0 83 8.5 180.5t31 198.5t64 197.5t107.5 177.5t161 139t227 81l381 70v-92q0 -31 -14.5 -52.5t-44.5 -28.5l-282 -45q-91 -14 -159.5 -46t-120 -76.5t-87 -99.5t-59 -115t-37 -124t-20.5 -128q34 65 81 117.5t105 90.5t125.5 58.5t141.5 20.5q66 0 121.5 -22
t96.5 -67.5t64 -115t23 -164.5q0 -82 -17.5 -162.5t-50.5 -154.5t-80.5 -137t-107 -109.5t-131 -73t-152.5 -26.5q-79 0 -147 27.5t-118.5 88t-80 157t-29.5 235.5zM285 415q0 -144 54.5 -218.5t153.5 -74.5q77 0 140.5 44.5t109 117t71 165t25.5 187.5q0 124 -48.5 187.5
t-137.5 63.5q-80 0 -147.5 -41.5t-116.5 -108t-76.5 -151t-27.5 -171.5z" />
    <glyph glyph-name="afii10067" unicode="&#x432;" horiz-adv-x="974" 
d="M56 388q0 85 18.5 167t53 155.5t83.5 136t110.5 107.5t133.5 71t153 26q68 0 118 -17.5t82.5 -47t48 -66.5t15.5 -77q0 -41 -14 -80t-45.5 -74.5t-80.5 -65t-118 -51.5q56 -2 102.5 -16.5t79 -42.5t50 -67t17.5 -92q0 -71 -31 -137t-88 -118t-137 -83t-176 -31
q-91 0 -161 29.5t-118 83t-72 127.5t-24 163zM236 413q-1 -66 11.5 -119.5t39 -92t67.5 -59t97 -19.5q51 1 95.5 20t77.5 50t52 72t19 87q0 37 -12.5 69t-42.5 52.5t-77.5 27t-116.5 -6.5l-208 -44q-1 -9 -1.5 -18.5t-0.5 -18.5zM253 563l180 40q91 17 147 41t86 51t40.5 56
t10.5 58q0 22 -7 42.5t-22 37t-40 27t-62 10.5q-60 0 -113 -28t-96 -77t-75 -115t-49 -143z" />
    <glyph glyph-name="afii10068" unicode="&#x433;" horiz-adv-x="831" 
d="M23 226q0 55 24 102t62.5 88t89 77t103 69t103 63.5t89 61t63 61.5t24.5 65q0 40 -36 67.5t-104 27.5q-45 0 -84 -11.5t-70 -26.5t-54 -27.5t-37 -12.5q-8 0 -17.5 4.5t-16.5 19.5l-39 74q34 29 74.5 51.5t84.5 38.5t90 24.5t91 8.5q58 0 111.5 -14t94 -42t64 -70
t23.5 -99q0 -54 -23.5 -99.5t-62.5 -85t-89 -74.5t-102 -66.5t-101.5 -62t-88.5 -62t-62.5 -64.5t-23.5 -71q0 -47 44.5 -79.5t121.5 -32.5q51 0 94 14t76.5 30.5t59 30.5t39.5 14t23.5 -5.5t17.5 -16.5l41 -64q-80 -72 -179.5 -109t-200.5 -37q-74 0 -133 18.5t-99.5 51
t-62.5 76t-22 94.5z" />
    <glyph glyph-name="afii10069" unicode="&#x434;" horiz-adv-x="1077" 
d="M62 421q0 117 35.5 228.5t100.5 198.5t157 140t206 53q82 0 145 -29t111 -84q-12 120 -50 201.5t-103 131.5t-157.5 70.5t-213.5 16.5q-24 0 -31.5 10.5t-4.5 31.5l9 84q167 16 300 -10.5t226.5 -106t143 -214t49.5 -334.5q0 -199 -44.5 -352.5t-120.5 -258t-176.5 -158
t-213.5 -53.5q-81 0 -148.5 28t-116 83t-76 135.5t-27.5 187.5zM244 419q0 -75 15 -129t43 -89.5t66.5 -53t84.5 -17.5q71 0 134.5 40t112.5 123.5t77.5 212t28.5 305.5l2 -1q-35 44 -88 71t-121 27q-82 0 -147.5 -40.5t-111.5 -108t-71 -156t-25 -184.5z" />
    <glyph glyph-name="afii10070" unicode="&#x435;" horiz-adv-x="986" 
d="M59 407q0 80 17 159t49.5 150.5t79 133t106.5 106t132 70.5t155 26q79 0 136.5 -22.5t94 -57.5t54.5 -77t18 -80q0 -68 -27.5 -124.5t-101.5 -102t-203 -79.5t-331 -54q-1 -11 -1 -22v-22q0 -137 59.5 -209.5t180.5 -72.5q49 0 87.5 10.5t69 25t53.5 32.5t42 33t35 25
t33 10q19 0 34 -17l46 -57q-52 -54 -102.5 -92.5t-102 -64t-108.5 -37t-123 -11.5q-89 0 -159.5 29.5t-119.5 84.5t-76 132.5t-27 174.5zM255 575q158 19 253 44.5t146.5 54.5t67.5 63t16 71q0 18 -8 38t-26 36.5t-46.5 27.5t-69.5 11q-65 0 -119 -27t-96 -73.5t-72 -109.5
t-46 -136z" />
    <glyph glyph-name="afii10072" unicode="&#x436;" horiz-adv-x="1783" 
d="M-11 53l44 76q10 17 19.5 23t21.5 6q8 1 17.5 -2.5t22 -8.5t27.5 -9t33 -4q48 0 94 39t82.5 109.5t58.5 168t22 214.5q0 68 -7.5 113.5t-23 75t-38 42t-52.5 12.5q-27 0 -47 -8t-36.5 -18.5t-29 -18.5t-21.5 -9q-10 0 -20 3t-16 13l-40 78q30 29 62.5 49t65 32t64 17.5
t58.5 5.5q109 0 172.5 -78.5t63.5 -240.5q0 -104 -19.5 -198.5t-55.5 -177.5q48 56 97 126.5t95 149.5t83.5 165t62.5 174l7 66l154 -1l-65 -627q44 85 97.5 165t110.5 151.5t117 131.5t117.5 103t109.5 67t95 24q46 0 89.5 -16t86.5 -52l-43 -76q-10 -16 -19.5 -22
t-21.5 -6q-8 0 -17.5 3.5t-22 8t-27 8t-33.5 3.5q-48 0 -94 -39t-82.5 -109t-58.5 -167.5t-22 -213.5q0 -68 7.5 -114.5t23 -75.5t38 -42t52.5 -13q26 0 47 8t37 18.5t28.5 19t21.5 8.5q10 0 20 -2.5t16 -13.5l40 -78q-30 -29 -62 -48t-65 -31.5t-64 -17.5t-59 -5
q-109 0 -172.5 77.5t-63.5 239.5q0 104 19 198.5t55 177.5q-48 -55 -96.5 -124.5t-93 -147.5t-82.5 -163.5t-64 -172.5l-7 -73h-153l64 633q-44 -85 -97 -166t-111 -152.5t-117.5 -131.5t-117 -103.5t-110 -67.5t-95.5 -24q-46 0 -89.5 15t-87.5 51z" />
    <glyph glyph-name="afii10073" unicode="&#x437;" horiz-adv-x="886" 
d="M-15 114l46 74q5 9 15 17t22 8q18 0 38.5 -14.5t49.5 -31t71.5 -31t106.5 -14.5q63 0 113 17.5t84 47.5t52 70.5t18 87.5q0 78 -52.5 115t-149.5 37q-31 0 -69 -5t-74 -10q0 35 2.5 68.5t15.5 66.5q29 -3 56 -5.5t56 -2.5q63 -1 110.5 14t78.5 39.5t46.5 56.5t15.5 65
q0 27 -9.5 50.5t-31 41.5t-55 28.5t-82.5 10.5q-65 0 -109.5 -13.5t-74.5 -30.5t-49.5 -32t-32.5 -16q-11 -1 -20 2.5t-19 19.5l-38 62q29 31 69.5 57.5t89.5 46t104 31t114 11.5q81 0 138.5 -20t95.5 -53t56 -75.5t18 -87.5q0 -37 -12.5 -75.5t-39.5 -72.5t-70.5 -62
t-107.5 -44q95 -17 146 -77t51 -145q0 -66 -28 -129.5t-84 -113.5t-139 -81t-191 -31q-102 0 -188 32.5t-153 95.5z" />
    <glyph glyph-name="afii10074" unicode="&#x438;" horiz-adv-x="1084" 
d="M96.5 211q-11.5 73 0.5 167l78 659h181l-77 -659q-14 -122 15 -181.5t109 -59.5q47 0 97 25.5t96.5 73t86.5 114t70 148.5l64 539h181l-125 -1037h-90q-67 0 -66 66l15 188q-83 -132 -185.5 -200t-210.5 -68q-66 0 -116 26t-81 76t-42.5 123z" />
    <glyph glyph-name="afii10075" unicode="&#x439;" horiz-adv-x="1084" 
d="M85 0zM96.5 211q-11.5 73 0.5 167l78 659h181l-77 -659q-14 -122 15 -181.5t109 -59.5q47 0 97 25.5t96.5 73t86.5 114t70 148.5l64 539h181l-125 -1037h-90q-67 0 -66 66l15 188q-83 -132 -185.5 -200t-210.5 -68q-66 0 -116 26t-81 76t-42.5 123zM373 1412
q2 20 13.5 37.5t28.5 17.5h99q-11 -97 15 -138t104 -41q38 0 65.5 10t46.5 31.5t30.5 55t16.5 82.5h98q18 0 25.5 -17t5.5 -38q-6 -51 -29 -92t-62 -70t-92 -44.5t-117 -15.5q-129 0 -194 60t-54 162z" />
    <glyph glyph-name="afii10076" unicode="&#x43a;" horiz-adv-x="986" 
d="M59 0l126 1037h175l-56 -458l89 18q20 4 35.5 9t28.5 13t24.5 19t22.5 27l155 203q32 45 56.5 77.5t50.5 53t56.5 30t74.5 9.5h77l-19 -94q-4 -23 -16.5 -29.5t-30.5 -11.5t-39 -15t-43 -39l-152 -201q-15 -20 -29.5 -36.5t-30 -28.5t-33.5 -20.5t-40 -13.5
q58 -11 94.5 -43t60.5 -90l191 -416h-104q-47 0 -71 16t-38 45l-152 326q-17 40 -49 66t-75 26l-108 -20l-56 -459h-175z" />
    <glyph glyph-name="afii10077" unicode="&#x43b;" horiz-adv-x="1108" 
d="M-27 22l13 103h33q48 0 82.5 22.5t63 73t53.5 132.5t56 201q33 130 77 221.5t109 149.5t156.5 84.5t217.5 26.5h190l-127 -1036h-175l109 898h-33q-76 0 -131 -18t-96 -59t-70.5 -109t-54.5 -167q-37 -159 -77 -266t-88 -172t-104 -92.5t-125 -27.5q-46 0 -63.5 7.5
t-15.5 27.5z" />
    <glyph glyph-name="afii10078" unicode="&#x43c;" horiz-adv-x="1426" 
d="M2 0q39 123 75.5 247.5t68.5 253.5t61 263t53 276h142q18 0 37 -7.5t26 -32.5l210 -633q7 -25 12.5 -47t9.5 -42q11 31 32 64l388 658q15 24 34 32t38 8h152l-127 -1040h-164l90 721q2 20 6.5 45t10.5 48l-445 -752q-10 -14 -24 -23t-32 -9h-25q-16 0 -28 9t-18 23
l-229 747q-4 -27 -8 -55.5t-9 -50.5q-15 -83 -30.5 -162t-33.5 -158.5t-39.5 -160t-50.5 -165.5q-9 -27 -27.5 -42t-46.5 -15h-109z" />
    <glyph glyph-name="afii10079" unicode="&#x43d;" horiz-adv-x="1081" 
d="M60 0l125 1037h182l-52 -426h448l51 426h181l-125 -1037h-181l57 476h-447l-57 -476h-182z" />
    <glyph glyph-name="afii10080" unicode="&#x43e;" horiz-adv-x="1062" 
d="M60 417q0 131 41 246.5t113 202t168.5 137t208.5 50.5q85 0 155.5 -29.5t122 -84.5t80 -135t28.5 -181q0 -130 -41 -246t-112 -203t-168.5 -137.5t-209.5 -50.5q-85 0 -155.5 29t-121.5 84.5t-80 135t-29 182.5zM244 418q0 -143 56 -216.5t164 -73.5q75 0 135.5 41
t104.5 109t67.5 157t23.5 187q0 143 -57 215t-164 72q-76 0 -136.5 -40.5t-103.5 -108t-66.5 -156.5t-23.5 -186z" />
    <glyph glyph-name="afii10081" unicode="&#x43f;" horiz-adv-x="1085" 
d="M60 0l125 1038h90q61 0 62 -61l-15 -202q83 137 187 207.5t215 70.5q66 0 115.5 -26.5t80.5 -76.5t42.5 -123t0.5 -167l-78 -660h-182l78 660q14 123 -15.5 182t-109.5 59q-49 0 -99.5 -26.5t-97.5 -75.5t-87.5 -118.5t-69.5 -154.5l-59 -526h-183z" />
    <glyph glyph-name="afii10082" unicode="&#x440;" horiz-adv-x="1082" 
d="M17 -351l169 1389h90q61 0 62 -61l-17 -221q39 68 85 122.5t96.5 93.5t106 60t112.5 21q133 0 206 -96.5t73 -281.5q0 -84 -17 -168t-49.5 -160.5t-78 -142.5t-101.5 -114.5t-121.5 -76t-136.5 -27.5q-77 0 -140 30t-106 85l-55 -452h-178zM265 227q39 -54 93.5 -77
t110.5 -23q53 0 100 22.5t86 61t70 90t52 110.5t32 122t11 124q0 122 -44 185.5t-124 63.5q-49 0 -99 -30t-96.5 -84.5t-87.5 -129t-71 -163.5z" />
    <glyph glyph-name="afii10083" unicode="&#x441;" horiz-adv-x="930" 
d="M59 410q0 126 39.5 241.5t110.5 204.5t168.5 142.5t213.5 53.5q103 0 173 -36.5t122 -106.5l-58 -68q-7 -8 -15.5 -13.5t-19.5 -5.5q-14 0 -28 13t-36.5 29t-56 28.5t-85.5 12.5q-71 0 -133.5 -38.5t-109.5 -105t-74 -157.5t-27 -195q0 -63 14 -115t43 -88.5t70.5 -56.5
t96.5 -20q69 0 115.5 20.5t78 44.5t53.5 44.5t44 20.5q19 0 35 -17l45 -56q-53 -58 -101.5 -97t-96.5 -62t-100 -32t-111 -9q-90 0 -159 30.5t-115.5 86.5t-71 134t-24.5 173z" />
    <glyph glyph-name="afii10084" unicode="&#x442;" horiz-adv-x="1611" 
d="M60 0l125 1038h90q62 0 63 -61l-14 -184q77 128 168.5 194t191.5 66q105 0 155.5 -72.5t50.5 -206.5q77 142 173.5 210.5t204.5 68.5q133 0 188 -102.5t33 -290.5l-78 -660h-180l79 660q14 122 -8 181.5t-99 59.5q-44 0 -87.5 -22t-84.5 -64.5t-76 -105.5t-63 -145v-1
l-67 -563h-180l78 660q15 122 -4.5 181.5t-95.5 59.5q-49 0 -95 -24.5t-86.5 -71t-75 -113.5t-63.5 -151l-64 -541h-179z" />
    <glyph glyph-name="afii10085" unicode="&#x443;" horiz-adv-x="982" 
d="M74 1037h150q23 0 33 -10.5t15 -27.5l167 -653q5 -22 8.5 -43t5.5 -43q8 22 17.5 44t19.5 43l328 654q8 16 23 26t30 10h145l-701 -1346q-11 -22 -26 -32t-37 -10h-134l225 412z" />
    <glyph glyph-name="afii10086" unicode="&#x444;" horiz-adv-x="1491" 
d="M59 368q0 87 15.5 171.5t44.5 160t70 140.5t93.5 112t114.5 74t131 27q55 0 98.5 -21t72.5 -51l54 442q5 36 31 60.5t69 24.5h89l-66 -553q48 47 108 72.5t135 25.5q65 0 118 -22t91 -69t58.5 -119t20.5 -173q0 -87 -15.5 -171.5t-44.5 -160.5t-70 -140.5t-93 -111.5
t-114 -73.5t-132 -26.5q-55 0 -98 20.5t-73 49.5l-40 -329q-5 -36 -31 -60t-69 -24h-88l53 441q-49 -48 -109.5 -73t-135.5 -25q-65 0 -118 22t-91 68t-58.5 118t-20.5 174zM240 383q0 -69 11.5 -116.5t34 -77.5t54.5 -43.5t72 -13.5q28 0 56 6.5t54 19t48.5 31t38.5 41.5
l77 642q-28 20 -60 29.5t-66 9.5q-77 0 -136.5 -46.5t-100.5 -121.5t-62 -169.5t-21 -190.5zM780 165q27 -20 59.5 -29.5t66.5 -9.5q77 0 136.5 46.5t100.5 122t62 170t21 189.5q0 69 -12 117t-34 78t-53.5 43.5t-71.5 13.5q-56 0 -110 -25.5t-87 -71.5z" />
    <glyph glyph-name="afii10087" unicode="&#x445;" horiz-adv-x="950" 
d="M-65 0l419 558l-249 479h163q20 0 29.5 -5.5t15.5 -19.5l174 -358q11 23 26 44l235 311q16 29 43 28h163l-370 -481l276 -556h-162q-20 0 -32 10t-19 26l-194 415q-10 -23 -22 -39l-283 -377q-11 -14 -23 -24.5t-31 -10.5h-159z" />
    <glyph glyph-name="afii10088" unicode="&#x446;" horiz-adv-x="1150" 
d="M96.5 211q-11.5 73 0.5 167l78 659h181l-77 -659q-14 -122 15 -181.5t109 -59.5q47 0 97 25.5t96.5 73t86.5 114t70 148.5l64 539h181l-108 -903h174l-106 -437q-3 -26 -18.5 -40t-39.5 -14h-107l95 357h-105q-67 0 -66 66l15 188q-83 -132 -185.5 -200t-210.5 -68
q-66 0 -116 26t-81 76t-42.5 123z" />
    <glyph glyph-name="afii10089" unicode="&#x447;" horiz-adv-x="980" 
d="M81 519q-9 62 0 136l46 382h182l-46 -382q-5 -40 -1 -74t19 -59t41 -39.5t65 -14.5q45 0 88 16t80 45.5t67 71t50 92.5l42 344h181l-124 -1037h-182l58 488q-65 -80 -149 -126t-187 -46q-68 0 -116 25.5t-76.5 70.5t-37.5 107z" />
    <glyph glyph-name="afii10090" unicode="&#x448;" horiz-adv-x="1611" 
d="M97 378l78 659h180l-79 -659q-14 -122 8 -181.5t99 -59.5q44 0 87.5 22t84.5 65t76.5 106.5t62.5 146.5l67 560h180l-78 -659q-8 -60 -7.5 -106t12 -75.5t34.5 -44.5t62 -15q49 0 94 25t86 72t75.5 114t63.5 151l65 538h178l-125 -1037h-90q-63 0 -63 62l14 185
q-76 -129 -168 -195t-192 -66q-105 0 -156 71.5t-50 206.5q-77 -142 -174 -210t-204 -68q-133 0 -188.5 102t-32.5 290z" />
    <glyph glyph-name="afii10091" unicode="&#x449;" horiz-adv-x="1674" 
d="M97 378l78 659h180l-79 -659q-14 -122 8 -181.5t99 -59.5q44 0 87.5 22t84.5 65t76.5 106.5t62.5 146.5l67 560h180l-78 -659q-8 -60 -7.5 -106t12 -75.5t34.5 -44.5t62 -15q49 0 94 25t86 72t75.5 114t63.5 151l65 538h178l-109 -903h167l-105 -437q-3 -26 -19.5 -40
t-39.5 -14h-108l95 357h-96q-63 0 -63 62l14 185q-76 -129 -168 -195t-192 -66q-105 0 -156 71.5t-50 206.5q-77 -142 -174 -210t-204 -68q-133 0 -188.5 102t-32.5 290z" />
    <glyph glyph-name="afii10092" unicode="&#x44a;" horiz-adv-x="1059" 
d="M57 901l9 66q5 31 26 50.5t58 19.5h450l-14 -94q-74 -102 -113.5 -205t-55.5 -211q33 42 73 76t83.5 57.5t89.5 36t89 12.5q52 0 95 -18.5t73 -52t46.5 -80.5t16.5 -104q0 -54 -15 -110t-43 -108.5t-69 -98t-92.5 -79t-113.5 -53t-133 -19.5q-68 0 -123.5 20t-95.5 62
t-61.5 107t-21.5 154q0 67 9.5 136t33 140t60 145t91.5 151h-352zM391 275q0 -80 42.5 -120t108.5 -40q55 0 104 27t86 71t59 101t22 116q0 30 -6 57t-21 48t-39.5 33.5t-60.5 12.5q-51 0 -103.5 -25.5t-95 -68t-69.5 -97.5t-27 -115z" />
    <glyph glyph-name="afii10093" unicode="&#x44b;" horiz-adv-x="1324" 
d="M84 247l95 790h177l-62 -512q32 41 70 75.5t79.5 58t84.5 37t84 13.5q55 0 99.5 -18.5t75.5 -51.5t47.5 -80t16.5 -103q0 -94 -40.5 -179.5t-109.5 -150t-160 -102.5t-192 -38q-73 0 -126 18.5t-86.5 52.5t-46.5 82t-6 108zM259 233q-6 -50 31.5 -84t112.5 -34
q55 0 106 28t89 73t60.5 101.5t22.5 112.5q0 30 -6 57t-21 48t-39.5 33.5t-61.5 12.5q-48 0 -96.5 -26.5t-89 -69t-69 -95.5t-34.5 -107zM932 0l124 1037h182l-125 -1037h-181z" />
    <glyph glyph-name="afii10094" unicode="&#x44c;" horiz-adv-x="926" 
d="M84 247l95 790h177l-62 -512q32 41 70 75.5t79.5 58t84.5 37t84 13.5q55 0 99.5 -18.5t75.5 -51.5t47.5 -80t16.5 -103q0 -94 -40.5 -179.5t-109.5 -150t-160 -102.5t-192 -38q-73 0 -126 18.5t-86.5 52.5t-46.5 82t-6 108zM259 233q-6 -50 31.5 -84t112.5 -34
q55 0 106 28t89 73t60.5 101.5t22.5 112.5q0 30 -6 57t-21 48t-39.5 33.5t-61.5 12.5q-48 0 -96.5 -26.5t-89 -69t-69 -95.5t-34.5 -107z" />
    <glyph glyph-name="afii10095" unicode="&#x44d;" horiz-adv-x="935" 
d="M10 129l52 62q6 8 15.5 13.5t19.5 5.5q13 0 29.5 -13t42 -28.5t61 -28.5t87.5 -13q69 0 126.5 25t101 70.5t73 108t41.5 137.5h-455l14 123h452q-1 75 -17.5 134.5t-49.5 101t-81 64t-112 22.5q-52 0 -91 -12.5t-68 -28t-50 -27.5t-37 -12q-20 0 -29 7.5t-14 16.5l-31 70
q41 31 81 54.5t82.5 38.5t89 23.5t98.5 8.5q99 0 175.5 -33.5t127.5 -94t77 -145.5t26 -187q0 -126 -39 -236.5t-109 -193t-167.5 -129.5t-215.5 -47q-102 0 -178 36t-128 107z" />
    <glyph glyph-name="afii10096" unicode="&#x44e;" horiz-adv-x="1434" 
d="M58 0l128 1036h176l-55 -449h217q20 100 64 185.5t105.5 147.5t138 97.5t162.5 35.5q77 0 142 -29t112.5 -83t74.5 -133t27 -179q0 -131 -38.5 -248t-106 -205t-159.5 -139t-197 -51q-77 0 -140 28.5t-107.5 83t-69.5 133.5t-25 180v23.5t1 24.5h-217l-57 -459h-176z
M679 410q1 -138 49 -210t141 -72q68 0 123 41.5t93.5 111t59.5 159.5t21 189q0 140 -48.5 210t-141.5 70q-68 0 -122.5 -41t-93.5 -110t-60 -159t-21 -189z" />
    <glyph glyph-name="afii10097" unicode="&#x44f;" horiz-adv-x="1022" 
d="M-34 26l12 101h35q40 0 71.5 17.5t56.5 56.5l116 174q24 36 54.5 60.5t73.5 38.5q-63 9 -108 32.5t-72.5 56.5t-39.5 72.5t-12 81.5q0 55 22.5 112t70 103t122 75t180.5 29h390l-127 -1036h-167l53 439h-131q-31 0 -53.5 -6t-39 -17.5t-30 -27t-25.5 -36.5l-145 -235
q-23 -39 -48 -64t-54 -39t-59.5 -19t-63.5 -5q-48 0 -66 7.5t-16 28.5zM328 712q0 -75 49 -117.5t136 -42.5h199l45 366h-209q-62 0 -105 -20t-68.5 -50.5t-36 -66.5t-10.5 -69z" />
    <glyph glyph-name="uni0450" unicode="&#x450;" horiz-adv-x="986" 
d="M59 0zM59 407q0 80 17 159t49.5 150.5t79 133t106.5 106t132 70.5t155 26q79 0 136.5 -22.5t94 -57.5t54.5 -77t18 -80q0 -68 -27.5 -124.5t-101.5 -102t-203 -79.5t-331 -54q-1 -11 -1 -22v-22q0 -137 59.5 -209.5t180.5 -72.5q49 0 87.5 10.5t69 25t53.5 32.5t42 33
t35 25t33 10q19 0 34 -17l46 -57q-52 -54 -102.5 -92.5t-102 -64t-108.5 -37t-123 -11.5q-89 0 -159.5 29.5t-119.5 84.5t-76 132.5t-27 174.5zM255 575q158 19 253 44.5t146.5 54.5t67.5 63t16 71q0 18 -8 38t-26 36.5t-46.5 27.5t-69.5 11q-65 0 -119 -27t-96 -73.5
t-72 -109.5t-46 -136zM372 1484h159q31 0 45 -11t24 -34l112 -248h-95q-19 0 -31 6.5t-24 22.5z" />
    <glyph glyph-name="afii10071" unicode="&#x451;" horiz-adv-x="986" 
d="M59 0zM59 407q0 80 17 159t49.5 150.5t79 133t106.5 106t132 70.5t155 26q79 0 136.5 -22.5t94 -57.5t54.5 -77t18 -80q0 -68 -27.5 -124.5t-101.5 -102t-203 -79.5t-331 -54q-1 -11 -1 -22v-22q0 -137 59.5 -209.5t180.5 -72.5q49 0 87.5 10.5t69 25t53.5 32.5t42 33
t35 25t33 10q19 0 34 -17l46 -57q-52 -54 -102.5 -92.5t-102 -64t-108.5 -37t-123 -11.5q-89 0 -159.5 29.5t-119.5 84.5t-76 132.5t-27 174.5zM255 575q158 19 253 44.5t146.5 54.5t67.5 63t16 71q0 18 -8 38t-26 36.5t-46.5 27.5t-69.5 11q-65 0 -119 -27t-96 -73.5
t-72 -109.5t-46 -136zM318 1320q0 24 9.5 45t25 37t36 25.5t44.5 9.5t45 -9.5t37 -25.5t25.5 -37t9.5 -45t-9.5 -44.5t-25.5 -35.5t-37 -24.5t-45 -9.5t-44.5 9.5t-36 24.5t-25 35.5t-9.5 44.5zM688 1320q0 24 9 45t25 37t37 25.5t45 9.5t44.5 -9.5t36.5 -25.5t25 -37t9 -45
t-9 -44.5t-25 -35.5t-37 -24.5t-44 -9.5q-24 0 -45 9.5t-37 24.5t-25 35.5t-9 44.5z" />
    <glyph glyph-name="afii10099" unicode="&#x452;" horiz-adv-x="1055" 
d="M29 1127l16 138h169l30 242h176l-30 -242h328l-17 -138h-328l-46 -377q77 98 167.5 157t192.5 59q66 0 115 -25.5t81 -72t48 -113t16 -148.5q0 -242 -93.5 -476t-260.5 -471l-135 56q81 126 139 240t96.5 220t57 205.5t18.5 197.5q0 119 -38.5 183t-116.5 64
q-39 0 -79.5 -19.5t-80.5 -54.5t-78.5 -84.5t-72.5 -107.5l-69 -560h-176l139 1127h-168z" />
    <glyph glyph-name="afii10100" unicode="&#x453;" horiz-adv-x="831" 
d="M23 0zM23 226q0 55 24 102t62.5 88t89 77t103 69t103 63.5t89 61t63 61.5t24.5 65q0 40 -36 67.5t-104 27.5q-45 0 -84 -11.5t-70 -26.5t-54 -27.5t-37 -12.5q-8 0 -17.5 4.5t-16.5 19.5l-39 74q34 29 74.5 51.5t84.5 38.5t90 24.5t91 8.5q58 0 111.5 -14t94 -42t64 -70
t23.5 -99q0 -54 -23.5 -99.5t-62.5 -85t-89 -74.5t-102 -66.5t-101.5 -62t-88.5 -62t-62.5 -64.5t-23.5 -71q0 -47 44.5 -79.5t121.5 -32.5q51 0 94 14t76.5 30.5t59 30.5t39.5 14t23.5 -5.5t17.5 -16.5l41 -64q-80 -72 -179.5 -109t-200.5 -37q-74 0 -133 18.5t-99.5 51
t-62.5 76t-22 94.5zM405 1191l166 248q15 24 32.5 34.5t47.5 10.5h164l-250 -264q-14 -15 -27.5 -22t-32.5 -7h-100z" />
    <glyph glyph-name="afii10101" unicode="&#x454;" horiz-adv-x="935" 
d="M59 410q0 126 39.5 241.5t110.5 204.5t168.5 142.5t213.5 53.5q103 0 173 -36.5t122 -106.5l-52 -63q-6 -7 -15.5 -13t-20.5 -6q-14 0 -28 13t-36 29t-55.5 28.5t-85.5 12.5q-58 0 -111 -23.5t-96.5 -66t-76.5 -100.5t-51 -129h442l-14 -123h-447q-2 -13 -2 -26.5v-26.5
q0 -63 14.5 -116.5t44 -92.5t73.5 -60.5t103 -21.5q46 0 82 9.5t63.5 24t48.5 31.5t38 31t31 24t28 10q19 0 35 -17l40 -51q-53 -58 -101.5 -97t-96.5 -62t-100 -32t-111 -9q-90 0 -159 30.5t-115.5 86.5t-71 134t-24.5 173z" />
    <glyph glyph-name="afii10102" unicode="&#x455;" horiz-adv-x="819" 
d="M-1 110l45 69q9 13 20 20.5t28 7.5q16 0 32.5 -14.5t41 -32.5t62 -32t95.5 -14q50 0 90.5 15t68.5 41t43 60t15 73q0 52 -32 83t-80 51.5t-103.5 38.5t-103.5 46t-79.5 73t-31.5 120q0 66 26 126.5t75 107.5t119 75.5t158 28.5q93 0 164.5 -31.5t122.5 -84.5l-46 -66
q-8 -12 -16 -17.5t-21 -5.5q-14 0 -31 11t-41 25t-59 26t-84 12q-46 0 -84 -13t-65 -35.5t-42 -52.5t-15 -64q0 -48 32 -77t80 -50t103.5 -40.5t103.5 -49t79.5 -75.5t31.5 -120q0 -72 -28 -137.5t-80.5 -115t-127 -79t-166.5 -29.5q-99 0 -175.5 35t-124.5 91z" />
    <glyph glyph-name="afii10103" unicode="&#x456;" horiz-adv-x="471" 
d="M71 0l125 1037h179l-125 -1037h-179zM194 1363q0 27 10 50.5t27.5 41.5t40 28.5t45.5 10.5q25 0 48 -10t40.5 -28t28 -42t10.5 -51t-10.5 -50t-28.5 -41t-41 -28t-48 -10q-24 0 -46 10t-39 28t-27 41t-10 50z" />
    <glyph glyph-name="afii10104" unicode="&#x457;" horiz-adv-x="471" 
d="M58 0zM58 1320q0 24 9.5 45t25 37t36 25.5t43.5 9.5q24 0 44.5 -9.5t37 -25.5t26 -37t9.5 -45t-9.5 -44.5t-26 -35.5t-37.5 -24.5t-44 -9.5t-43.5 9.5t-36 24.5t-25 35.5t-9.5 44.5zM71 0l125 1037h179l-125 -1037h-179zM357 1320q0 24 9.5 45t24.5 37t36 25.5t45 9.5
t44.5 -9.5t36.5 -25.5t25.5 -37t9.5 -45t-9.5 -44.5t-25.5 -35.5t-37 -24.5t-44 -9.5q-24 0 -45 9.5t-36 24.5t-24.5 35.5t-9.5 44.5z" />
    <glyph glyph-name="afii10105" unicode="&#x458;" horiz-adv-x="468" 
d="M-181 -352l18 98q3 9 7.5 13.5t12.5 6t19.5 1t29.5 -0.5q73 0 107.5 37t45.5 120l137 1114h179l-137 -1114q-7 -62 -31 -116t-62.5 -94t-92.5 -63t-123 -23q-36 0 -61 5.5t-49 15.5zM189 1363q0 27 10.5 50.5t28 41.5t39.5 28.5t46 10.5q25 0 47.5 -10t40.5 -28t28 -42
t10 -51t-10.5 -50t-28.5 -41t-40.5 -28t-47.5 -10t-46.5 10t-38.5 28t-27.5 41t-10.5 50z" />
    <glyph glyph-name="afii10106" unicode="&#x459;" horiz-adv-x="1608" 
d="M-27 22l13 103h33q48 0 82.5 22.5t63 73t54 132.5t55.5 201q33 130 80 221.5t116.5 149.5t163.5 84.5t220 26.5h7v1h177v-1l-62 -511q32 41 70 75.5t79.5 58t84.5 37t84 13.5q55 0 99.5 -18.5t75.5 -51.5t47.5 -80t16.5 -103q0 -94 -40.5 -179.5t-109.5 -150t-160 -102.5
t-192 -38q-73 0 -126 18.5t-86.5 52.5t-46.5 82t-6 108l78 651h-26q-76 0 -133.5 -18t-102.5 -59t-78 -109t-58 -167q-37 -159 -77 -266t-88 -172t-104 -92.5t-125 -27.5q-46 0 -63.5 7.5t-15.5 27.5zM941 233q-6 -50 31.5 -84t112.5 -34q55 0 106 28t89 73t60.5 101.5
t22.5 112.5q0 30 -6 57t-21 48t-39.5 33.5t-61.5 12.5q-48 0 -96.5 -26.5t-89 -69t-69 -95.5t-34.5 -107z" />
    <glyph glyph-name="afii10107" unicode="&#x45a;" horiz-adv-x="1560" 
d="M59 0l125 1037h183l-52 -422h447l51 422h177l-62 -512q32 41 70 75.5t79.5 58t84.5 37t84 13.5q55 0 99.5 -18.5t75.5 -51.5t47.5 -80t16.5 -103q0 -94 -40.5 -179.5t-109.5 -150t-160.5 -102.5t-191.5 -38q-73 0 -126 18.5t-86.5 52.5t-46.5 82t-6 108l27 234h-446
l-57 -481h-183zM893 233q-6 -50 31.5 -84t112.5 -34q55 0 106 28t89 73t60.5 101.5t22.5 112.5q0 30 -6 57t-21 48t-39.5 33.5t-61.5 12.5q-48 0 -97 -26.5t-89 -69t-68.5 -95.5t-34.5 -107z" />
    <glyph glyph-name="afii10108" unicode="&#x45b;" horiz-adv-x="1083" 
d="M44 1170l15 116h156l28 222h181l-28 -222h254l-10 -65q-8 -50 -62 -51h-195l-47 -387q81 122 180 184.5t203 62.5q67 0 117 -26t81 -75.5t42 -123t-1 -166.5l-75 -639h-182l76 639q14 122 -15.5 181.5t-110.5 59.5q-47 0 -96 -25.5t-95 -72.5t-86.5 -113t-69.5 -147
l-62 -522h-183l143 1170h-158z" />
    <glyph glyph-name="afii10109" unicode="&#x45c;" horiz-adv-x="986" 
d="M59 0l126 1037h175l-56 -458l89 18q20 4 35.5 9t28.5 13t24.5 19t22.5 27l155 203q32 45 56.5 77.5t50.5 53t56.5 30t74.5 9.5h77l-19 -94q-4 -23 -16.5 -29.5t-30.5 -11.5t-39 -15t-43 -39l-152 -201q-15 -20 -29.5 -36.5t-30 -28.5t-33.5 -20.5t-40 -13.5
q58 -11 94.5 -43t60.5 -90l191 -416h-104q-47 0 -71 16t-38 45l-152 326q-17 40 -49 66t-75 26l-108 -20l-56 -459h-175zM59 0zM492 1191l166 248q15 24 32.5 34.5t47.5 10.5h164l-250 -264q-14 -15 -27.5 -22t-32.5 -7h-100z" />
    <glyph glyph-name="uni045D" unicode="&#x45d;" horiz-adv-x="1084" 
d="M85 0zM96.5 211q-11.5 73 0.5 167l78 659h181l-77 -659q-14 -122 15 -181.5t109 -59.5q47 0 97 25.5t96.5 73t86.5 114t70 148.5l64 539h181l-125 -1037h-90q-67 0 -66 66l15 188q-83 -132 -185.5 -200t-210.5 -68q-66 0 -116 26t-81 76t-42.5 123zM380 1484h159
q31 0 45 -11t24 -34l112 -248h-95q-19 0 -31 6.5t-24 22.5z" />
    <glyph glyph-name="afii10110" unicode="&#x45e;" horiz-adv-x="982" 
d="M74 0zM74 1037h150q23 0 33 -10.5t15 -27.5l167 -653q5 -22 8.5 -43t5.5 -43q8 22 17.5 44t19.5 43l328 654q8 16 23 26t30 10h145l-701 -1346q-11 -22 -26 -32t-37 -10h-134l225 412zM315 1412q2 20 13.5 37.5t28.5 17.5h99q-11 -97 15 -138t104 -41q38 0 65.5 10
t46.5 31.5t30.5 55t16.5 82.5h98q18 0 25.5 -17t5.5 -38q-6 -51 -29 -92t-62 -70t-92 -44.5t-117 -15.5q-129 0 -194 60t-54 162z" />
    <glyph glyph-name="afii10193" unicode="&#x45f;" horiz-adv-x="1084" 
d="M95.5 213.5q-10.5 72.5 1.5 164.5l78 659h181l-77 -659q-14 -122 15 -181.5t109 -59.5q47 0 97 25.5t96.5 73t86.5 114t70 148.5l64 539h181l-125 -1037h-90q-67 0 -66 66l15 188q-52 -84 -113 -142t-129 -89l-39 -326q-3 -26 -19 -40t-39 -14h-109l43 344
q-63 1 -111.5 28t-79 76.5t-41 122z" />
    <glyph glyph-name="uni0460" unicode="&#x460;" horiz-adv-x="2050" 
d="M110 586q0 117 14 228.5t45 211t78 183t111.5 144.5t148 95t186.5 34q51 0 92.5 -9.5t76 -25.5t62 -39.5t51.5 -49.5l-51 -94q-11 -16 -21 -21t-22 -5t-26 12.5t-34.5 26.5t-51.5 26.5t-77 12.5q-93 0 -166 -52t-123.5 -147t-77 -230.5t-26.5 -302.5q0 -210 75 -323
t214 -113q87 0 162 38t138 104l63 518h193l-64 -518q46 -66 111.5 -104t154.5 -38q91 0 170 44t137.5 135.5t92.5 232t34 334.5q0 98 -16.5 176.5t-48.5 132.5t-79 83.5t-108 29.5q-46 0 -80 -12.5t-58 -26.5t-41 -26.5t-29 -12.5t-20 4.5t-16 21.5l-30 94q31 27 64.5 50
t71.5 39t82.5 25.5t95.5 9.5q108 0 184.5 -45.5t124.5 -124t70.5 -183t22.5 -222.5q0 -214 -44 -385t-125.5 -290.5t-197.5 -183.5t-261 -64q-121 0 -213.5 47t-159.5 133q-89 -86 -193.5 -133t-225.5 -47q-106 0 -188 41.5t-138 119t-85 189t-29 252.5z" />
    <glyph glyph-name="uni0461" unicode="&#x461;" horiz-adv-x="1476" 
d="M112 453q-10 87 2 179l50 404h118q28 0 38 -17t8 -37l-41 -331q-18 -153 16 -272.5t110 -212.5q44 43 84.5 99t73 119t55 132t30.5 136l47 384h118q28 0 38 -17t8 -37l-40 -324q-8 -67 -4 -134.5t20.5 -131.5t43 -122t63.5 -104q54 52 103.5 115t86.5 141t59 172t22 209
q0 68 -7 114t-7 66q0 22 12.5 37.5t32.5 15.5h131q2 -19 4 -44.5t3.5 -52t2 -51.5t0.5 -43q0 -142 -26.5 -262t-75 -222.5t-118.5 -191t-158 -169.5h-105q-14 0 -22.5 6t-19.5 19q-52 66 -94.5 161.5t-64.5 204.5q-49 -109 -115 -204.5t-135 -162.5q-13 -12 -21 -18t-22 -6
h-108q-52 61 -93 133.5t-67 152.5t-36 167z" />
    <glyph glyph-name="afii10146" unicode="&#x462;" horiz-adv-x="1379" 
d="M111 1094l18 144h338l29 228h191l-29 -228h417l-17 -144h-418l-32 -261h259q113 0 194.5 -26t134 -71.5t77.5 -108t25 -137.5q0 -111 -36 -201t-105.5 -154.5t-168.5 -99.5t-224 -35h-449l135 1094h-339zM525 152h257q82 0 143 21.5t101.5 62t60.5 98.5t20 132
q0 102 -61.5 158.5t-197.5 56.5h-258z" />
    <glyph glyph-name="afii10194" unicode="&#x463;" horiz-adv-x="1082" 
d="M58 901l17 136h250l35 291h179l-36 -291h294l-18 -136h-294l-19 -163h-1l-26 -213q32 41 70.5 75.5t80 58t84.5 37t84 13.5q55 0 99 -18.5t75.5 -51.5t47.5 -80t16 -103q0 -94 -40.5 -179.5t-109.5 -150t-160 -102.5t-191 -38q-73 0 -126.5 18.5t-86.5 52.5t-46.5 82
t-6.5 108l60 491h-1l19 163h-249zM404 233q-6 -50 31.5 -84t113.5 -34q55 0 106 28t88.5 73t60 101.5t22.5 112.5q0 30 -6 57t-21 48t-39.5 33.5t-61.5 12.5q-48 0 -96.5 -26.5t-89 -69t-68.5 -95.5t-34 -107z" />
    <glyph glyph-name="uni0464" unicode="&#x464;" horiz-adv-x="1807" 
d="M99 0l181 1466h192l-80 -646h291q28 150 93 272t159 209t213.5 134.5t254.5 47.5q139 0 240 -50.5t169 -135.5l-72 -88q-8 -9 -18 -15.5t-26 -6.5q-11 0 -23.5 9.5t-29.5 24t-39.5 31.5t-53.5 31t-72.5 24t-96.5 10q-92 0 -174.5 -34t-148.5 -98t-112 -156t-67 -209h620
l-18 -145h-618q-1 -11 -1 -21v-21q0 -113 28 -202.5t77 -152.5t117 -96.5t150 -33.5q56 0 101.5 8.5t85.5 25t76.5 42t73.5 60.5q8 6 17.5 10.5t17.5 4.5q16 0 26 -13l66 -82q-92 -104 -213.5 -162t-282.5 -58q-126 0 -225.5 46.5t-169 130.5t-105.5 200.5t-36 255.5v28.5
t1 29.5h-292l-83 -675h-193z" />
    <glyph glyph-name="uni0465" unicode="&#x465;" horiz-adv-x="1300" 
d="M58 0l128 1036h170l-54 -445h180q20 100 64.5 184.5t107 146t141 96.5t170.5 35q97 0 173 -35t131 -98l-51 -59q-9 -11 -17.5 -16.5t-22.5 -5.5q-15 0 -32 11.5t-40.5 26.5t-57.5 26.5t-85 11.5q-56 0 -105.5 -23t-89 -65.5t-68 -102t-43.5 -133.5h426l-16 -129h-424v-24
q0 -74 15.5 -132.5t44.5 -99.5t71.5 -62.5t95.5 -21.5t91.5 15t66.5 33t48 33t37 15q13 0 20 -5t15 -16l38 -58q-31 -33 -71 -60.5t-86 -48.5t-96.5 -32.5t-102.5 -11.5q-80 0 -146.5 30.5t-115 87.5t-75 139t-26.5 185v17t1 17h-182l-57 -462h-171z" />
    <glyph glyph-name="uni0466" unicode="&#x466;" horiz-adv-x="1337" 
d="M-72 0l752 1466h183l391 -1466h-153q-25 0 -39 13t-20 32l-141 589h-143l-77 -634h-182l78 634h-139l-285 -589q-9 -17 -28 -31t-43 -14h-154zM505 771h363l-91 381q-8 27 -15 63t-12 79q-15 -43 -31 -79.5t-30 -64.5z" />
    <glyph glyph-name="uni0467" unicode="&#x467;" horiz-adv-x="1060" 
d="M-63 0l564 1036h163l309 -1036h-136q-23 0 -35 11t-18 28l-101 372h-99l-50 -411h-161l50 411h-96l-193 -372q-7 -14 -23 -26.5t-38 -12.5h-136zM391 534h258l-63 231q-6 24 -12 55t-11 67q-14 -37 -27.5 -68.5t-24.5 -54.5z" />
    <glyph glyph-name="uni0468" unicode="&#x468;" horiz-adv-x="1898" 
d="M99 0l181 1466h192l-86 -695h498l356 695h184l393 -1466h-155q-25 0 -39 13t-19 32l-142 589h-142l-78 -634h-182l78 634h-140l-284 -589q-9 -17 -28 -31t-43 -14h-154l325 634h-444l-78 -634h-193zM1065 771h365l-92 381q-8 28 -15 63.5t-12 78.5q-15 -43 -31 -79.5
t-31 -64.5z" />
    <glyph glyph-name="uni0469" unicode="&#x469;" horiz-adv-x="1492" 
d="M58 0l128 1036h170l-62 -502h366l274 502h163l308 -1036h-136q-23 0 -34.5 11t-16.5 28l-102 372h-98l-51 -411h-160l50 411h-97l-192 -372q-7 -14 -24 -26.5t-38 -12.5h-136l223 411h-313l-51 -411h-171zM823 534h259l-62 231q-14 47 -24 121q-14 -36 -28 -67.5
t-25 -54.5z" />
    <glyph glyph-name="uni046A" unicode="&#x46a;" horiz-adv-x="1559" 
d="M-51 0l239 503q35 74 75 130t89 95.5t111 60.5t143 24l-411 652h150h5h1068h5h151l-573 -652q80 -3 137.5 -24t98 -60t66 -95.5t43.5 -130.5l115 -503h-153q-24 0 -39.5 14t-20.5 31l-86 440q-11 56 -25.5 93t-38.5 59t-60.5 31t-91.5 9h-64l-2 -3h-4l-82 -674h-183
l83 674l-2 3h-61q-55 0 -93.5 -9t-68.5 -31t-53.5 -58.5t-47.5 -93.5l-195 -440q-8 -17 -27 -31t-44 -14h-153zM481 1327l227 -377q18 -28 33 -50.5t26 -43.5t19.5 -42t11.5 -45q9 24 22.5 45t29.5 42t37 44t46 50l320 377h-772z" />
    <glyph glyph-name="uni046B" unicode="&#x46b;" horiz-adv-x="1223" 
d="M-52 0l175 342q28 54 58 96.5t66.5 73t80 48.5t98.5 24l-306 452h134h4h809h5h134l-418 -452q53 -5 93.5 -23t69.5 -49t49 -73.5t35 -96.5l91 -342h-137q-22 0 -35 12.5t-18 26.5l-63 288q-9 42 -21 68.5t-31 42t-45 21t-63 5.5h-35l-2 -2h-5l-57 -462h-159l56 462h-2
l-2 2h-31q-37 0 -65 -5.5t-50.5 -21t-41.5 -42t-38 -68.5l-134 -288q-8 -14 -24.5 -26.5t-37.5 -12.5h-137zM380 913l144 -212q15 -24 28 -43t23.5 -37t17.5 -36t10 -38q8 20 19.5 38t26 36t32 37.5t39.5 42.5l196 212h-536z" />
    <glyph glyph-name="uni046C" unicode="&#x46c;" horiz-adv-x="2128" 
d="M99 0l181 1466h192l-81 -652h784l-411 651h150h6h1223l-572 -652q81 -3 138 -24t97 -60t65.5 -95.5t43.5 -130.5l116 -503h-154q-25 0 -39.5 14t-19.5 31l-87 440q-11 56 -25.5 93t-39 59t-60.5 31t-92 9h-63l-2 -3h-4l-82 -674h-182l82 674l-1 3h-81q-42 -1 -76 -10.5
t-63 -32t-54.5 -58.5t-50.5 -91l-197 -440q-8 -17 -27 -31t-43 -14h-154l239 499q29 61 76.5 105.5t106.5 72.5h-563l-83 -677h-193zM1050 1327l228 -377q18 -28 33 -50.5t26.5 -43.5t19 -42t11.5 -45q9 24 22 45t30 42t37.5 44t44.5 50l321 377h-773z" />
    <glyph glyph-name="uni046D" unicode="&#x46d;" horiz-adv-x="1659" 
d="M58 0l128 1036h170l-55 -449h559l-303 449h947h5h135l-418 -452q53 -5 93 -23t68.5 -49t48.5 -73.5t35 -96.5l92 -342h-138q-20 0 -33.5 12.5t-18.5 26.5l-62 288q-9 42 -21.5 68.5t-31.5 42t-45.5 21t-63.5 5.5h-34l-2 -2h-5l-56 -462h-160l56 462h-3l-2 2h-38
q-31 0 -57 -5.5t-48.5 -21t-43 -42t-39.5 -68.5l-136 -288q-7 -14 -23 -26.5t-38 -12.5h-136l174 342q20 42 53 71.5t75 50.5h-400l-57 -464h-171zM817 913l145 -212q32 -48 51.5 -81.5t25.5 -74.5q16 41 45 74.5t72 81.5l197 212h-536z" />
    <glyph glyph-name="uni046E" unicode="&#x46e;" horiz-adv-x="1069" 
d="M-51 -96q0 135 81 206.5t226 71.5q30 0 56.5 -3t51.5 -6l50 -6t52 -3q71 0 126.5 23.5t95 65t60.5 96.5t21 120q0 53 -18 96t-52 73t-83.5 45.5t-111.5 15.5h-186l19 158h177q63 0 117.5 17.5t94.5 51t62.5 82.5t22.5 111q0 45 -16.5 82.5t-48 64.5t-78 42t-106.5 15
q-76 0 -130.5 -17.5t-94 -39t-65 -39t-43.5 -17.5q-15 0 -24 7.5t-17 22.5l-34 90q86 74 192.5 112.5t234.5 38.5q97 0 173.5 -25t129.5 -70t81 -105.5t28 -133.5q0 -125 -62.5 -220.5t-172.5 -145.5q88 -42 139.5 -117.5t51.5 -184.5q0 -92 -33.5 -177.5t-99.5 -151.5
t-164 -106t-226 -40q-33 0 -58 2.5t-46.5 6t-40 6.5t-37.5 3q-58 0 -86.5 -27.5t-28.5 -77.5q0 -24 9.5 -41.5t32.5 -30t59.5 -18.5t91.5 -6q65 0 122 5t105 5q56 0 94.5 -11t61.5 -31.5t33 -49.5t10 -63q0 -46 -11 -69t-41 -23h-49q2 29 -2.5 48.5t-19 31t-38.5 17t-61 5.5
q-24 0 -43.5 -1.5t-41 -4t-48 -4t-63.5 -1.5q-199 0 -290 58t-91 171z" />
    <glyph glyph-name="uni046F" unicode="&#x46f;" horiz-adv-x="838" 
d="M-62 -112q0 52 16 96.5t47.5 77t77.5 51t106 18.5q32 0 65.5 -4.5t66.5 -4.5q53 0 96.5 16t73 43.5t45.5 65.5t16 81q0 71 -52 113t-160 42h-109l16 119h107q55 0 100 13.5t76 36.5t48 55t17 70q0 28 -11.5 53t-34.5 44t-57.5 30t-81.5 11q-55 0 -95.5 -12t-68.5 -26.5
t-47 -26.5t-31 -12t-20.5 4.5t-16.5 20.5l-32 68q53 48 123.5 79.5t161.5 40.5l-165 246h102q19 0 32 -5.5t22 -19.5l83 -131q5 -8 9 -16.5t8 -17.5q11 16 27 34l91 112q24 30 53.5 42.5t62.5 12.5q19 0 34.5 -4t29.5 -9l-10 -83h-19q-26 0 -44 -13t-33 -31l-118 -130
q52 -13 91 -36.5t65 -55t39.5 -67t13.5 -73.5q0 -34 -11.5 -71t-36 -71.5t-64 -64.5t-96.5 -47q43 -15 75 -39t53 -53t31.5 -62.5t10.5 -68.5q0 -71 -28.5 -133t-80 -107.5t-125 -72t-164.5 -26.5q-43 0 -79.5 5t-63.5 5q-45 0 -70 -23t-25 -71q0 -47 35.5 -70.5t97.5 -23.5
q20 0 46.5 1.5t54.5 3.5t55.5 3.5t51.5 1.5q56 0 94.5 -11.5t61.5 -32.5t33.5 -49t10.5 -62q0 -46 -11 -69t-42 -23h-49q5 57 -21 79t-100 22q-48 0 -96.5 -5t-92.5 -5q-59 0 -109 14.5t-86.5 43t-56 69.5t-19.5 95z" />
    <glyph glyph-name="uni0470" unicode="&#x470;" horiz-adv-x="1548" 
d="M134 943l65 523h127q32 0 46 -19.5t11 -46.5l-56 -457q-12 -99 0 -176.5t52.5 -131.5t110 -85t172.5 -36l117 952h193l-118 -952q104 5 182 35.5t132 84.5t86 132t44 177l57 457q3 28 22 47t50 19h128l-64 -523q-16 -130 -66.5 -235.5t-133.5 -181t-197 -118.5t-258 -50
l-44 -358h-193l44 358q-142 6 -245.5 50t-167 119.5t-88 180.5t-8.5 235z" />
    <glyph glyph-name="uni0471" unicode="&#x471;" horiz-adv-x="1452" 
d="M104 486l68 551h122q23 0 36 -22t10 -47l-59 -482q-9 -78 6.5 -139.5t54.5 -106t99 -72.5t139 -37l164 1335h177l-164 -1336q89 8 165 39.5t132 97t88.5 171t32.5 263.5q0 76 -6.5 144.5t-4.5 130.5q3 33 20.5 47t36.5 14h127q1 -30 2.5 -65l3 -70t2 -67t0.5 -55
q0 -148 -23.5 -263.5t-65 -201t-99.5 -144.5t-126.5 -97t-145.5 -58t-157 -26l-42 -341h-176l41 340q-257 17 -371 144.5t-87 352.5z" />
    <glyph glyph-name="afii10147" unicode="&#x472;" horiz-adv-x="1526" 
d="M100 628q0 187 58.5 344t162 271t244.5 177.5t305 63.5q135 0 243.5 -49t184 -135t116 -204t40.5 -258q0 -187 -58 -344t-160.5 -270t-243.5 -176t-307 -63q-135 0 -243 48t-184.5 133.5t-117 203t-40.5 258.5zM297 633q0 -112 28 -202t81.5 -153.5t129.5 -98t171 -34.5
q105 0 195.5 36.5t161 105t117 167t64.5 221.5h-947q-1 -11 -1 -21v-21zM313 820h944v14q0 112 -28.5 202t-81 153.5t-129 98.5t-171.5 35q-101 0 -189.5 -35t-157.5 -100.5t-117 -158t-70 -209.5z" />
    <glyph glyph-name="afii10195" unicode="&#x473;" horiz-adv-x="1062" 
d="M60 417q0 87 18.5 168t53 151.5t82.5 129t107 100t127 64.5t143 23q85 0 155.5 -29.5t122 -84.5t80 -135t28.5 -181q0 -130 -41 -246t-112 -203t-168.5 -137.5t-209.5 -50.5q-85 0 -155.5 29t-121.5 84.5t-80 135t-29 182.5zM237 414q0 -146 57.5 -221.5t167.5 -75.5
q61 0 113 26.5t93 73.5t70.5 110t44.5 137h-545q-1 -12 -1 -25v-25zM255 583h545q0 10 0.5 20t0.5 22q0 147 -57.5 221.5t-166.5 74.5q-60 0 -112 -26.5t-93 -71.5t-71 -107t-46 -133z" />
    <glyph glyph-name="afii10148" unicode="&#x474;" horiz-adv-x="1331" 
d="M111 1466h148q26 0 40.5 -12.5t19.5 -33.5l245 -1046q8 -34 15.5 -73.5t12.5 -82.5q14 43 29.5 82.5t32.5 73.5l384 904q43 99 111 147t167 48q30 0 48 -2.5t27.5 -8t11.5 -15t0 -25.5l-12 -107h-53q-41 0 -75.5 -27t-59.5 -82l-550 -1206h-173z" />
    <glyph glyph-name="afii10196" unicode="&#x475;" horiz-adv-x="1021" 
d="M71 1036h144q20 0 33.5 -11t15.5 -26l154 -676q12 -62 18 -121l43 121l241 546q23 56 49.5 91t56.5 54.5t63 26.5t67 7q25 0 41 -3.5t25 -7.5t12 -8.5t2 -8.5l-12 -98h-28q-41 0 -70.5 -19t-49.5 -64l-388 -839h-159z" />
    <glyph glyph-name="uni0476" unicode="&#x476;" horiz-adv-x="1331" 
d="M111 0zM111 1466h148q26 0 40.5 -12.5t19.5 -33.5l245 -1046q8 -34 15.5 -73.5t12.5 -82.5q14 43 29.5 82.5t32.5 73.5l384 904q43 99 111 147t167 48q30 0 48 -2.5t27.5 -8t11.5 -15t0 -25.5l-12 -107h-53q-41 0 -75.5 -27t-59.5 -82l-550 -1206h-173zM299 1862h127
q31 0 49.5 -12t32.5 -33l148 -234h-92q-19 0 -32 6.5t-27 21.5zM649 1862h111q31 0 49 -12t28 -33l112 -234h-79q-20 0 -31 6.5t-25 21.5z" />
    <glyph glyph-name="uni0477" unicode="&#x477;" horiz-adv-x="1021" 
d="M72 0zM72 1036h144q20 0 33.5 -11t15.5 -26l154 -676q12 -62 18 -121l43 121l241 546q23 56 49.5 91t56.5 54.5t63 26.5t67 7q25 0 41 -3.5t25 -7.5t12 -8.5t2 -8.5l-12 -98h-28q-41 0 -70.5 -19t-49.5 -64l-388 -839h-159zM151 1484h123q32 0 45.5 -11.5t24.5 -33.5
l141 -248h-80q-20 0 -32 6.5t-23 22.5zM447 1484h111q31 0 45.5 -11t23.5 -34l103 -248h-71q-19 0 -32 6t-22 23z" />
    <glyph glyph-name="uni0478" unicode="&#x478;" horiz-adv-x="2493" 
d="M100 0zM100 628q0 187 58.5 344t162 271t244.5 177.5t305 63.5q135 0 243.5 -49t184 -135t116 -204t40.5 -258q0 -187 -58 -344t-160.5 -270t-243.5 -176t-307 -63q-135 0 -243 48t-184.5 133.5t-117 203t-40.5 258.5zM297 633q0 -112 28 -202t81.5 -153.5t129 -98
t171.5 -34.5q122 0 223 48.5t174 138t113 217t40 285.5q0 112 -28.5 202t-81 153.5t-129 98.5t-171.5 35q-121 0 -222 -48.5t-174 -138.5t-113.5 -217.5t-40.5 -285.5zM1585 1037h150q23 0 33 -10.5t15 -27.5l167 -653q5 -22 8.5 -43t5.5 -43q8 22 17.5 44t19.5 43l328 654
q8 16 23 26t30 10h145l-701 -1346q-11 -22 -26 -32t-37 -10h-134l225 412z" />
    <glyph glyph-name="uni0479" unicode="&#x479;" horiz-adv-x="2053" 
d="M60 0zM60 417q0 131 41 246.5t113 202t168.5 137t208.5 50.5q85 0 155.5 -29.5t122 -84.5t80 -135t28.5 -181q0 -130 -41 -246t-112 -203t-168.5 -137.5t-209.5 -50.5q-85 0 -155.5 29t-121.5 84.5t-80 135t-29 182.5zM244 418q0 -143 56 -216.5t164 -73.5q75 0 135.5 41
t104.5 109t67.5 157t23.5 187q0 143 -57 215t-164 72q-76 0 -136.5 -40.5t-103.5 -108t-66.5 -156.5t-23.5 -186zM1145 1037h150q23 0 33 -10.5t15 -27.5l167 -653q5 -22 8.5 -43t5.5 -43q8 22 17.5 44t19.5 43l328 654q8 16 23 26t30 10h145l-701 -1346q-11 -22 -26 -32
t-37 -10h-134l225 412z" />
    <glyph glyph-name="uni047A" unicode="&#x47a;" horiz-adv-x="1611" 
d="M100 628q0 172 50 319.5t139 258.5t212 181.5t268 89.5q20 37 56.5 60t79.5 23q45 0 82.5 -23.5t58.5 -58.5q115 -15 206 -69.5t154.5 -138.5t98 -194t34.5 -238q0 -171 -49 -317.5t-137 -257t-209 -181t-265 -89.5q-20 -38 -58.5 -62t-84.5 -24q-44 0 -80 23.5t-57 60.5
q-117 14 -209 67.5t-156.5 137t-99 193.5t-34.5 239zM297 633q0 -96 21.5 -176.5t61.5 -142t98 -102t131 -56.5q22 31 55 49t72 18q42 0 77 -20t56 -52q105 15 193 69t150 142.5t96 207.5t34 264q0 95 -21 175t-60 141t-96 102t-129 59q-23 -31 -57 -49.5t-74 -18.5
q-41 0 -75.5 20.5t-56.5 54.5q-106 -14 -193.5 -68.5t-150 -143t-97.5 -208.5t-35 -265z" />
    <glyph glyph-name="uni047B" unicode="&#x47b;" horiz-adv-x="1196" 
d="M60 417q0 119 35 226.5t96.5 192t145.5 140.5t182 72q19 39 56.5 64t83.5 25t84 -25.5t59 -64.5q69 -12 125.5 -46.5t97.5 -88.5t63 -127t22 -162q0 -120 -35 -227.5t-96 -192t-145 -140.5t-183 -71q-20 -38 -57.5 -61.5t-83.5 -23.5q-45 0 -81.5 23.5t-56.5 61.5
q-70 12 -127.5 46t-98.5 88t-63.5 127.5t-22.5 163.5zM244 418q0 -111 33.5 -179.5t98.5 -95.5q20 36 55.5 58t78.5 22q46 0 84.5 -25t58.5 -64q62 15 113.5 60.5t87 111.5t55 147.5t19.5 168.5q0 111 -34.5 178.5t-98.5 94.5q-22 -34 -57.5 -55t-78.5 -21q-45 0 -81 23.5
t-57 61.5q-63 -14 -115 -58.5t-87.5 -110.5t-55 -148t-19.5 -169z" />
    <glyph glyph-name="uni047C" unicode="&#x47c;" horiz-adv-x="2051" 
d="M110 586q0 117 14.5 228.5t45 211t77.5 183t112 144.5t148 95t186 34q51 0 93 -9.5t76.5 -25.5t62 -39.5t51.5 -49.5l-52 -94q-11 -16 -20.5 -21t-21.5 -5t-26 12.5t-34.5 26.5t-51.5 26.5t-77 12.5q-93 0 -166 -52t-123.5 -147t-77 -230.5t-26.5 -302.5
q0 -210 74.5 -323t213.5 -113q110 0 192.5 58.5t140.5 155.5h146q16 -48 41.5 -87t60 -67.5t78.5 -44t99 -15.5q91 0 170 44t137.5 135.5t92.5 232t34 334.5q0 98 -16 176.5t-48 132.5t-79 83.5t-109 29.5q-46 0 -80 -12.5t-57.5 -26.5t-40.5 -26.5t-29 -12.5q-13 0 -21 4.5
t-16 21.5l-29 94q30 27 63.5 50t71.5 39t83 25.5t96 9.5q108 0 184 -45.5t124.5 -124t71 -183t22.5 -222.5q0 -214 -44 -385t-125.5 -290.5t-197.5 -183.5t-261 -64q-122 0 -214.5 47t-159.5 132q-88 -85 -193 -132t-226 -47q-105 0 -187 41.5t-138.5 119t-85.5 189
t-29 252.5zM846 1694q7 56 28.5 101t55.5 76.5t79 47.5t99 16q45 0 83.5 -10.5t74.5 -27.5t70.5 -36t73 -36t82 -27.5t96.5 -10.5l-11 -94q-89 0 -155.5 22.5t-121 50t-101 50t-96.5 22.5q-60 0 -99.5 -38t-48.5 -106h-109zM1072 1411l4 32q3 16 35 23t50 26t24 59
q-9 -4 -24 -4q-43 0 -60.5 20t-17.5 47q0 40 26.5 67t70.5 27q41 0 62.5 -27t21.5 -73q0 -39 -12 -74.5t-35.5 -63t-59.5 -43.5t-85 -16z" />
    <glyph glyph-name="uni047D" unicode="&#x47d;" horiz-adv-x="1486" 
d="M70 413q0 123 23 237.5t73.5 202.5t129.5 141t191 53q77 0 127 -26t83 -65l-46 -85q-10 -14 -17.5 -18t-19.5 -4q-10 0 -20 8t-24 17.5t-33.5 17.5t-49.5 8q-58 0 -104.5 -33t-79.5 -96.5t-50 -155.5t-17 -208q0 -130 47 -201.5t137 -71.5q73 0 125.5 40t92.5 111h128
q23 -71 65.5 -111t116.5 -40q61 0 112 29.5t87.5 90t57 154t20.5 221.5q0 130 -39.5 200.5t-116.5 70.5q-30 0 -52 -8t-38 -17.5t-28.5 -17.5t-22.5 -8t-17.5 4t-14.5 18l-25 85q44 39 100 65t133 26q78 0 133 -32.5t90 -88t51 -129t16 -156.5q0 -148 -30 -268.5t-87 -206
t-140.5 -131.5t-190.5 -46q-86 0 -151.5 31t-114.5 90q-63 -58 -136 -89.5t-158 -31.5q-78 0 -137.5 29.5t-99 85t-59.5 133.5t-20 176zM515 1309q14 115 84.5 178.5t178.5 63.5q45 0 83.5 -10.5t74.5 -27.5t70.5 -36t73 -36t82 -27.5t96.5 -10.5l-11 -94q-89 0 -155.5 22.5
t-121 50t-101 50t-96.5 22.5q-61 0 -100 -38t-47 -107h-111zM742 1027l4 32q1 16 34 23t51 26.5t24 59.5q-5 -2 -11 -3t-14 -1q-42 0 -59 19t-17 46q0 41 25.5 67.5t70.5 26.5q40 0 62 -26.5t22 -72.5q0 -38 -12 -74t-35.5 -63t-59 -43.5t-85.5 -16.5z" />
    <glyph glyph-name="uni047E" unicode="&#x47e;" horiz-adv-x="2050" 
d="M110 0zM110 586q0 117 14 228.5t45 211t78 183t111.5 144.5t148 95t186.5 34q51 0 92.5 -9.5t76 -25.5t62 -39.5t51.5 -49.5l-51 -94q-11 -16 -21 -21t-22 -5t-26 12.5t-34.5 26.5t-51.5 26.5t-77 12.5q-93 0 -166 -52t-123.5 -147t-77 -230.5t-26.5 -302.5
q0 -210 75 -323t214 -113q87 0 162 38t138 104l63 518h193l-64 -518q46 -66 111.5 -104t154.5 -38q91 0 170 44t137.5 135.5t92.5 232t34 334.5q0 98 -16.5 176.5t-48.5 132.5t-79 83.5t-108 29.5q-46 0 -80 -12.5t-58 -26.5t-41 -26.5t-29 -12.5t-20 4.5t-16 21.5l-30 94
q31 27 64.5 50t71.5 39t82.5 25.5t95.5 9.5q108 0 184.5 -45.5t124.5 -124t70.5 -183t22.5 -222.5q0 -214 -44 -385t-125.5 -290.5t-197.5 -183.5t-261 -64q-121 0 -213.5 47t-159.5 133q-89 -86 -193.5 -133t-225.5 -47q-106 0 -188 41.5t-138 119t-85 189t-29 252.5z
M777.5 1790q-0.5 9 1.5 20h806q-2 -11 -4 -18.5t-4 -19.5l-63 -173q-4 -11 -11.5 -16.5t-16 -5.5t-15 5.5t-7.5 16.5l-14 117h-227l-40 -117q-5 -11 -13 -16.5t-15.5 -5.5t-14.5 5.5t-8 16.5l-14 117h-227l-42 -117q-4 -11 -12 -16.5t-16 -5.5t-14 5.5t-7 16.5l-22 173
q0 9 -0.5 18z" />
    <glyph glyph-name="uni047F" unicode="&#x47f;" horiz-adv-x="1476" 
d="M102 0zM112 453q-10 87 2 179l50 404h118q28 0 38 -17t8 -37l-41 -331q-18 -153 16 -272.5t110 -212.5q44 43 84.5 99t73 119t55 132t30.5 136l47 384h118q28 0 38 -17t8 -37l-40 -324q-8 -67 -4 -134.5t20.5 -131.5t43 -122t63.5 -104q54 52 103.5 115t86.5 141t59 172
t22 209q0 68 -7 114t-7 66q0 22 12.5 37.5t32.5 15.5h131q2 -19 4 -44.5t3.5 -52t2 -51.5t0.5 -43q0 -142 -26.5 -262t-75 -222.5t-118.5 -191t-158 -169.5h-105q-14 0 -22.5 6t-19.5 19q-52 66 -94.5 161.5t-64.5 204.5q-49 -109 -115 -204.5t-135 -162.5q-13 -12 -21 -18
t-22 -6h-108q-52 61 -93 133.5t-67 152.5t-36 167zM439.5 1360q-0.5 9 1.5 20h806q-2 -11 -4 -18.5t-4 -19.5l-63 -173q-4 -11 -11.5 -16.5t-16 -5.5t-15 5.5t-7.5 16.5l-14 117h-227l-40 -117q-5 -11 -13 -16.5t-15.5 -5.5t-14.5 5.5t-8 16.5l-14 117h-227l-42 -117
q-4 -11 -12 -16.5t-16 -5.5t-14 5.5t-7 16.5l-22 173q0 9 -0.5 18z" />
    <glyph glyph-name="uni0480" unicode="&#x480;" horiz-adv-x="1226" 
d="M100 621q0 128 27.5 241t77 209t119 172.5t155 129.5t185 82t206.5 29q78 0 141.5 -13.5t115.5 -39t94.5 -61.5t78.5 -80l-64 -80q-8 -10 -18.5 -16.5t-26.5 -6.5q-11 0 -24 9.5t-30 24t-40 31.5t-55.5 31t-77 24t-104.5 10q-119 0 -221.5 -47.5t-178.5 -136.5
t-119.5 -214.5t-43.5 -282.5q0 -114 29 -204t82 -153.5t125.5 -97.5t159.5 -34q47 0 77 4.5t50 9.5t34 9t31 4h54l-58 -477q-3 -26 -19.5 -40t-39.5 -14h-108l43 350q-25 -2 -51 -3t-43 -1q-131 0 -235.5 46t-177.5 130t-111.5 199.5t-38.5 256.5z" />
    <glyph glyph-name="uni0481" unicode="&#x481;" horiz-adv-x="889" 
d="M59 410q0 126 39.5 241.5t110.5 204.5t168.5 142.5t213.5 53.5q103 0 173 -36.5t122 -106.5l-58 -68q-7 -8 -15.5 -13.5t-19.5 -5.5q-14 0 -28 13t-36.5 29t-56 28.5t-85.5 12.5q-71 0 -133.5 -38.5t-109.5 -105t-74 -157.5t-27 -195q0 -66 14.5 -118.5t43 -90t70.5 -58
t97 -20.5q31 0 56 4t44.5 9t31.5 9t18 4h68l-55 -451q-4 -26 -20 -40.5t-39 -14.5h-108l42 350q-20 -3 -40 -4.5t-36 -1.5h-1q-90 0 -159 30.5t-115.5 86.5t-71 134t-24.5 173z" />
    <glyph glyph-name="uni0482" unicode="&#x482;" horiz-adv-x="1378" 
d="M61 715l103 131l323 -265l310 408l-328 268l102 132l325 -267l271 359l136 -99l-277 -366l319 -260l-103 -130l-316 258l-310 -409l321 -262l-102 -131l-319 260l-270 -358l-134 98l275 365z" />
    <glyph glyph-name="uni0483" unicode="&#x483;" horiz-adv-x="753" 
d="M127 1231q7 60 41.5 85.5t80.5 25.5h508l11 93h50q22 0 40.5 -7t32 -20.5t20.5 -34t3 -48.5q-7 -60 -41.5 -86t-79.5 -26h-508l-11 -92h-50q-22 0 -40.5 7t-32.5 20.5t-20.5 34t-3.5 48.5z" />
    <glyph glyph-name="uni0484" unicode="&#x484;" horiz-adv-x="753" 
d="M140 1181l13 111q56 0 103.5 12t91 29.5t84 38t82 37.5t86 29t94.5 12q121 0 169.5 -70t34.5 -199h-120q4 42 -2.5 71.5t-22 48t-37 26.5t-47.5 8q-41 0 -78 -11t-74.5 -28.5t-77 -37.5t-84.5 -37.5t-97.5 -28.5t-117.5 -11z" />
    <glyph glyph-name="uni0485" unicode="&#x485;" horiz-adv-x="753" 
d="M439 1370q8 67 40.5 100t86.5 33q46 0 68.5 -28t17.5 -72q-4 -36 -29 -62.5t-78 -26.5h-15t-12 2q-2 -39 13.5 -60t48.5 -29q36 -8 32 -30l-4 -39q-49 0 -83.5 17.5t-54.5 46.5t-28 67.5t-3 80.5z" />
    <glyph glyph-name="uni0486" unicode="&#x486;" horiz-adv-x="753" 
d="M431 1153l4 39q1 12 11 19t29 12q36 8 56 27.5t26 62.5q-6 -2 -12.5 -3t-14.5 -1q-27 0 -44.5 7t-28 19.5t-14 28.5t-1.5 34q5 44 34 72t75 28q53 0 78.5 -38.5t17.5 -105.5q-5 -42 -20.5 -78.5t-42.5 -64t-65.5 -43t-87.5 -15.5z" />
    <glyph glyph-name="uni0488" unicode="&#x488;" horiz-adv-x="2277" 
d="M99 582q0 54 15.5 98.5t45.5 75.5t76 48.5t106 17.5t106 -17.5t76.5 -48.5t46 -75.5t15.5 -98.5h-129q0 61 -25 93t-90 32t-90 -32t-25 -93h-128zM295 119q0 54 15.5 98.5t46 76t76.5 48.5t106 17t105.5 -17t76.5 -48.5t46 -76t15 -98.5h-129q0 61 -25 93t-89 32
q-65 0 -90 -32t-25 -93h-129zM295 1044q0 54 15.5 99t46 76t76.5 48.5t106 17.5t105.5 -17.5t76.5 -48.5t46 -75.5t15 -99.5h-129q0 61 -25 93t-89 32q-65 0 -90 -31.5t-25 -93.5h-129zM898 -213q0 54 15.5 98.5t46 76t76.5 49t106 17.5t105.5 -17.5t76.5 -49t46 -76
t15 -98.5h-129q0 61 -25.5 93t-88.5 32q-65 0 -90 -32t-25 -93h-129zM898 1376q0 54 15.5 99t46 76t76.5 48.5t106 17.5t105.5 -17.5t76.5 -48.5t46 -75.5t15 -99.5h-129q0 61 -25.5 93t-88.5 32q-65 0 -90 -31.5t-25 -93.5h-129zM1501 119q0 54 15.5 98.5t46 76t76.5 48.5
t106 17t105.5 -17t76.5 -48.5t46.5 -76t15.5 -98.5h-129q0 61 -26 93t-89 32q-65 0 -90 -32t-25 -93h-129zM1501 1044q0 54 15.5 99t46 76t76.5 48.5t106 17.5t105.5 -17.5t76.5 -48.5t46.5 -75.5t15.5 -99.5h-129q0 61 -26 93t-89 32q-65 0 -90 -31.5t-25 -93.5h-129z
M1698 582q0 54 15.5 98.5t45.5 75.5t75.5 48.5t105.5 17.5t106 -17.5t76.5 -48.5t46 -75.5t15.5 -98.5h-128q0 61 -25.5 93t-90.5 32q-63 0 -88 -32t-25 -93h-129z" />
    <glyph glyph-name="uni0489" unicode="&#x489;" horiz-adv-x="2224" 
d="M88 755l26 27q6 8 12 11t14 3q12 0 25 -15q10 -9 27.5 -24t41 -30t51.5 -28.5t61 -18.5v13q0 49 33 79.5t83 31.5q22 0 41 -9t34 -23t23 -34.5t8 -45.5q-1 -58 -39.5 -88t-94.5 -30q-43 0 -89 12.5t-91 35.5t-87.5 57t-78.5 76zM321 31q-1 16 10 26q4 5 11 7t15 2
q14 1 37.5 2.5t50.5 7.5t56.5 16.5t56.5 30.5q-7 4 -10 9q-34 34 -32.5 78.5t36.5 80.5q32 32 75.5 32.5t78.5 -35.5q41 -42 34.5 -89.5t-46.5 -87.5q-31 -31 -71.5 -55t-89.5 -40t-102.5 -22.5t-108.5 -1.5zM460 1460l39 1q17 1 26 -9q8 -8 9 -28q1 -14 2.5 -37t7 -50
t16 -57t30.5 -55l9 9q35 35 79.5 33.5t80.5 -37.5q31 -32 31.5 -75.5t-34.5 -79.5q-20 -20 -43.5 -28t-46.5 -6t-45.5 14t-41.5 32q-31 31 -55 72t-40 89.5t-22.5 102.5t-1.5 109zM979 -6q0 45 30.5 76t81.5 31q29 0 50.5 -10t36 -28.5t22 -43t7.5 -52.5q0 -43 -12 -89
t-35 -91.5t-56.5 -88t-76.5 -78.5l-28 27q-7 6 -10 11.5t-2 13.5q0 6 4 13t9 12q9 10 24.5 28t31 41.5t28.5 51.5t18 61q-3 0 -6.5 -0.5t-6.5 -0.5q-48 1 -79 34t-31 82zM1042 1348q0 43 12.5 89t35.5 91.5t56.5 88t76.5 78.5l27 -27q7 -6 10.5 -11.5t2.5 -14.5
q0 -6 -4.5 -12.5t-9.5 -11.5q-9 -11 -24.5 -28.5t-30.5 -41t-28.5 -52.5t-18.5 -60q4 0 7 0.5t7 0.5q48 -1 79 -34t31 -82q0 -45 -31 -76.5t-81 -31.5q-29 0 -51 10.5t-36 29t-22 43t-8 52.5zM1459.5 160.5q-0.5 43.5 34.5 79.5q20 19 43.5 27t46.5 6t45.5 -14t41.5 -32
q31 -31 55 -71.5t40 -89.5t22 -102.5t2 -108.5l-39 -1q-17 -1 -27 9q-5 4 -6.5 11.5t-1.5 15.5q-1 14 -3 37.5t-7.5 50.5t-16.5 56t-30 56l-9 -9q-17 -17 -37.5 -25.5t-41.5 -7.5t-42 10.5t-38 26.5q-31 32 -31.5 75.5zM1509 1116.5q7 47.5 46 87.5q31 31 72 55t89.5 40
t102 22t108.5 2l1 -39q3 -16 -9 -27q-4 -5 -11 -6.5t-16 -1.5q-14 -1 -37 -3t-50.5 -7.5t-57 -16.5t-55.5 -30l10 -9q34 -34 32.5 -78.5t-36.5 -80.5q-32 -32 -75.5 -32.5t-79.5 35.5q-41 42 -34 89.5zM1681 623q1 58 39.5 87.5t94.5 29.5q43 0 89 -12t91.5 -35t88 -57
t78.5 -76l-26 -28q-10 -13 -27 -13q-12 0 -24 15q-11 9 -28.5 23.5t-41 30t-52.5 29t-60 18.5q1 -3 1 -6.5v-6.5q0 -49 -33 -79.5t-83 -31.5q-22 0 -41.5 8.5t-34 23t-23 35t-8.5 45.5z" />
    <glyph glyph-name="uni048A" unicode="&#x48a;" horiz-adv-x="1510" 
d="M99 0l181 1467h192l-127 -1034q-6 -43 -13.5 -89.5t-21.5 -98.5q23 45 46 83.5t45 68.5l744 1010q17 23 41 41.5t52 18.5h142l-160 -1316h202l-207 -508h-187l153 357h-172l127 1034q5 43 13 90.5t21 100.5q-22 -46 -45 -85.5t-46 -70.5l-743 -1009q-16 -23 -41 -41.5
t-54 -18.5h-142zM614 1777q2 22 13 38.5t29 16.5h98q-5 -49 -1.5 -82.5t17.5 -54t39 -29.5t64 -9t67 9t47 29.5t29.5 54t16.5 82.5h97q17 0 25.5 -17t5.5 -38q-11 -101 -90 -157t-208 -56q-130 0 -195.5 55t-53.5 158z" />
    <glyph glyph-name="uni048B" unicode="&#x48b;" horiz-adv-x="1149" 
d="M96.5 211q-11.5 73 0.5 167l78 659h181l-77 -659q-14 -122 15 -181.5t109 -59.5q47 0 97 25.5t96.5 73t86.5 114t70 148.5l64 539h181l-108 -903h170l-106 -437q-3 -26 -18.5 -40t-39.5 -14h-108l96 357h-101q-67 0 -66 66l15 188q-83 -132 -185.5 -200t-210.5 -68
q-66 0 -116 26t-81 76t-42.5 123zM365 1412q2 20 13 37.5t29 17.5h99q-11 -97 15 -138t104 -41q38 0 65.5 10t46.5 31.5t30 55t16 82.5h99q18 0 25 -17t5 -38q-6 -51 -29 -92t-62 -70t-91.5 -44.5t-117.5 -15.5q-129 0 -194 60t-53 162z" />
    <glyph glyph-name="uni048C" unicode="&#x48c;" horiz-adv-x="1249" 
d="M95 1096l18 145h227l28 225h191l-29 -225h327l-17 -145h-327l-33 -263h259q113 0 194.5 -26t134 -71.5t77.5 -108t25 -137.5q0 -111 -36 -201t-105.5 -154.5t-168.5 -99.5t-224 -35h-449l135 1096h-227zM397 152h257q82 0 143 21.5t101.5 62t60.5 98.5t20 132
q0 102 -61.5 158.5t-197.5 56.5h-258z" />
    <glyph glyph-name="uni048D" unicode="&#x48d;" horiz-adv-x="1002" 
d="M157 247l97 805h178l-65 -528q32 41 70 75.5t80 58.5t85 37.5t84 13.5q55 0 99 -18.5t75 -51.5t47.5 -80t16.5 -103q0 -62 -18.5 -122t-52 -112t-79.5 -95.5t-102 -75t-119.5 -48.5t-129.5 -17q-74 0 -127 18.5t-86.5 52.5t-46.5 82t-6 108zM333 233q-6 -50 31 -84
t113 -34q55 0 105.5 28t89 73t61 101.5t22.5 112.5q0 30 -7 57t-21.5 48t-39 33.5t-61.5 12.5q-48 0 -97 -26.5t-89.5 -69t-68 -95.5t-34.5 -107z" />
    <glyph glyph-name="uni048E" unicode="&#x48e;" horiz-adv-x="1150" 
d="M100 0l180 1467h404q117 0 203 -27.5t141.5 -78.5t83.5 -123t28 -160q0 -156 -67.5 -276t-198.5 -186l73 -148l-125 -74l-85 174q-79 -17 -166 -17h-213l-67 -551h-191zM377 702h213q42 0 79 7l-79 162l125 75l90 -185q71 47 106.5 124.5t35.5 175.5q0 59 -17.5 106
t-52 80.5t-88 51.5t-123.5 18h-213z" />
    <glyph glyph-name="uni048F" unicode="&#x48f;" horiz-adv-x="1082" 
d="M17 -351l169 1389h90q61 0 62 -61l-17 -221q39 68 85 122.5t96.5 93.5t106 60t112.5 21q133 0 206 -96.5t73 -281.5q0 -81 -16 -162t-46 -155t-72.5 -139t-94.5 -115l99 -203l-125 -74l-95 195q-36 -17 -74.5 -26.5t-79.5 -9.5q-77 0 -140 30t-106 85l-55 -452h-178z
M265 227q39 -54 93.5 -77t110.5 -23q61 0 116 30l-72 147l125 75l58 -121q30 40 53 87.5t39 99.5t24 106t8 106q0 122 -44 185.5t-124 63.5q-49 0 -99 -30t-96.5 -84.5t-87.5 -129t-71 -163.5z" />
    <glyph glyph-name="afii10050" unicode="&#x490;" horiz-adv-x="1031" 
d="M99 0l181 1466h667l41 332h149l-60 -482h-623l-162 -1316h-193z" />
    <glyph glyph-name="afii10098" unicode="&#x491;" horiz-adv-x="781" 
d="M-38 26l12 104h23q61 0 103 40.5t57 125.5l68 389q33 185 118.5 268t223.5 83h89l44 177q20 80 96 80h69l-80 -385h-201q-74 0 -118.5 -52t-65.5 -165l-70 -403q-25 -142 -98.5 -219.5t-197.5 -77.5q-40 0 -57 7.5t-15 27.5z" />
    <glyph glyph-name="uni0492" unicode="&#x492;" horiz-adv-x="1112" 
d="M49 691l18 146h212l77 629h816l-18 -150h-624l-59 -479h340l-17 -146h-340l-85 -691h-193l85 691h-212z" />
    <glyph glyph-name="uni0493" unicode="&#x493;" horiz-adv-x="882" 
d="M57.5 222.5q0.5 16.5 3.5 33.5q6 36 25 68.5t46.5 63t61 57.5t71.5 52l-200 28l15 112l306 -48q45 27 86 54t73 54.5t50 56t18 59.5q0 40 -35.5 67.5t-103.5 27.5q-45 0 -84 -11.5t-69.5 -26.5t-54 -27.5t-38.5 -12.5q-8 0 -17 4.5t-16 19.5l-39 74q34 29 74 51.5
t84 38.5t90.5 24.5t91.5 8.5q53 0 102 -12t88 -35t64.5 -58t33.5 -81q5 -36 -1 -67q-6 -34 -24 -64.5t-44 -58.5t-58 -53.5t-67 -50.5l185 -27l-14 -112l-295 47q-46 -28 -87.5 -55.5t-73.5 -57t-50.5 -61t-18.5 -64.5q0 -47 45 -79.5t121 -32.5q44 0 82.5 11.5t71 26t58 28
t45.5 18.5q22 5 31 1q7 -3 15.5 -12t16.5 -21.5t16 -25.5t15 -23q-79 -72 -179 -109t-201 -37q-68 0 -122.5 15.5t-95 43.5t-65 65t-31.5 81q-2 15 -1.5 31.5z" />
    <glyph glyph-name="uni0494" unicode="&#x494;" horiz-adv-x="1209" 
d="M99 0l181 1466h816l-19 -150h-623l-80 -644q84 93 179 144.5t192 51.5q84 0 150.5 -28t112.5 -87.5t70 -151.5t24 -219q0 -176 -44 -316.5t-122 -237.5t-186 -149.5t-235 -52.5q-47 0 -96 8.5t-92 26.5l16 92q3 17 15.5 27t32.5 10q8 0 19 -2.5t25 -6t31.5 -6t41.5 -2.5
q89 0 164.5 38t130 114.5t86 189t31.5 261.5q0 95 -15 162t-44.5 109t-73 61t-99.5 19q-49 0 -96 -19t-90.5 -51.5t-82 -76.5t-68.5 -96l-59 -484h-193z" />
    <glyph glyph-name="uni0495" unicode="&#x495;" horiz-adv-x="931" 
d="M58 0l128 1036h623l-16 -134h-447l-53 -433q55 59 118 96t131 37q69 0 120.5 -26t85.5 -74.5t51 -118t17 -155.5q0 -139 -31.5 -250.5t-88 -190t-134.5 -120.5t-170 -42q-43 0 -85 9.5t-78 26.5l24 73q4 15 14.5 24.5t28.5 9.5q11 0 30.5 -6.5t46.5 -6.5q58 0 107 29
t84.5 86.5t55 145t19.5 205.5q0 68 -10.5 114.5t-30 76t-49 43t-66.5 13.5q-28 0 -57 -11t-56 -29.5t-51.5 -45t-44.5 -56.5l-40 -326h-176z" />
    <glyph glyph-name="uni0496" unicode="&#x496;" horiz-adv-x="2080" 
d="M-56 0l472 637q37 52 77.5 83.5t89.5 46.5q-39 14 -65 41.5t-48 70.5l-315 588h150q30 0 54 -15t35 -42l269 -513q24 -46 53 -60.5t72 -14.5h132l79 645h182l-80 -645h134q42 0 75 14.5t68 60.5l395 513q18 27 45 42t57 15h150l-459 -588q-33 -43 -65 -70.5t-75 -41.5
q46 -15 78.5 -46.5t57.5 -83.5l241 -486h218l-55 -452q-3 -26 -22 -41t-47 -15h-113l44 357h-77q-43 0 -70.5 18.5t-42.5 50.5l-270 525q-20 42 -50 61.5t-80 19.5h-155l-83 -675h-181l83 675h-153q-50 0 -84.5 -19.5t-65.5 -61.5l-398 -525q-23 -32 -55 -50.5t-74 -18.5
h-128z" />
    <glyph glyph-name="uni0497" unicode="&#x497;" horiz-adv-x="1783" 
d="M-11 53l44 76q10 17 19.5 23t21.5 6q8 1 17.5 -2.5t22 -8.5t27.5 -9t33 -4q48 0 94 39t82.5 109.5t58.5 168t22 214.5q0 68 -7.5 113.5t-23 75t-38 42t-52.5 12.5q-27 0 -47 -8t-36.5 -18.5t-29 -18.5t-21.5 -9q-10 0 -20 3t-16 13l-40 78q30 29 62.5 49t65 32t64 17.5
t58.5 5.5q109 0 172.5 -78.5t63.5 -240.5q0 -104 -19.5 -198.5t-55.5 -177.5q48 56 97 126.5t95 149.5t83.5 165t62.5 174l7 66l154 -1l-65 -627q44 85 97.5 165t110.5 151.5t117 131.5t117.5 103t109.5 67t95 24q46 0 89.5 -16t86.5 -52l-43 -76q-10 -16 -19.5 -22
t-21.5 -6q-8 0 -17.5 3.5t-22 8t-27 8t-33.5 3.5q-48 0 -94 -39t-82.5 -109t-58.5 -167.5t-22 -213.5q0 -68 7.5 -114.5t23 -75.5t38 -42t52.5 -13q26 0 47 8t37 18.5t28.5 19t21.5 8.5q10 0 20 -2.5t16 -13.5l40 -78q-16 -16 -33 -28.5t-35 -23.5l-82 -340
q-3 -26 -18.5 -40t-38.5 -14h-109l92 345q-7 0 -13.5 -0.5t-12.5 -0.5q-109 0 -172.5 77.5t-63.5 239.5q0 104 19 198.5t55 177.5q-48 -55 -96.5 -124.5t-93 -147.5t-82.5 -163.5t-64 -172.5l-7 -73h-153l64 633q-44 -85 -97 -166t-111 -152.5t-117.5 -131.5t-117 -103.5
t-110 -67.5t-95.5 -24q-46 0 -89.5 15t-87.5 51z" />
    <glyph glyph-name="uni0498" unicode="&#x498;" horiz-adv-x="1098" 
d="M-11 177l66 91q9 11 21.5 18.5t26.5 7.5q20 0 45 -23t64 -51.5t97 -51.5t144 -23q81 0 145.5 22.5t109 64.5t68.5 101.5t24 133.5q0 51 -18 94t-52 74t-83.5 47.5t-111.5 16.5h-186l20 158h176q63 0 117.5 17.5t94.5 51t62.5 82.5t22.5 111q0 45 -16.5 82.5t-48 64.5
t-78 42t-105.5 15q-76 0 -131 -17.5t-94 -39t-65 -39t-44 -17.5q-27 0 -40 30l-36 90q86 74 192.5 112.5t235.5 38.5q97 0 173.5 -25t130 -70t81 -105.5t27.5 -133.5q0 -126 -64 -222t-176 -146q90 -44 143.5 -120t53.5 -176q0 -91 -31 -173.5t-90 -148t-143.5 -110
t-191.5 -58.5q42 -24 64 -60.5t22 -79.5t-15 -80.5t-43.5 -66t-67.5 -44t-86 -15.5q-49 0 -91 14t-67 39l35 64q6 13 20 13q5 0 10 -4t14 -9t22 -8.5t34 -3.5q26 0 47 10.5t36 29t23 44t8 55.5q0 31 -12.5 56.5t-42.5 38.5h-7q-144 0 -255.5 51.5t-183.5 139.5z" />
    <glyph glyph-name="uni0499" unicode="&#x499;" horiz-adv-x="887" 
d="M-14 114l46 74q5 9 15 17t22 8q18 0 38.5 -14.5t49.5 -31t71.5 -31t106.5 -14.5q63 0 113 17.5t84 47.5t52 70.5t18 87.5q0 78 -52.5 115t-149.5 37q-31 0 -69 -5t-74 -10q0 35 2.5 68.5t15.5 66.5q29 -3 56 -5.5t56 -2.5q63 -1 110.5 14t78.5 39.5t46.5 56.5t15.5 65
q0 27 -9 50.5t-30.5 41.5t-55.5 28.5t-83 10.5q-65 0 -109.5 -13.5t-74.5 -30.5t-49.5 -32t-32.5 -16q-11 -1 -20 2.5t-19 19.5l-38 62q29 31 69.5 57.5t89.5 46t104 31t114 11.5q81 0 138.5 -20t95.5 -53t56 -75.5t18 -87.5q0 -37 -12.5 -75.5t-39.5 -72.5t-70.5 -62
t-107.5 -44q95 -17 146 -77t51 -145q0 -56 -21 -111.5t-62.5 -102t-103 -81.5t-142.5 -50q45 -23 69.5 -60t24.5 -83q0 -43 -15.5 -80.5t-44 -66t-67 -44t-85.5 -15.5q-49 0 -91.5 14t-67.5 39l36 64q5 13 19 13q5 0 10 -4t14 -9t22.5 -8.5t33.5 -3.5q26 0 47.5 10.5t36 29
t23 44t8.5 55.5q0 32 -13.5 57.5t-44.5 38.5q-7 0 -14 -0.5t-14 -0.5q-102 0 -188 32.5t-153 95.5z" />
    <glyph glyph-name="uni049A" unicode="&#x49a;" horiz-adv-x="1358" 
d="M99 0l181 1467h191l-80 -645h139q42 0 73.5 14t65.5 56l409 520q17 24 40.5 39.5t51.5 15.5h162l-478 -605q-53 -71 -132 -95q49 -14 80.5 -45t57.5 -85l250 -486h182l-54 -452q-4 -26 -23 -41t-46 -15h-114l44 357h-84q-29 0 -46.5 15.5t-31.5 44.5l-282 542
q-10 19 -20.5 33.5t-25 23t-33 12.5t-42.5 4h-160l-83 -675h-192z" />
    <glyph glyph-name="uni049B" unicode="&#x49b;" horiz-adv-x="1077" 
d="M59 0l126 1037h175l-56 -458l89 18q20 4 35.5 9t28.5 13t24.5 19t22.5 27l155 203q32 45 56.5 77.5t50.5 53t56.5 30t74.5 9.5h77l-19 -94q-4 -23 -16.5 -29.5t-30.5 -11.5t-39 -15t-43 -39l-152 -201q-15 -20 -29.5 -36.5t-30 -28.5t-33.5 -20.5t-40 -13.5
q58 -11 94.5 -43t60.5 -90l129 -282h182l-106 -437q-6 -25 -20.5 -39.5t-37.5 -14.5h-109l95 357h-46q-47 0 -71 16t-38 45l-152 326q-17 40 -49 66t-75 26l-108 -20l-56 -459h-175z" />
    <glyph glyph-name="uni049C" unicode="&#x49c;" horiz-adv-x="1343" 
d="M99 0l181 1466h191l-80 -644h128l40 321h136l-39 -320q31 4 57 18.5t52 50.5l372 520q17 25 40 39.5t51 14.5h156l-445 -604q-27 -36 -58 -59.5t-67 -35.5q50 -14 81.5 -44.5t54.5 -85.5l290 -637h-172q-56 0 -79 60l-244 542q-16 39 -40 55t-67 18l-34 -279h-136l34 279
h-128l-83 -675h-192z" />
    <glyph glyph-name="uni049D" unicode="&#x49d;" horiz-adv-x="1089" 
d="M59 0l126 1036h175l-57 -469l103 13l30 251h109l-30 -238q33 7 55.5 21.5t43.5 42.5l150 211q25 42 48.5 74t50.5 53.5t60 32t77 10.5h78l-18 -94q-5 -23 -18 -29.5t-31 -11.5t-39 -15t-41 -39l-154 -201q-30 -42 -58.5 -65t-74.5 -34q58 -11 95 -43t62 -90l190 -416
h-104q-47 0 -70.5 16t-38.5 45l-152 326q-8 19 -20.5 37t-28.5 31.5t-35 20t-39 3.5h-1l-35 -282h-109l33 267l-102 -14l-55 -450h-175z" />
    <glyph glyph-name="uni049E" unicode="&#x49e;" horiz-adv-x="1433" 
d="M74 1096l17 145h315l27 226h192l-29 -226h180l-17 -145h-180l-34 -274h139q42 0 73 14t65 56l410 520q17 24 40 39.5t52 15.5h162l-478 -605q-53 -71 -132 -95q49 -14 80 -45t58 -85l327 -637h-173q-29 0 -46 15.5t-31 44.5l-282 542q-10 19 -21 33.5t-25 23t-32.5 12.5
t-43.5 4h-160l-83 -675h-191l134 1096h-313z" />
    <glyph glyph-name="uni049F" unicode="&#x49f;" horiz-adv-x="1083" 
d="M66 794l16 128h170l14 114h175l-14 -114h169l-15 -128h-169l-27 -219l104 22q41 7 65 21.5t47 46.5l156 203q32 45 56.5 77.5t49.5 53t55.5 30t74.5 9.5h78l-18 -94q-5 -23 -18 -29.5t-31 -11.5t-39 -15t-41 -39l-154 -201q-30 -42 -58.5 -65t-74.5 -34q58 -11 95 -43
t62 -90l190 -416h-104q-47 0 -71 16t-38 45l-153 326q-16 40 -48 66t-74 26l-125 -23l-56 -456h-175l97 794h-171z" />
    <glyph glyph-name="uni04A0" unicode="&#x4a0;" horiz-adv-x="1521" 
d="M114 1311l19 155h388v1h192l-20 -156l-60 -489h139q42 0 73.5 14t64.5 56l410 520q17 24 40 39.5t52 15.5h162l-478 -605q-53 -71 -132 -95q49 -14 80 -45t58 -85l328 -637h-174q-29 0 -46 15.5t-31 44.5l-282 542q-10 19 -21 33.5t-25 23t-32.5 12.5t-43.5 4h-160
l-83 -675h-191l161 1311h-388z" />
    <glyph glyph-name="uni04A1" unicode="&#x4a1;" horiz-adv-x="1178" 
d="M56 900l17 137h480l-16 -137h-1l-39 -321l89 18q20 4 35.5 9t28.5 13t24 19t22 27l156 203q32 45 56.5 77.5t50 53t56.5 30t75 9.5h76l-18 -94q-4 -23 -17 -29.5t-31 -11.5t-39 -15t-42 -39l-153 -201q-15 -20 -29.5 -36.5t-29.5 -28.5t-33 -20.5t-41 -13.5
q58 -11 94.5 -43t61.5 -90l190 -416h-103q-47 0 -71 16t-39 45l-151 326q-17 40 -49 66t-75 26l-109 -20l-55 -459h-175l108 900h-304z" />
    <glyph glyph-name="uni04A2" unicode="&#x4a2;" horiz-adv-x="1531" 
d="M99 0l181 1466h192l-81 -655h717l81 655h191l-160 -1315h204l-55 -452q-4 -26 -23 -41t-46 -15h-113l44 357h-222l82 671h-717l-82 -671h-193z" />
    <glyph glyph-name="uni04A3" unicode="&#x4a3;" horiz-adv-x="1137" 
d="M58 0l128 1036h176l-51 -414h448l51 414h177l-111 -902h174l-106 -437q-3 -26 -19 -40t-39 -14h-108l95 357h-190l59 486h-448l-60 -486h-176z" />
    <glyph glyph-name="uni04A4" unicode="&#x4a4;" horiz-adv-x="1939" 
d="M99 0l181 1466h192l-81 -655h717l81 655h816l-18 -150h-625l-161 -1316h-192l82 671h-717l-82 -671h-193z" />
    <glyph glyph-name="uni04A5" unicode="&#x4a5;" horiz-adv-x="1411" 
d="M58 0l128 1036h176l-51 -414h448l35 280l16 134h623l-16 -134h-446l-112 -902h-176l59 486h-448l-60 -486h-176z" />
    <glyph glyph-name="uni04A6" unicode="&#x4a6;" horiz-adv-x="2057" 
d="M99 0l181 1466h1048l-97 -792q84 93 178.5 143.5t191.5 50.5q84 0 150 -28t112 -87.5t70 -151.5t24 -219q0 -176 -43.5 -316.5t-122 -237.5t-186 -149.5t-235.5 -52.5q-47 0 -96 8.5t-92 26.5l16 92q4 17 16 27t32 10q16 0 43.5 -8.5t73.5 -8.5q89 0 164.5 38t130 114.5
t86 189t31.5 261.5q0 95 -15 162t-43.5 109t-72 61t-100.5 19q-48 0 -95.5 -18.5t-90.5 -50.5t-81.5 -76t-68.5 -95l-59 -487h-194l162 1316h-663l-162 -1316h-193z" />
    <glyph glyph-name="uni04A7" unicode="&#x4a7;" horiz-adv-x="1547" 
d="M58 0l128 1036h801l-71 -568q56 60 119.5 97t131.5 37q69 0 120 -26t85.5 -74.5t52 -118t17.5 -155.5q0 -139 -32 -250.5t-88 -190t-134 -120.5t-170 -42q-43 0 -85 9.5t-78 26.5l23 73q4 15 14.5 24.5t28.5 9.5q11 0 30.5 -6.5t46.5 -6.5q58 0 107.5 29t84.5 86.5
t54.5 145t19.5 205.5q0 68 -10.5 114.5t-30.5 76t-48.5 43t-65.5 13.5q-29 0 -58 -11t-56.5 -30t-52 -46.5t-43.5 -58.5l-40 -322h-176l111 902h-448l-112 -902h-176z" />
    <glyph glyph-name="uni04A8" unicode="&#x4a8;" horiz-adv-x="1571" 
d="M101 624q0 188 55.5 345.5t158 271.5t247 177.5t322.5 63.5q29 0 54 -2t50 -6.5t50.5 -10.5t55.5 -15l-20 -73q-7 -30 -25.5 -53t-41.5 -23q-13 0 -27.5 3t-33.5 6.5t-44 6t-59 2.5q-116 0 -215.5 -47t-172.5 -135.5t-115 -215.5t-42 -286q0 -113 28 -203t80.5 -152.5
t125.5 -96t163 -33.5q43 0 83.5 6t77.5 17q-54 71 -87.5 172t-33.5 241q0 143 27.5 253.5t77.5 185.5t122 113.5t161 38.5q72 0 124 -30t86 -81t50 -120.5t16 -146.5q0 -103 -19.5 -195.5t-55 -172.5t-85.5 -147t-111 -120q37 -15 72.5 -21t64.5 -6q56 0 94 8.5t61 8.5
q24 0 39 -16t15 -46l1 -73q-54 -16 -115 -23.5t-122 -7.5t-129 17t-131 57q-76 -38 -157.5 -57t-167.5 -19q-126 0 -228 47t-174 132t-111 202t-39 259zM905 590q0 -125 29 -207t74 -134q106 83 163.5 223t57.5 320q0 46 -7.5 88.5t-21.5 75.5t-37.5 53t-55.5 20
q-42 0 -78.5 -27t-64 -81.5t-43.5 -136.5t-16 -194z" />
    <glyph glyph-name="uni04A9" unicode="&#x4a9;" horiz-adv-x="1166" 
d="M65 436q0 132 35.5 245t102.5 195t164 129.5t220 47.5q33 0 64 -5t62 -16l-20 -73q-7 -30 -22 -38.5t-37 -8.5q-11 1 -25 2t-27 1q-82 0 -144.5 -34.5t-105 -97t-64.5 -149t-22 -191.5q0 -76 17.5 -136t51 -102.5t82.5 -65.5t112 -23q42 0 81 9q-53 60 -82 141.5
t-29 180.5q0 96 24 172t67 128t102.5 79t130.5 27q63 0 113.5 -25t82.5 -69.5t45 -106t4 -134.5q-14 -112 -73 -212t-147 -174q46 -17 100 -17q24 0 39.5 3t29.5 5q29 0 41 -11.5t13 -39.5l1 -68q-28 -9 -63 -14t-74 -5q-65 0 -121 14.5t-105 43.5q-57 -28 -117.5 -42.5
t-121.5 -14.5q-83 0 -154 30.5t-122.5 89t-80 142t-28.5 188.5zM645 455q0 -80 22.5 -145.5t65.5 -111.5q72 61 112 154.5t40 204.5q0 70 -24 112.5t-74 42.5q-34 0 -60.5 -18.5t-44 -52t-27.5 -81t-10 -105.5z" />
    <glyph glyph-name="uni04AA" unicode="&#x4aa;" horiz-adv-x="1278" 
d="M101 621q0 191 59.5 349.5t163.5 273t244.5 177.5t301.5 63q78 0 141.5 -13.5t116 -39t95 -61.5t79.5 -80l-66 -80q-8 -10 -18.5 -16.5t-25.5 -6.5q-18 0 -38.5 20.5t-56 44.5t-91.5 44.5t-145 20.5q-120 0 -222.5 -47.5t-178.5 -136.5t-119.5 -214.5t-43.5 -282.5
q0 -114 29.5 -204t82.5 -153t125.5 -97t159.5 -34q68 0 120 11.5t92 28t68 36.5t49 36t35.5 27.5t25.5 11.5q9 0 15.5 -3.5t10.5 -8.5l67 -83q-81 -88 -182.5 -143t-231.5 -71q39 -24 60.5 -59t21.5 -78t-15.5 -80.5t-43.5 -66t-67 -44t-86 -15.5q-49 0 -91 14t-68 39l36 64
q5 13 19 13q5 0 10.5 -4t14 -9t22 -8.5t33.5 -3.5q26 0 47.5 10.5t36.5 29t23 44t8 55.5t-12 54.5t-38 38.5h-11q-132 0 -236 47t-176.5 131.5t-111 201t-38.5 257.5z" />
    <glyph glyph-name="uni04AB" unicode="&#x4ab;" horiz-adv-x="930" 
d="M59 410q0 126 39.5 241.5t110.5 204.5t168.5 142.5t213.5 53.5q103 0 173 -36.5t122 -106.5l-58 -68q-7 -8 -15.5 -13.5t-19.5 -5.5q-14 0 -28 13t-36.5 29t-56 28.5t-85.5 12.5q-71 0 -133.5 -38.5t-109.5 -105t-74 -157.5t-27 -195q0 -63 14 -115t43 -88.5t70.5 -56.5
t96.5 -20q69 0 115.5 20.5t78 44.5t53.5 44.5t44 20.5q19 0 35 -17l45 -56q-39 -43 -75 -74.5t-70.5 -54.5t-69.5 -37.5t-72 -22.5q46 -23 70.5 -60.5t24.5 -83.5q0 -43 -15.5 -80.5t-43.5 -66t-67 -44t-86 -15.5q-49 0 -91 14t-68 39l36 64q6 13 20 13q5 0 10 -4t14 -9
t22 -8.5t34 -3.5q26 0 47 10.5t36 29t23 44t8 55.5q0 32 -13 57.5t-44 38.5q-10 0 -19.5 -0.5t-19.5 -0.5q-90 0 -159 30.5t-115.5 86.5t-71 134t-24.5 173z" />
    <glyph glyph-name="uni04AC" unicode="&#x4ac;" horiz-adv-x="1125" 
d="M113 1307l18 160h1060l-20 -160h-433l-142 -1156h199l-56 -452q-3 -26 -22 -41t-46 -15h-114l43 357h-213l160 1307h-434z" />
    <glyph glyph-name="uni04AD" unicode="&#x4ad;" horiz-adv-x="1684" 
d="M60 0l125 1038h90q62 0 63 -61l-14 -184q77 128 168.5 194t191.5 66q105 0 155.5 -72.5t50.5 -206.5q77 142 173.5 210.5t204.5 68.5q133 0 188 -102.5t33 -290.5l-63 -526h175l-106 -437q-3 -26 -19 -40t-38 -14h-109l96 357h-194l79 660q14 122 -8 181.5t-99 59.5
q-44 0 -87.5 -22t-84.5 -64.5t-76 -105.5t-63 -145v-1l-67 -563h-180l78 660q15 122 -4.5 181.5t-95.5 59.5q-49 0 -95 -24.5t-86.5 -71t-75 -113.5t-63.5 -151l-64 -541h-179z" />
    <glyph glyph-name="uni04AE" unicode="&#x4ae;" horiz-adv-x="1191" 
d="M110 1467h169q26 0 40 -12t21 -33l243 -587q19 -58 30 -111q12 27 27 54t33 57l389 587q11 17 28 31t42 14h158l-602 -880l-73 -587h-191l73 585z" />
    <glyph glyph-name="uni04AF" unicode="&#x4af;" horiz-adv-x="977" 
d="M72 1036h140q20 0 32.5 -11t16.5 -26l157 -635q8 -34 13 -67.5t7 -66.5q11 33 24.5 66.5t31.5 67.5l316 635q7 15 22 26t33 11h143l-499 -971l-51 -416h-176l50 416z" />
    <glyph glyph-name="uni04B0" unicode="&#x4b0;" horiz-adv-x="1231" 
d="M129 1466h169q25 0 38 -12.5t22 -32.5l234 -544q14 -32 25 -58t18 -51q13 26 30 51.5t38 57.5l368 544q11 16 28.5 30.5t41.5 14.5h169l-596 -828l-12 -92h293l-17 -146h-294l-49 -400h-191l50 400h-293l17 146h293l11 93z" />
    <glyph glyph-name="uni04B1" unicode="&#x4b1;" horiz-adv-x="982" 
d="M75 1036h140q20 0 32.5 -11t16.5 -26l157 -635q8 -34 13 -67.5t7 -66.5q11 33 24.5 66.5t31.5 67.5l316 635q7 15 22 26t33 11h143l-499 -971l-11 -90h201l-15 -128h-202l-24 -198h-176l23 198h-219l14 128h221l11 90z" />
    <glyph glyph-name="uni04B2" unicode="&#x4b2;" horiz-adv-x="1327" 
d="M-70 0l583 783l-344 684h173q20 0 29.5 -7t17.5 -21l262 -553l10 18t12 20l373 514q11 15 21.5 22t26.5 7h197l-513 -675l314 -641h169l-56 -452q-3 -26 -22.5 -41t-45.5 -15h-114l44 357h-74q-20 0 -31.5 12t-17.5 25l-299 640q-4 -8 -8.5 -16t-9.5 -15l-443 -609
q-13 -20 -29 -28.5t-34 -8.5h-191z" />
    <glyph glyph-name="uni04B3" unicode="&#x4b3;" horiz-adv-x="1069" 
d="M-66 0l419 558l-249 479h163q20 0 29.5 -5.5t15.5 -19.5l174 -358q11 23 26 44l234 311q16 29 44 28h163l-370 -481l210 -422h208l-105 -437q-3 -26 -19 -40t-39 -14h-109l96 357h-128q-20 0 -32 10t-19 26l-194 415q-10 -23 -22 -39l-283 -377q-11 -14 -23 -24.5
t-31 -10.5h-159z" />
    <glyph glyph-name="uni04B4" unicode="&#x4b4;" horiz-adv-x="1720" 
d="M113 1311l19 155h968l-20 -155h-387l-142 -1160h663l161 1315h194l-162 -1315h205l-57 -452q-2 -26 -21.5 -41t-45.5 -15h-115l44 357h-1077l160 1311h-387z" />
    <glyph glyph-name="uni04B5" unicode="&#x4b5;" horiz-adv-x="1349" 
d="M55 900l17 137h734l-16 -137h-251l-62 -522q-14 -122 15 -181.5t110 -59.5q47 0 97 25.5t96.5 73t86.5 114t69 148.5l65 539h181l-108 -903h174l-106 -437q-3 -26 -19 -40t-39 -14h-108l95 357h-104q-67 0 -67 66l16 188q-83 -132 -185.5 -200t-210.5 -68q-66 0 -116 26
t-81.5 76t-42.5 123t1 167l61 522h-302z" />
    <glyph glyph-name="uni04B6" unicode="&#x4b6;" horiz-adv-x="1333" 
d="M135 988l58 478h193l-59 -479q-12 -103 16 -165.5t100 -87t189 -13t279 56.5l85 688h192l-162 -1315h198l-56 -452q-4 -26 -23 -41t-45 -15h-114l44 357h-214l78 639q-112 -32 -216 -50t-193 -17.5t-160 23t-118 72t-66.5 128t-5.5 193.5z" />
    <glyph glyph-name="uni04B7" unicode="&#x4b7;" horiz-adv-x="1046" 
d="M81 519q-9 62 0 136l46 382h182l-46 -382q-5 -40 -1 -74t19 -59t41 -39.5t65 -14.5q45 0 88 16t80 45.5t67 71t50 92.5l42 344h181l-109 -903h175l-106 -437q-4 -26 -20 -40t-38 -14h-109l96 357h-195l58 488q-65 -80 -149 -126t-187 -46q-68 0 -116 25.5t-76.5 70.5
t-37.5 107z" />
    <glyph glyph-name="uni04B8" unicode="&#x4b8;" horiz-adv-x="1260" 
d="M134 988l57 478h194l-59 -479q-17 -135 36 -200t182 -69l41 332h137l-40 -322q50 7 107 20t121 30l85 688h192l-180 -1466h-192l78 639q-117 -34 -228 -52l-35 -284h-136l32 269q-98 -4 -177.5 15.5t-132 68.5t-75 130t-7.5 202z" />
    <glyph glyph-name="uni04B9" unicode="&#x4b9;" horiz-adv-x="980" 
d="M81 519q-9 62 0 136l46 382h182l-46 -382q-5 -40 -1 -74t19 -59t41 -39.5t65 -14.5h5l45 363h92l-42 -343q59 26 107.5 79t77.5 126l42 344h181l-124 -1037h-182l58 488q-37 -46 -81.5 -81t-95.5 -58l-18 -152h-93l16 125q-15 -2 -31 -4t-33 -2q-68 0 -116 25.5
t-76.5 70.5t-37.5 107z" />
    <glyph glyph-name="uni04BA" unicode="&#x4ba;" horiz-adv-x="1210" 
d="M99 0l181 1466h192l-79 -638q112 31 212.5 49t184.5 17t150.5 -23.5t109 -71.5t58.5 -128t3 -193l-59 -478h-193l59 478q13 103 -9.5 166.5t-87 88t-174.5 12.5t-271 -56l-84 -689h-193z" />
    <glyph glyph-name="uni04BB" unicode="&#x4bb;" horiz-adv-x="977" 
d="M60 0l125 1037h90q67 0 67 -65l-39 -407q71 116 152 166.5t177 50.5q68 0 117.5 -26t79.5 -76.5t40.5 -124t-1.5 -166.5l-48 -389h-181l48 389q14 123 -12.5 182.5t-110.5 59.5t-156.5 -78t-126.5 -241l-39 -312h-182z" />
    <glyph glyph-name="uni04BC" unicode="&#x4bc;" horiz-adv-x="1582" 
d="M57 784q0 47 12.5 93t44.5 106l98 -19q20 -4 27 -16t7 -23q0 -8 -4 -19.5t-9.5 -26t-9.5 -33t-4 -39.5q0 -50 28.5 -72t81.5 -24q11 169 72.5 310t161.5 244t232 160.5t285 57.5q112 0 198.5 -30t146 -80.5t90.5 -118t31 -143.5q0 -62 -15 -122t-56.5 -115.5t-114 -103.5
t-185.5 -86.5t-273.5 -65t-376.5 -37.5q13 -214 116 -320t278 -106q93 0 162 23t120 51t86.5 51t60.5 23q16 0 26.5 -6t17.5 -16l49 -72q-58 -59 -124.5 -101.5t-137.5 -69.5t-146 -39.5t-149 -12.5q-118 0 -216.5 39.5t-171 114.5t-116.5 184.5t-52 249.5h-2q-54 0 -103 10
t-86 34t-58.5 64.5t-21.5 101.5zM525 715q250 15 412 50t256 84.5t131 113t37 136.5q0 45 -19 85.5t-56 71t-91.5 48.5t-127.5 18q-112 0 -207 -43.5t-166 -123t-115 -191.5t-54 -249z" />
    <glyph glyph-name="uni04BD" unicode="&#x4bd;" horiz-adv-x="1208" 
d="M45 648q0 26 3 48.5t10 46t17.5 48.5t26.5 56l64 -14q18 -5 25 -15.5t7 -20.5q0 -8 -5 -19.5t-10 -27t-9.5 -34t-4.5 -41.5q0 -52 35 -79t96 -28q22 97 67 185.5t111.5 154.5t153 105t189.5 39q79 0 136.5 -22.5t94.5 -57.5t54.5 -77t17.5 -80q0 -68 -27.5 -124.5
t-101 -102t-202.5 -79.5t-332 -54q-1 -11 -1 -22v-22q0 -137 60 -209.5t180 -72.5q49 0 87.5 10.5t69 25t53.5 32.5t42.5 33t36 25t32.5 10q18 0 34 -17l46 -57q-52 -54 -102.5 -92.5t-102.5 -64t-108.5 -37t-121.5 -11.5q-89 0 -160.5 29.5t-120.5 84.5t-75.5 132.5
t-26.5 174.5v22.5t1 24.5q-52 2 -96.5 13.5t-75.5 34.5t-49 59t-18 87zM477 574q105 13 182 28.5t131 33.5t87 37.5t52 41.5t26 45t7 48q0 18 -8.5 38t-26.5 36.5t-46.5 27.5t-69.5 11q-65 0 -119 -27t-96.5 -74t-72 -110t-46.5 -136z" />
    <glyph glyph-name="uni04BE" unicode="&#x4be;" horiz-adv-x="1582" 
d="M57 784q0 47 12.5 93t44.5 106l98 -19q20 -4 27 -16t7 -23q0 -8 -4 -19.5t-9.5 -26t-9.5 -33t-4 -39.5q0 -50 28.5 -72t81.5 -24q11 169 72.5 310t161.5 244t232 160.5t285 57.5q112 0 198.5 -30t146 -80.5t90.5 -118t31 -143.5q0 -62 -15 -122t-56.5 -115.5t-114 -103.5
t-185.5 -86.5t-273.5 -65t-376.5 -37.5q13 -214 116 -320t278 -106q93 0 162 23t120 51t86.5 51t60.5 23q16 0 26.5 -6t17.5 -16l49 -72q-99 -100 -218.5 -152.5t-246.5 -65.5l-41 -342h-177l41 342q-100 13 -184 58t-145 119.5t-98 176t-44 229.5h-2q-54 0 -103 10t-86 34
t-58.5 64.5t-21.5 101.5zM525 715q250 15 412 50t256 84.5t131 113t37 136.5q0 45 -19 85.5t-56 71t-91.5 48.5t-127.5 18q-112 0 -207 -43.5t-166 -123t-115 -191.5t-54 -249z" />
    <glyph glyph-name="uni04BF" unicode="&#x4bf;" horiz-adv-x="1209" 
d="M45 648q0 26 3 48.5t10 46t17.5 48.5t26.5 56l64 -14q18 -5 25 -15.5t7 -20.5q0 -8 -5 -19.5t-10 -27t-9.5 -34t-4.5 -41.5q0 -52 35 -79t96 -28q22 97 67 185.5t111.5 154.5t153 105t189.5 39q79 0 136.5 -22.5t94.5 -57.5t54.5 -77t17.5 -80q0 -68 -27.5 -124.5
t-101 -102t-202.5 -79.5t-332 -54q-1 -11 -1 -22v-22q0 -137 60 -209.5t180 -72.5q49 0 87.5 10.5t69 25t53.5 32.5t42.5 33t36 25t32.5 10q18 0 34 -17l46 -57q-45 -46 -88.5 -81t-87.5 -60t-90.5 -40t-98.5 -20l-36 -293q-3 -26 -18.5 -40t-38.5 -14h-108l43 351
q-70 13 -125 48t-92.5 87.5t-57.5 123t-20 154.5v22.5t1 24.5q-52 2 -96.5 13.5t-75.5 34.5t-49 59t-18 87zM477 574q105 13 182 28.5t131 33.5t87 37.5t52 41.5t26 45t7 48q0 18 -8.5 38t-26.5 36.5t-46.5 27.5t-69.5 11q-65 0 -119 -27t-96.5 -74t-72 -110t-46.5 -136z
" />
    <glyph glyph-name="uni04C0" unicode="&#x4c0;" horiz-adv-x="545" 
d="M100 0l180 1467h192l-179 -1467h-193z" />
    <glyph glyph-name="uni04C1" unicode="&#x4c1;" horiz-adv-x="1972" 
d="M-56 0l472 637q37 52 77.5 83.5t89.5 46.5q-39 14 -65 41.5t-48 70.5l-315 588h150q30 0 54 -15t35 -42l269 -513q24 -46 53 -60.5t72 -14.5h132l79 645h182l-80 -645h134q42 0 75 14.5t68 60.5l395 513q18 27 45 42t57 15h150l-459 -588q-33 -43 -65 -70.5t-75 -41.5
q46 -15 78.5 -46.5t57.5 -83.5l316 -637h-127q-43 0 -70.5 18.5t-42.5 50.5l-270 525q-20 42 -50 61.5t-80 19.5h-155l-83 -675h-181l83 675h-153q-50 0 -84.5 -19.5t-65.5 -61.5l-398 -525q-23 -32 -55 -50.5t-74 -18.5h-128zM0 0zM853 1778q2 22 13 38.5t29 16.5h97
q-5 -49 -1.5 -82.5t18 -54t39.5 -29.5t64 -9t66.5 9t46.5 29.5t30 54t17 82.5h97q17 0 25.5 -17t5.5 -38q-11 -101 -90 -157t-208 -56q-130 0 -195.5 55t-53.5 158z" />
    <glyph glyph-name="uni04C2" unicode="&#x4c2;" horiz-adv-x="1783" 
d="M-11 53l44 76q10 17 19.5 23t21.5 6q8 1 17.5 -2.5t22 -8.5t27.5 -9t33 -4q48 0 94 39t82.5 109.5t58.5 168t22 214.5q0 68 -7.5 113.5t-23 75t-38 42t-52.5 12.5q-27 0 -47 -8t-36.5 -18.5t-29 -18.5t-21.5 -9q-10 0 -20 3t-16 13l-40 78q30 29 62.5 49t65 32t64 17.5
t58.5 5.5q109 0 172.5 -78.5t63.5 -240.5q0 -104 -19.5 -198.5t-55.5 -177.5q48 56 97 126.5t95 149.5t83.5 165t62.5 174l7 66l154 -1l-65 -627q44 85 97.5 165t110.5 151.5t117 131.5t117.5 103t109.5 67t95 24q46 0 89.5 -16t86.5 -52l-43 -76q-10 -16 -19.5 -22
t-21.5 -6q-8 0 -17.5 3.5t-22 8t-27 8t-33.5 3.5q-48 0 -94 -39t-82.5 -109t-58.5 -167.5t-22 -213.5q0 -68 7.5 -114.5t23 -75.5t38 -42t52.5 -13q26 0 47 8t37 18.5t28.5 19t21.5 8.5q10 0 20 -2.5t16 -13.5l40 -78q-30 -29 -62 -48t-65 -31.5t-64 -17.5t-59 -5
q-109 0 -172.5 77.5t-63.5 239.5q0 104 19 198.5t55 177.5q-48 -55 -96.5 -124.5t-93 -147.5t-82.5 -163.5t-64 -172.5l-7 -73h-153l64 633q-44 -85 -97 -166t-111 -152.5t-117.5 -131.5t-117 -103.5t-110 -67.5t-95.5 -24q-46 0 -89.5 15t-87.5 51zM0 0zM700 1412
q2 20 13.5 37.5t28.5 17.5h99q-11 -97 15 -138t104 -41q38 0 65.5 10t46.5 31.5t30.5 55t16.5 82.5h98q18 0 25.5 -17t5.5 -38q-6 -51 -29 -92t-62 -70t-92 -44.5t-117 -15.5q-129 0 -194 60t-54 162z" />
    <glyph glyph-name="uni04C3" unicode="&#x4c3;" horiz-adv-x="1339" 
d="M99 0l181 1466h191l-80 -644h139q42 0 73.5 14t65.5 56l409 520q17 24 40.5 39t51.5 15h162l-478 -604q-15 -20 -32.5 -36.5t-36.5 -28.5q81 -7 157.5 -32t135.5 -77t94 -135.5t35 -208.5q0 -165 -43.5 -296.5t-120.5 -224t-185 -142.5t-237 -50q-92 0 -188 28
q5 29 12 57.5t12 56.5q4 16 15 26.5t33 10.5q8 0 19 -3.5t24.5 -6.5t31.5 -6t42 -3q87 0 161 33.5t127.5 100t83.5 166t30 234.5q0 111 -33 179t-86 106t-120.5 51.5t-138.5 13.5h-272l-83 -675h-192z" />
    <glyph glyph-name="uni04C4" unicode="&#x4c4;" horiz-adv-x="1020" 
d="M58 -1l128 1037h176l-56 -457l88 18q41 7 64 21.5t47 46.5l155 203q32 45 56.5 77.5t50.5 53t56.5 30t74.5 9.5h77l-19 -94q-4 -23 -16.5 -29.5t-30.5 -11.5t-39 -15t-43 -39l-152 -201q-26 -35 -49.5 -56.5t-56.5 -33.5q74 -5 133.5 -29t101.5 -66.5t64.5 -103.5
t22.5 -141q0 -133 -36 -242t-97 -187t-140.5 -121t-168.5 -43q-36 0 -68.5 5.5t-69.5 17.5l17 88q3 14 13.5 24t28.5 10q11 0 28.5 -7t45.5 -7q58 0 107.5 31.5t86 91.5t57 147.5t20.5 198.5q0 68 -18.5 113.5t-54 74t-87 43.5t-118.5 20l-40 2l-106 -19l-57 -460h-176z" />
    <glyph glyph-name="uni04C5" unicode="&#x4c5;" horiz-adv-x="1452" 
d="M-71 25l15 120h66q37 0 75.5 16.5t78.5 65t81 138.5t83.5 237t86.5 358.5t89 505.5h810l-162 -1315h210l-207 -508h-187l152 357h-179l162 1316h-436q-48 -284 -96.5 -492.5t-98 -356.5t-101.5 -241.5t-106.5 -146t-112.5 -72.5t-119 -20q-52 0 -79.5 9.5t-24.5 28.5z
" />
    <glyph glyph-name="uni04C6" unicode="&#x4c6;" horiz-adv-x="1180" 
d="M-27 22l13 103h33q48 0 82.5 22.5t63 73t53.5 132.5t56 201q33 130 77 221.5t109 149.5t156.5 84.5t217.5 26.5h190l-111 -902h180l-106 -437q-3 -26 -19 -40t-39 -14h-110l96 357h-193l109 898h-33q-76 0 -131 -18t-96 -59t-70.5 -109t-54.5 -167q-37 -159 -77 -266
t-88 -172t-104 -92.5t-125 -27.5q-46 0 -63.5 7.5t-15.5 27.5z" />
    <glyph glyph-name="uni04C7" unicode="&#x4c7;" horiz-adv-x="1453" 
d="M99 0l181 1466h192l-81 -655h717l81 655h191l-166 -1354q-29 -234 -153.5 -360t-333.5 -126q-92 0 -188 29l24 113q4 16 16 26t32 10q16 0 43 -8.5t73 -8.5q61 0 111 17.5t87 55.5t61.5 98.5t35.5 149.5l69 563h-717l-82 -671h-193z" />
    <glyph glyph-name="uni04C8" unicode="&#x4c8;" horiz-adv-x="1072" 
d="M58 0l128 1036h176l-51 -414h448l51 414h177l-124 -1005q-13 -111 -46.5 -187.5t-84.5 -125.5t-120.5 -71t-155.5 -22q-39 0 -71.5 4.5t-68.5 16.5q6 27 11 44t10 44q4 14 14.5 24t29.5 10q6 0 12 -2t15.5 -4.5t22.5 -4t32 -1.5q41 0 77.5 12.5t65.5 43t50 84.5t31 137
l55 453h-448l-60 -486h-176z" />
    <glyph glyph-name="uni04C9" unicode="&#x4c9;" horiz-adv-x="1519" 
d="M99 0l181 1466h192l-81 -655h717l81 655h191l-160 -1315h210l-207 -508h-188l153 357h-179l82 671h-717l-82 -671h-193z" />
    <glyph glyph-name="uni04CA" unicode="&#x4ca;" horiz-adv-x="1124" 
d="M58 0l128 1036h176l-51 -414h427l52 414h177l-112 -902h183l-105 -437q-3 -26 -19 -40t-40 -14h-108l96 357h-199l59 486h-428l-60 -486h-176z" />
    <glyph glyph-name="uni04CB" unicode="&#x4cb;" horiz-adv-x="1261" 
d="M135 988l58 478h193l-59 -479q-12 -103 16 -165.5t100 -87t189 -13t279 56.5l85 688h192l-180 -1466h-204l-36 -295q-3 -26 -22 -41t-47 -15h-113l61 502h188l59 488q-112 -32 -216 -50t-193 -17.5t-160 23t-118 72t-66.5 128t-5.5 193.5z" />
    <glyph glyph-name="uni04CC" unicode="&#x4cc;" horiz-adv-x="982" 
d="M82 519q-9 62 0 136l46 382h182l-46 -382q-5 -40 -1 -74t19 -59t41 -39.5t65 -14.5q45 0 88 16t80 45.5t67 71t50 92.5l42 344h181l-124 -1037h-182l1 14l-24 -14l31 -303q2 -12 -2.5 -22.5t-13.5 -17t-19.5 -10.5t-21.5 -4h-90l-40 446h189v-1l48 400q-65 -80 -149 -126
t-187 -46q-68 0 -116 25.5t-76.5 70.5t-37.5 107z" />
    <glyph glyph-name="uni04CD" unicode="&#x4cd;" horiz-adv-x="1831" 
d="M99 0l182 1467h140q26 0 37.5 -6.5t25.5 -25.5l356 -923q6 -20 11.5 -40.5t10.5 -42.5q18 43 43 83l577 923q18 20 31 26t38 6h143l-162 -1316h210l-207 -508h-187l152 357h-154l134 1084q2 20 6.5 44t9.5 50l-570 -920q-27 -44 -75 -44h-27q-24 0 -40 11.5t-24 32.5
l-353 922q-1 -25 -2.5 -48.5t-3.5 -44.5l-133 -1087h-169z" />
    <glyph glyph-name="uni04CE" unicode="&#x4ce;" horiz-adv-x="1495" 
d="M1 0q39 123 75.5 247.5t68.5 253.5t60.5 263t53.5 276h142q18 0 37 -7.5t26 -32.5l210 -633q7 -25 12.5 -47t9.5 -42q11 31 32 64l388 658q15 24 34 32t38 8h152l-110 -906h175l-106 -437q-3 -26 -18.5 -40t-39.5 -14h-108l95 357h-179l90 721q2 20 6.5 45t10.5 48
l-445 -752q-10 -14 -24 -23t-32 -9h-25q-16 0 -28 9t-18 23l-229 747q-4 -27 -8 -55.5t-9 -50.5q-15 -83 -30.5 -162t-33.5 -158.5t-39.5 -160t-50.5 -165.5q-9 -27 -27.5 -42t-46.5 -15h-109z" />
    <glyph glyph-name="uni04CF" unicode="&#x4cf;" horiz-adv-x="545" 
d="M100 0l180 1467h192l-179 -1467h-193z" />
    <glyph glyph-name="uni04D0" unicode="&#x4d0;" horiz-adv-x="1301" 
d="M-59 0l719 1467h195l359 -1467h-147q-26 0 -40 13t-21 33l-79 358h-597l-168 -358q-9 -18 -28.5 -32t-42.5 -14h-150zM0 0zM394 544h502l-134 607q-5 28 -12.5 63.5t-13.5 77.5q-15 -42 -30.5 -78t-26.5 -64zM518 1778q2 22 13 38.5t29 16.5h97q-5 -49 -1.5 -82.5t18 -54
t39.5 -29.5t64 -9t66.5 9t46.5 29.5t30 54t17 82.5h97q17 0 25.5 -17t5.5 -38q-11 -101 -90 -157t-208 -56q-130 0 -195.5 55t-53.5 158z" />
    <glyph glyph-name="uni04D1" unicode="&#x4d1;" horiz-adv-x="1046" 
d="M51 0zM51 351q0 92 23 179.5t65.5 165.5t102 143t132.5 112.5t157 74t177 26.5q67 0 129.5 -11t124.5 -37l-124 -1004h-95q-36 0 -48.5 18.5t-12.5 44.5l18 210q-37 -66 -79 -119t-90 -90t-100 -57.5t-108 -20.5q-61 0 -111.5 24t-86 70.5t-55 114.5t-19.5 156zM233 384
q0 -247 158 -247q50 0 98.5 31.5t91.5 86.5t80 131.5t66 167.5l44 356q-23 5 -44.5 7t-43.5 2q-61 0 -118.5 -20t-107.5 -56t-91 -85.5t-70.5 -109t-46 -126.5t-16.5 -138zM443 1412q2 20 13.5 37.5t28.5 17.5h99q-11 -97 15 -138t104 -41q38 0 65.5 10t46.5 31.5t30.5 55
t16.5 82.5h98q18 0 25.5 -17t5.5 -38q-6 -51 -29 -92t-62 -70t-92 -44.5t-117 -15.5q-129 0 -194 60t-54 162z" />
    <glyph glyph-name="uni04D2" unicode="&#x4d2;" horiz-adv-x="1301" 
d="M-59 0l719 1467h195l359 -1467h-147q-26 0 -40 13t-21 33l-79 358h-597l-168 -358q-9 -18 -28.5 -32t-42.5 -14h-150zM0 0zM394 544h502l-134 607q-5 28 -12.5 63.5t-13.5 77.5q-15 -42 -30.5 -78t-26.5 -64zM470 1703q0 25 9 45.5t25 37t36.5 26t43.5 9.5
q24 0 44.5 -9.5t37 -26t25.5 -37t9 -45.5q0 -24 -9 -44.5t-25.5 -35.5t-37.5 -24t-44 -9t-43.5 9t-36.5 24t-25 35.5t-9 44.5zM859 1703q0 25 9.5 45.5t24.5 37t36 26t45 9.5t44.5 -9.5t36.5 -26t25.5 -37t9.5 -45.5q0 -24 -9.5 -44.5t-25.5 -35.5t-37 -24t-44 -9
q-24 0 -45 9t-36 24t-24.5 35.5t-9.5 44.5z" />
    <glyph glyph-name="uni04D3" unicode="&#x4d3;" horiz-adv-x="1046" 
d="M51 0zM51 351q0 92 23 179.5t65.5 165.5t102 143t132.5 112.5t157 74t177 26.5q67 0 129.5 -11t124.5 -37l-124 -1004h-95q-36 0 -48.5 18.5t-12.5 44.5l18 210q-37 -66 -79 -119t-90 -90t-100 -57.5t-108 -20.5q-61 0 -111.5 24t-86 70.5t-55 114.5t-19.5 156zM233 384
q0 -247 158 -247q50 0 98.5 31.5t91.5 86.5t80 131.5t66 167.5l44 356q-23 5 -44.5 7t-43.5 2q-61 0 -118.5 -20t-107.5 -56t-91 -85.5t-70.5 -109t-46 -126.5t-16.5 -138zM407 1320q0 24 9.5 45t25 37t36 25.5t44.5 9.5t45 -9.5t37 -25.5t25.5 -37t9.5 -45t-9.5 -44.5
t-25.5 -35.5t-37 -24.5t-45 -9.5t-44.5 9.5t-36 24.5t-25 35.5t-9.5 44.5zM777 1320q0 24 9 45t25 37t37 25.5t45 9.5t44.5 -9.5t36.5 -25.5t25 -37t9 -45t-9 -44.5t-25 -35.5t-37 -24.5t-44 -9.5q-24 0 -45 9.5t-37 24.5t-25 35.5t-9 44.5z" />
    <glyph glyph-name="uni04D4" unicode="&#x4d4;" horiz-adv-x="1776" 
d="M-68 0l881 1467h977l-18 -156h-709v-496h524l-18 -150h-506v-509h567l-20 -156h-727v404h-516l-210 -358q-11 -18 -31.5 -32t-44.5 -14h-149zM447 544h436v767q-14 -37 -29.5 -70t-33.5 -62z" />
    <glyph glyph-name="uni04D5" unicode="&#x4d5;" horiz-adv-x="1522" 
d="M19 228q0 73 33 138.5t106.5 116.5t193.5 82.5t295 36.5l8 62q15 123 -23.5 184.5t-129.5 61.5q-61 0 -105 -16.5t-76 -37.5t-56.5 -38t-47.5 -17q-18 0 -29.5 9t-19.5 24l-24 56q89 83 180 124t197 41q111 0 173.5 -49.5t84.5 -136.5q61 86 150 134.5t203 48.5
q61 0 113 -19t90.5 -53t60 -79.5t21.5 -97.5q0 -58 -28 -113.5t-98 -99t-190 -72t-302 -31.5q-1 -10 -1 -20v-21q0 -159 62.5 -238t172.5 -79q49 0 88 10.5t69.5 25t53.5 32.5t42.5 33t35 25t32.5 10q10 0 18 -4.5t17 -12.5l45 -57q-52 -53 -102 -92t-102 -64t-109 -37
t-123 -12q-108 0 -189 58t-121 175q-33 -63 -78.5 -107.5t-96.5 -73.5t-105.5 -41.5t-104.5 -12.5q-136 0 -210 60.5t-74 183.5zM189 252q0 -74 40 -109t107 -35q53 0 100.5 18.5t86 56.5t65 95t36.5 133l10 79q-123 -5 -208 -24t-137.5 -49.5t-76 -72t-23.5 -92.5zM809 595
q133 7 219.5 25.5t137.5 44.5t71 59t20 70q0 58 -38 93t-110 35q-61 0 -111.5 -23t-88 -66t-63 -103.5t-37.5 -134.5z" />
    <glyph glyph-name="uni04D6" unicode="&#x4d6;" horiz-adv-x="1101" 
d="M100 0l181 1467h835l-19 -156h-643l-62 -495h520l-19 -150h-519l-63 -510h645l-19 -156h-837zM100 0zM481 1778q2 22 13 38.5t29 16.5h97q-5 -49 -1.5 -82.5t18 -54t39.5 -29.5t64 -9t66.5 9t46.5 29.5t30 54t17 82.5h97q17 0 25.5 -17t5.5 -38q-11 -101 -90 -157
t-208 -56q-130 0 -195.5 55t-53.5 158z" />
    <glyph glyph-name="uni04D7" unicode="&#x4d7;" horiz-adv-x="986" 
d="M59 0zM59 407q0 80 17 159t49.5 150.5t79 133t106.5 106t132 70.5t155 26q79 0 136.5 -22.5t94 -57.5t54.5 -77t18 -80q0 -68 -27.5 -124.5t-101.5 -102t-203 -79.5t-331 -54q-1 -11 -1 -22v-22q0 -137 59.5 -209.5t180.5 -72.5q49 0 87.5 10.5t69 25t53.5 32.5t42 33
t35 25t33 10q19 0 34 -17l46 -57q-52 -54 -102.5 -92.5t-102 -64t-108.5 -37t-123 -11.5q-89 0 -159.5 29.5t-119.5 84.5t-76 132.5t-27 174.5zM255 575q158 19 253 44.5t146.5 54.5t67.5 63t16 71q0 18 -8 38t-26 36.5t-46.5 27.5t-69.5 11q-65 0 -119 -27t-96 -73.5
t-72 -109.5t-46 -136zM349 1412q2 20 13.5 37.5t28.5 17.5h99q-11 -97 15 -138t104 -41q38 0 65.5 10t46.5 31.5t30.5 55t16.5 82.5h98q18 0 25.5 -17t5.5 -38q-6 -51 -29 -92t-62 -70t-92 -44.5t-117 -15.5q-129 0 -194 60t-54 162z" />
    <glyph glyph-name="uni04D8" unicode="&#x4d8;" horiz-adv-x="1375" 
d="M79 536q0 66 5.5 104.5t16.5 59t26 26.5t35 6h936q2 24 3 48t1 49q0 118 -27 209t-78.5 153t-126.5 94.5t-171 32.5q-91 0 -158.5 -23t-117.5 -51.5t-85.5 -51.5t-61.5 -23q-30 0 -43 23l-49 72q58 58 124.5 100t137 69.5t144.5 40.5t148 13q124 0 227.5 -43.5t178 -127
t115 -204.5t40.5 -274q0 -183 -52 -339.5t-147 -270t-229.5 -178t-297.5 -64.5q-112 0 -202.5 37t-155.5 108t-100.5 173t-35.5 232zM267 598q-12 -102 5.5 -185.5t60 -142.5t108.5 -91.5t150 -32.5q96 0 176 32t141.5 91t104.5 142.5t65 186.5h-811z" />
    <glyph glyph-name="afii10846" unicode="&#x4d9;" horiz-adv-x="1004" 
d="M46 0zM46 376q0 47 4 75t12 42.5t18.5 19t24.5 4.5h631q3 34 3 70q0 162 -67 244t-187 82q-62 0 -108.5 -15t-81.5 -33t-59.5 -33.5t-41.5 -15.5q-22 0 -30 17l-44 65q76 74 179.5 114.5t214.5 40.5q89 0 163 -31.5t126.5 -91t81.5 -145.5t29 -195q0 -130 -36.5 -240.5
t-104 -191.5t-163 -126.5t-211.5 -45.5q-78 0 -143 26t-111.5 76t-72.5 123t-26 165zM205 408q-7 -65 3 -119.5t36 -92.5t68 -59.5t97 -21.5q62 0 112.5 20.5t90 58t67 92t42.5 122.5h-516z" />
    <glyph glyph-name="uni04DA" unicode="&#x4da;" horiz-adv-x="1375" 
d="M79 0zM79 536q0 66 5.5 104.5t16.5 59t26 26.5t35 6h936q2 24 3 48t1 49q0 118 -27 209t-78.5 153t-126.5 94.5t-171 32.5q-91 0 -158.5 -23t-117.5 -51.5t-85.5 -51.5t-61.5 -23q-30 0 -43 23l-49 72q58 58 124.5 100t137 69.5t144.5 40.5t148 13q124 0 227.5 -43.5
t178 -127t115 -204.5t40.5 -274q0 -183 -52 -339.5t-147 -270t-229.5 -178t-297.5 -64.5q-112 0 -202.5 37t-155.5 108t-100.5 173t-35.5 232zM267 598q-12 -102 5.5 -185.5t60 -142.5t108.5 -91.5t150 -32.5q96 0 176 32t141.5 91t104.5 142.5t65 186.5h-811zM473 1703
q0 25 9 45.5t25 37t36.5 26t43.5 9.5q24 0 44.5 -9.5t37 -26t25.5 -37t9 -45.5q0 -24 -9 -44.5t-25.5 -35.5t-37.5 -24t-44 -9t-43.5 9t-36.5 24t-25 35.5t-9 44.5zM862 1703q0 25 9.5 45.5t24.5 37t36 26t45 9.5t44.5 -9.5t36.5 -26t25.5 -37t9.5 -45.5q0 -24 -9.5 -44.5
t-25.5 -35.5t-37 -24t-44 -9q-24 0 -45 9t-36 24t-24.5 35.5t-9.5 44.5z" />
    <glyph glyph-name="uni04DB" unicode="&#x4db;" horiz-adv-x="1004" 
d="M46 0zM46 376q0 47 4 75t12 42.5t18.5 19t24.5 4.5h631q3 34 3 70q0 162 -67 244t-187 82q-62 0 -108.5 -15t-81.5 -33t-59.5 -33.5t-41.5 -15.5q-22 0 -30 17l-44 65q76 74 179.5 114.5t214.5 40.5q89 0 163 -31.5t126.5 -91t81.5 -145.5t29 -195q0 -130 -36.5 -240.5
t-104 -191.5t-163 -126.5t-211.5 -45.5q-78 0 -143 26t-111.5 76t-72.5 123t-26 165zM205 408q-7 -65 3 -119.5t36 -92.5t68 -59.5t97 -21.5q62 0 112.5 20.5t90 58t67 92t42.5 122.5h-516zM270 1320q0 24 9.5 45t25 37t36 25.5t44.5 9.5t45 -9.5t37 -25.5t25.5 -37t9.5 -45
t-9.5 -44.5t-25.5 -35.5t-37 -24.5t-45 -9.5t-44.5 9.5t-36 24.5t-25 35.5t-9.5 44.5zM640 1320q0 24 9 45t25 37t37 25.5t45 9.5t44.5 -9.5t36.5 -25.5t25 -37t9 -45t-9 -44.5t-25 -35.5t-37 -24.5t-44 -9.5q-24 0 -45 9.5t-37 24.5t-25 35.5t-9 44.5z" />
    <glyph glyph-name="uni04DC" unicode="&#x4dc;" horiz-adv-x="1972" 
d="M-56 0l472 637q37 52 77.5 83.5t89.5 46.5q-39 14 -65 41.5t-48 70.5l-315 588h150q30 0 54 -15t35 -42l269 -513q24 -46 53 -60.5t72 -14.5h132l79 645h182l-80 -645h134q42 0 75 14.5t68 60.5l395 513q18 27 45 42t57 15h150l-459 -588q-33 -43 -65 -70.5t-75 -41.5
q46 -15 78.5 -46.5t57.5 -83.5l316 -637h-127q-43 0 -70.5 18.5t-42.5 50.5l-270 525q-20 42 -50 61.5t-80 19.5h-155l-83 -675h-181l83 675h-153q-50 0 -84.5 -19.5t-65.5 -61.5l-398 -525q-23 -32 -55 -50.5t-74 -18.5h-128zM0 0zM815 1703q0 25 9 45.5t25 37t36.5 26
t43.5 9.5q24 0 44.5 -9.5t37 -26t25.5 -37t9 -45.5q0 -24 -9 -44.5t-25.5 -35.5t-37.5 -24t-44 -9t-43.5 9t-36.5 24t-25 35.5t-9 44.5zM1204 1703q0 25 9.5 45.5t24.5 37t36 26t45 9.5t44.5 -9.5t36.5 -26t25.5 -37t9.5 -45.5q0 -24 -9.5 -44.5t-25.5 -35.5t-37 -24t-44 -9
q-24 0 -45 9t-36 24t-24.5 35.5t-9.5 44.5z" />
    <glyph glyph-name="uni04DD" unicode="&#x4dd;" horiz-adv-x="1783" 
d="M-11 53l44 76q10 17 19.5 23t21.5 6q8 1 17.5 -2.5t22 -8.5t27.5 -9t33 -4q48 0 94 39t82.5 109.5t58.5 168t22 214.5q0 68 -7.5 113.5t-23 75t-38 42t-52.5 12.5q-27 0 -47 -8t-36.5 -18.5t-29 -18.5t-21.5 -9q-10 0 -20 3t-16 13l-40 78q30 29 62.5 49t65 32t64 17.5
t58.5 5.5q109 0 172.5 -78.5t63.5 -240.5q0 -104 -19.5 -198.5t-55.5 -177.5q48 56 97 126.5t95 149.5t83.5 165t62.5 174l7 66l154 -1l-65 -627q44 85 97.5 165t110.5 151.5t117 131.5t117.5 103t109.5 67t95 24q46 0 89.5 -16t86.5 -52l-43 -76q-10 -16 -19.5 -22
t-21.5 -6q-8 0 -17.5 3.5t-22 8t-27 8t-33.5 3.5q-48 0 -94 -39t-82.5 -109t-58.5 -167.5t-22 -213.5q0 -68 7.5 -114.5t23 -75.5t38 -42t52.5 -13q26 0 47 8t37 18.5t28.5 19t21.5 8.5q10 0 20 -2.5t16 -13.5l40 -78q-30 -29 -62 -48t-65 -31.5t-64 -17.5t-59 -5
q-109 0 -172.5 77.5t-63.5 239.5q0 104 19 198.5t55 177.5q-48 -55 -96.5 -124.5t-93 -147.5t-82.5 -163.5t-64 -172.5l-7 -73h-153l64 633q-44 -85 -97 -166t-111 -152.5t-117.5 -131.5t-117 -103.5t-110 -67.5t-95.5 -24q-46 0 -89.5 15t-87.5 51zM0 0zM664 1320
q0 24 9.5 45t25 37t36 25.5t44.5 9.5t45 -9.5t37 -25.5t25.5 -37t9.5 -45t-9.5 -44.5t-25.5 -35.5t-37 -24.5t-45 -9.5t-44.5 9.5t-36 24.5t-25 35.5t-9.5 44.5zM1034 1320q0 24 9 45t25 37t37 25.5t45 9.5t44.5 -9.5t36.5 -25.5t25 -37t9 -45t-9 -44.5t-25 -35.5t-37 -24.5
t-44 -9.5q-24 0 -45 9.5t-37 24.5t-25 35.5t-9 44.5z" />
    <glyph glyph-name="uni04DE" unicode="&#x4de;" horiz-adv-x="1098" 
d="M-11 179l65 89q9 11 21.5 18.5t26.5 7.5q20 0 45.5 -23t65 -51.5t98 -51.5t144.5 -23q81 0 145 23t108 65t67.5 101t23.5 132q0 51 -17.5 94t-51.5 74t-84 48t-116 17h-182l20 158h176q63 0 117.5 17.5t94.5 51t62.5 82.5t22.5 111q0 45 -15.5 82.5t-45.5 64.5t-76 42
t-105 15q-76 0 -131.5 -17.5t-96.5 -39t-68 -39t-44 -17.5q-27 0 -40 30l-36 90q90 72 200.5 111.5t238.5 39.5q96 0 170.5 -25t126 -70t78 -105.5t26.5 -133.5q0 -131 -70 -226t-193 -140q105 -42 162.5 -123t57.5 -188q0 -100 -37 -188t-106 -154.5t-168 -104t-223 -37.5
q-152 0 -268 52.5t-189 140.5zM0 0zM352 1703q0 25 9 45.5t25 37t36.5 26t43.5 9.5q24 0 44.5 -9.5t37 -26t25.5 -37t9 -45.5q0 -24 -9 -44.5t-25.5 -35.5t-37.5 -24t-44 -9t-43.5 9t-36.5 24t-25 35.5t-9 44.5zM741 1703q0 25 9.5 45.5t24.5 37t36 26t45 9.5t44.5 -9.5
t36.5 -26t25.5 -37t9.5 -45.5q0 -24 -9.5 -44.5t-25.5 -35.5t-37 -24t-44 -9q-24 0 -45 9t-36 24t-24.5 35.5t-9.5 44.5z" />
    <glyph glyph-name="uni04DF" unicode="&#x4df;" horiz-adv-x="886" 
d="M-15 114l46 74q5 9 15 17t22 8q18 0 38.5 -14.5t49.5 -31t71.5 -31t106.5 -14.5q63 0 113 17.5t84 47.5t52 70.5t18 87.5q0 78 -52.5 115t-149.5 37q-31 0 -69 -5t-74 -10q0 35 2.5 68.5t15.5 66.5q29 -3 56 -5.5t56 -2.5q63 -1 110.5 14t78.5 39.5t46.5 56.5t15.5 65
q0 27 -9.5 50.5t-31 41.5t-55 28.5t-82.5 10.5q-65 0 -109.5 -13.5t-74.5 -30.5t-49.5 -32t-32.5 -16q-11 -1 -20 2.5t-19 19.5l-38 62q29 31 69.5 57.5t89.5 46t104 31t114 11.5q81 0 138.5 -20t95.5 -53t56 -75.5t18 -87.5q0 -37 -12.5 -75.5t-39.5 -72.5t-70.5 -62
t-107.5 -44q95 -17 146 -77t51 -145q0 -66 -28 -129.5t-84 -113.5t-139 -81t-191 -31q-102 0 -188 32.5t-153 95.5zM0 0zM213 1320q0 24 9.5 45t25 37t36 25.5t44.5 9.5t45 -9.5t37 -25.5t25.5 -37t9.5 -45t-9.5 -44.5t-25.5 -35.5t-37 -24.5t-45 -9.5t-44.5 9.5t-36 24.5
t-25 35.5t-9.5 44.5zM583 1320q0 24 9 45t25 37t37 25.5t45 9.5t44.5 -9.5t36.5 -25.5t25 -37t9 -45t-9 -44.5t-25 -35.5t-37 -24.5t-44 -9.5q-24 0 -45 9.5t-37 24.5t-25 35.5t-9 44.5z" />
    <glyph glyph-name="uni04E0" unicode="&#x4e0;" horiz-adv-x="1115" 
d="M-1 184l79 84q11 11 19.5 13.5t15.5 2.5q11 0 19 -4t23 -18q14 -18 41 -38.5t64.5 -37.5t84 -28t100.5 -11q89 0 158 30t115 80t70 117t24 141q0 51 -18.5 96t-59 78.5t-104.5 53t-154 19.5h-137l9 82q2 15 10.5 31.5t25.5 31.5l426 404h-640l19 155h898l-8 -70
q-2 -17 -10 -36t-29 -37l-450 -421q103 -3 182 -33t131.5 -80t80 -115.5t27.5 -138.5q0 -126 -46 -227.5t-124.5 -173.5t-183.5 -110.5t-223 -38.5q-134 0 -244.5 51.5t-190.5 147.5zM0 0z" />
    <glyph glyph-name="uni04E1" unicode="&#x4e1;" horiz-adv-x="837" 
d="M-118 -247l48 66q18 27 48 26q18 0 37 -13.5t44.5 -29.5t63 -30t93.5 -14q73 0 131.5 26t100.5 72.5t65 113.5t23 150q0 51 -13.5 94t-44 73.5t-77.5 48t-112 17.5h-159l5 39q1 12 3 20t5 14.5t9 13.5t15 19l370 439h-466l17 138h681l-7 -59q-2 -16 -6 -28t-9 -23
t-13 -20.5t-18 -20.5l-363 -411q92 -5 159.5 -31.5t112 -71t66 -104t21.5 -130.5q0 -106 -34.5 -199t-100 -162.5t-160 -109.5t-214.5 -40q-111 0 -190 36t-131 91zM0 0z" />
    <glyph glyph-name="uni04E2" unicode="&#x4e2;" horiz-adv-x="1453" 
d="M99 0l181 1467h192l-127 -1034q-6 -43 -13.5 -89.5t-21.5 -98.5q23 45 46 83.5t45 68.5l744 1010q17 23 41 41.5t52 18.5h142l-179 -1467h-192l127 1034q5 43 13 90.5t21 100.5q-22 -46 -45 -85.5t-46 -70.5l-743 -1009q-16 -23 -41 -41.5t-54 -18.5h-142zM99 0z
M589 1626l13 108h525l-13 -108h-525z" />
    <glyph glyph-name="uni04E3" unicode="&#x4e3;" horiz-adv-x="1084" 
d="M85 0zM96.5 211q-11.5 73 0.5 167l78 659h181l-77 -659q-14 -122 15 -181.5t109 -59.5q47 0 97 25.5t96.5 73t86.5 114t70 148.5l64 539h181l-125 -1037h-90q-67 0 -66 66l15 188q-83 -132 -185.5 -200t-210.5 -68q-66 0 -116 26t-81 76t-42.5 123zM348 1261l14 119h541
l-13 -119h-542z" />
    <glyph glyph-name="uni04E4" unicode="&#x4e4;" horiz-adv-x="1453" 
d="M99 0l181 1467h192l-127 -1034q-6 -43 -13.5 -89.5t-21.5 -98.5q23 45 46 83.5t45 68.5l744 1010q17 23 41 41.5t52 18.5h142l-179 -1467h-192l127 1034q5 43 13 90.5t21 100.5q-22 -46 -45 -85.5t-46 -70.5l-743 -1009q-16 -23 -41 -41.5t-54 -18.5h-142zM99 0z
M554 1702q0 25 9 45.5t25 37t36.5 26t43.5 9.5q24 0 44.5 -9.5t37 -26t25.5 -37t9 -45.5q0 -24 -9 -44.5t-25.5 -35.5t-37.5 -24t-44 -9t-43.5 9t-36.5 24t-25 35.5t-9 44.5zM943 1702q0 25 9.5 45.5t24.5 37t36 26t45 9.5t44.5 -9.5t36.5 -26t25.5 -37t9.5 -45.5
q0 -24 -9.5 -44.5t-25.5 -35.5t-37 -24t-44 -9q-24 0 -45 9t-36 24t-24.5 35.5t-9.5 44.5z" />
    <glyph glyph-name="uni04E5" unicode="&#x4e5;" horiz-adv-x="1084" 
d="M85 0zM96.5 211q-11.5 73 0.5 167l78 659h181l-77 -659q-14 -122 15 -181.5t109 -59.5q47 0 97 25.5t96.5 73t86.5 114t70 148.5l64 539h181l-125 -1037h-90q-67 0 -66 66l15 188q-83 -132 -185.5 -200t-210.5 -68q-66 0 -116 26t-81 76t-42.5 123zM320 1320q0 24 9.5 45
t25 37t36 25.5t44.5 9.5t45 -9.5t37 -25.5t25.5 -37t9.5 -45t-9.5 -44.5t-25.5 -35.5t-37 -24.5t-45 -9.5t-44.5 9.5t-36 24.5t-25 35.5t-9.5 44.5zM690 1320q0 24 9 45t25 37t37 25.5t45 9.5t44.5 -9.5t36.5 -25.5t25 -37t9 -45t-9 -44.5t-25 -35.5t-37 -24.5t-44 -9.5
q-24 0 -45 9.5t-37 24.5t-25 35.5t-9 44.5z" />
    <glyph glyph-name="uni04E6" unicode="&#x4e6;" horiz-adv-x="1526" 
d="M100 0zM100 628q0 187 58.5 344t162 271t244.5 177.5t305 63.5q135 0 243.5 -49t184 -135t116 -204t40.5 -258q0 -187 -58 -344t-160.5 -270t-243.5 -176t-307 -63q-135 0 -243 48t-184.5 133.5t-117 203t-40.5 258.5zM297 633q0 -112 28 -202t81.5 -153.5t129 -98
t171.5 -34.5q122 0 223 48.5t174 138t113 217t40 285.5q0 112 -28.5 202t-81 153.5t-129 98.5t-171.5 35q-121 0 -222 -48.5t-174 -138.5t-113.5 -217.5t-40.5 -285.5zM598 1703q0 25 9 45.5t25 37t36.5 26t43.5 9.5q24 0 44.5 -9.5t37 -26t25.5 -37t9 -45.5q0 -24 -9 -44.5
t-25.5 -35.5t-37.5 -24t-44 -9t-43.5 9t-36.5 24t-25 35.5t-9 44.5zM987 1703q0 25 9.5 45.5t24.5 37t36 26t45 9.5t44.5 -9.5t36.5 -26t25.5 -37t9.5 -45.5q0 -24 -9.5 -44.5t-25.5 -35.5t-37 -24t-44 -9q-24 0 -45 9t-36 24t-24.5 35.5t-9.5 44.5z" />
    <glyph glyph-name="uni04E7" unicode="&#x4e7;" horiz-adv-x="1062" 
d="M60 0zM60 417q0 131 41 246.5t113 202t168.5 137t208.5 50.5q85 0 155.5 -29.5t122 -84.5t80 -135t28.5 -181q0 -130 -41 -246t-112 -203t-168.5 -137.5t-209.5 -50.5q-85 0 -155.5 29t-121.5 84.5t-80 135t-29 182.5zM244 418q0 -143 56 -216.5t164 -73.5q75 0 135.5 41
t104.5 109t67.5 157t23.5 187q0 143 -57 215t-164 72q-76 0 -136.5 -40.5t-103.5 -108t-66.5 -156.5t-23.5 -186zM315 1320q0 24 9.5 45t25 37t36 25.5t44.5 9.5t45 -9.5t37 -25.5t25.5 -37t9.5 -45t-9.5 -44.5t-25.5 -35.5t-37 -24.5t-45 -9.5t-44.5 9.5t-36 24.5t-25 35.5
t-9.5 44.5zM685 1320q0 24 9 45t25 37t37 25.5t45 9.5t44.5 -9.5t36.5 -25.5t25 -37t9 -45t-9 -44.5t-25 -35.5t-37 -24.5t-44 -9.5q-24 0 -45 9.5t-37 24.5t-25 35.5t-9 44.5z" />
    <glyph glyph-name="uni04E8" unicode="&#x4e8;" horiz-adv-x="1526" 
d="M100 628q0 187 58.5 344t162 271t244.5 177.5t305 63.5q135 0 243.5 -49t184 -135t116 -204t40.5 -258q0 -187 -58 -344t-160.5 -270t-243.5 -176t-307 -63q-135 0 -243 48t-184.5 133.5t-117 203t-40.5 258.5zM297 633q0 -112 28 -202t81.5 -153.5t129.5 -98t171 -34.5
q105 0 195.5 36.5t161 105t117 167t64.5 221.5h-947q-1 -11 -1 -21v-21zM313 820h944v14q0 112 -28.5 202t-81 153.5t-129 98.5t-171.5 35q-101 0 -189.5 -35t-157.5 -100.5t-117 -158t-70 -209.5z" />
    <glyph glyph-name="uni04E9" unicode="&#x4e9;" horiz-adv-x="1073" 
d="M60 417q0 131 40.5 246.5t112.5 202.5t169.5 137.5t211.5 50.5q87 0 159 -29.5t124.5 -84.5t81 -135.5t28.5 -181.5q0 -130 -40.5 -246t-112 -203t-169 -137.5t-211.5 -50.5q-87 0 -159.5 29t-124.5 84.5t-81 135t-29 182.5zM239 416q0 -146 58 -220.5t170 -74.5
q61 0 113.5 26.5t94.5 72.5t71.5 108.5t46.5 135.5h-553q-1 -12 -1 -24v-24zM257 583h552q0 10 0.5 19.5t0.5 21.5q0 146 -59 220.5t-169 74.5q-60 0 -112.5 -26t-94 -71t-72 -106.5t-46.5 -132.5z" />
    <glyph glyph-name="uni04EA" unicode="&#x4ea;" horiz-adv-x="1526" 
d="M100 0zM100 628q0 187 58.5 344t162 271t244.5 177.5t305 63.5q135 0 243.5 -49t184 -135t116 -204t40.5 -258q0 -187 -58 -344t-160.5 -270t-243.5 -176t-307 -63q-135 0 -243 48t-184.5 133.5t-117 203t-40.5 258.5zM297 633q0 -112 28 -202t81.5 -153.5t129.5 -98
t171 -34.5q105 0 195.5 36.5t161 105t117 167t64.5 221.5h-947q-1 -11 -1 -21v-21zM313 820h944v14q0 112 -28.5 202t-81 153.5t-129 98.5t-171.5 35q-101 0 -189.5 -35t-157.5 -100.5t-117 -158t-70 -209.5zM603 1703q0 25 9 45.5t25 37t36.5 26t43.5 9.5q24 0 44.5 -9.5
t37 -26t25.5 -37t9 -45.5q0 -24 -9 -44.5t-25.5 -35.5t-37.5 -24t-44 -9t-43.5 9t-36.5 24t-25 35.5t-9 44.5zM992 1703q0 25 9.5 45.5t24.5 37t36 26t45 9.5t44.5 -9.5t36.5 -26t25.5 -37t9.5 -45.5q0 -24 -9.5 -44.5t-25.5 -35.5t-37 -24t-44 -9q-24 0 -45 9t-36 24
t-24.5 35.5t-9.5 44.5z" />
    <glyph glyph-name="uni04EB" unicode="&#x4eb;" horiz-adv-x="1073" 
d="M60 0zM60 417q0 131 40.5 246.5t112.5 202.5t169.5 137.5t211.5 50.5q87 0 159 -29.5t124.5 -84.5t81 -135.5t28.5 -181.5q0 -130 -40.5 -246t-112 -203t-169 -137.5t-211.5 -50.5q-87 0 -159.5 29t-124.5 84.5t-81 135t-29 182.5zM239 416q0 -146 58 -220.5t170 -74.5
q61 0 113.5 26.5t94.5 72.5t71.5 108.5t46.5 135.5h-553q-1 -12 -1 -24v-24zM257 583h552q0 10 0.5 19.5t0.5 21.5q0 146 -59 220.5t-169 74.5q-60 0 -112.5 -26t-94 -71t-72 -106.5t-46.5 -132.5zM314 1320q0 24 9.5 45t25 37t36 25.5t44.5 9.5t45 -9.5t37 -25.5t25.5 -37
t9.5 -45t-9.5 -44.5t-25.5 -35.5t-37 -24.5t-45 -9.5t-44.5 9.5t-36 24.5t-25 35.5t-9.5 44.5zM684 1320q0 24 9 45t25 37t37 25.5t45 9.5t44.5 -9.5t36.5 -25.5t25 -37t9 -45t-9 -44.5t-25 -35.5t-37 -24.5t-44 -9.5q-24 0 -45 9.5t-37 24.5t-25 35.5t-9 44.5z" />
    <glyph glyph-name="uni04EC" unicode="&#x4ec;" horiz-adv-x="1286" 
d="M5 0zM5 203l86 82q14 13 30 13q17 0 31 -15q32 -35 64.5 -60.5t71 -42t84.5 -25t103 -8.5q94 0 181 35.5t157.5 103t120 166t68.5 223.5h-678l17 145h674v11q0 112 -28 202t-79.5 153.5t-124.5 98t-165 34.5q-86 0 -147.5 -20t-105 -43.5t-71.5 -43.5t-45 -20
q-15 0 -24 6.5t-14 15.5l-50 86q97 86 214.5 134.5t263.5 48.5q133 0 239 -47.5t180 -133t113 -204t39 -259.5q0 -187 -54 -344.5t-152 -270.5t-233 -176.5t-298 -63.5q-84 0 -153 15t-127 43.5t-104 69t-84 91.5zM398 1702q0 25 9 45.5t25 37t36.5 26t43.5 9.5
q24 0 44.5 -9.5t37 -26t25.5 -37t9 -45.5q0 -24 -9 -44.5t-25.5 -35.5t-37.5 -24t-44 -9t-43.5 9t-36.5 24t-25 35.5t-9 44.5zM787 1702q0 25 9.5 45.5t24.5 37t36 26t45 9.5t44.5 -9.5t36.5 -26t25.5 -37t9.5 -45.5q0 -24 -9.5 -44.5t-25.5 -35.5t-37 -24t-44 -9
q-24 0 -45 9t-36 24t-24.5 35.5t-9.5 44.5z" />
    <glyph glyph-name="uni04ED" unicode="&#x4ed;" horiz-adv-x="936" 
d="M11 0zM11 129l52 62q6 8 15.5 13.5t19.5 5.5q13 0 29.5 -13t42 -28.5t61 -28.5t87.5 -13q69 0 126.5 25t101 70.5t73 108t41.5 137.5h-455l14 123h452q-1 75 -17.5 134.5t-49.5 101t-81 64t-112 22.5q-52 0 -91 -12.5t-68 -28t-50 -27.5t-37 -12q-20 0 -29 7.5t-14 16.5
l-31 70q41 31 81 54.5t82.5 38.5t89 23.5t98.5 8.5q99 0 175.5 -33.5t127.5 -94t77 -145.5t26 -187q0 -126 -39 -236.5t-109 -193t-167.5 -129.5t-215.5 -47q-102 0 -178 36t-128 107zM171 1320q0 24 9.5 45t25 37t36 25.5t44.5 9.5t45 -9.5t37 -25.5t25.5 -37t9.5 -45
t-9.5 -44.5t-25.5 -35.5t-37 -24.5t-45 -9.5t-44.5 9.5t-36 24.5t-25 35.5t-9.5 44.5zM541 1320q0 24 9 45t25 37t37 25.5t45 9.5t44.5 -9.5t36.5 -25.5t25 -37t9 -45t-9 -44.5t-25 -35.5t-37 -24.5t-44 -9.5q-24 0 -45 9.5t-37 24.5t-25 35.5t-9 44.5z" />
    <glyph glyph-name="uni04EE" unicode="&#x4ee;" horiz-adv-x="1200" 
d="M110 1466h174q26 0 39 -12t21 -33l242 -677q12 -40 22 -79t16 -79q15 40 34 79.5t39 78.5l360 677q11 17 29 31t41 14h163l-705 -1276q-33 -59 -67.5 -98.5t-70.5 -62.5t-74 -32.5t-79 -9.5q-61 0 -90.5 12t-26.5 41l13 105h67q56 0 99 27t85 99l85 153zM447 1627l14 108
h524l-12 -108h-526z" />
    <glyph glyph-name="uni04EF" unicode="&#x4ef;" horiz-adv-x="982" 
d="M74 0zM74 1037h150q23 0 33 -10.5t15 -27.5l167 -653q5 -22 8.5 -43t5.5 -43q8 22 17.5 44t19.5 43l328 654q8 16 23 26t30 10h145l-701 -1346q-11 -22 -26 -32t-37 -10h-134l225 412zM285 1261l14 119h541l-13 -119h-542z" />
    <glyph glyph-name="uni04F0" unicode="&#x4f0;" horiz-adv-x="1200" 
d="M110 1466h174q26 0 39 -12t21 -33l242 -677q12 -40 22 -79t16 -79q15 40 34 79.5t39 78.5l360 677q11 17 29 31t41 14h163l-705 -1276q-33 -59 -67.5 -98.5t-70.5 -62.5t-74 -32.5t-79 -9.5q-61 0 -90.5 12t-26.5 41l13 105h67q56 0 99 27t85 99l85 153zM407 1703
q0 25 9 45.5t25 37t36.5 26t42.5 9.5q24 0 45 -9.5t37 -26t25.5 -37t9.5 -45.5q0 -24 -9.5 -44.5t-25.5 -35.5t-37 -24t-45 -9q-23 0 -43 9t-36 24t-25 35.5t-9 44.5zM796 1703q0 25 9 45.5t24.5 37t36.5 26t44 9.5q24 0 45 -9.5t37 -26t25 -37t9 -45.5q0 -24 -9 -44.5
t-25 -35.5t-37 -24t-45 -9t-44.5 9t-36 24t-24.5 35.5t-9 44.5z" />
    <glyph glyph-name="uni04F1" unicode="&#x4f1;" horiz-adv-x="982" 
d="M74 0zM74 1037h150q23 0 33 -10.5t15 -27.5l167 -653q5 -22 8.5 -43t5.5 -43q8 22 17.5 44t19.5 43l328 654q8 16 23 26t30 10h145l-701 -1346q-11 -22 -26 -32t-37 -10h-134l225 412zM263 1320q0 24 9.5 45t25 37t36 25.5t44.5 9.5t45 -9.5t37 -25.5t25.5 -37t9.5 -45
t-9.5 -44.5t-25.5 -35.5t-37 -24.5t-45 -9.5t-44.5 9.5t-36 24.5t-25 35.5t-9.5 44.5zM633 1320q0 24 9 45t25 37t37 25.5t45 9.5t44.5 -9.5t36.5 -25.5t25 -37t9 -45t-9 -44.5t-25 -35.5t-37 -24.5t-44 -9.5q-24 0 -45 9.5t-37 24.5t-25 35.5t-9 44.5z" />
    <glyph glyph-name="uni04F2" unicode="&#x4f2;" horiz-adv-x="1200" 
d="M110 1466h174q26 0 39 -12t21 -33l242 -677q12 -40 22 -79t16 -79q15 40 34 79.5t39 78.5l360 677q11 17 29 31t41 14h163l-705 -1276q-33 -59 -67.5 -98.5t-70.5 -62.5t-74 -32.5t-79 -9.5q-61 0 -90.5 12t-26.5 41l13 105h67q56 0 99 27t85 99l85 153zM466 1583
l166 234q14 22 35 33.5t52 11.5h110l-222 -251q-15 -14 -28 -21t-33 -7h-80zM760 1583l202 234q18 22 39 33.5t52 11.5h127l-264 -251q-16 -14 -31 -21t-34 -7h-91z" />
    <glyph glyph-name="uni04F3" unicode="&#x4f3;" horiz-adv-x="982" 
d="M74 0zM74 1037h150q23 0 33 -10.5t15 -27.5l167 -653q5 -22 8.5 -43t5.5 -43q8 22 17.5 44t19.5 43l328 654q8 16 23 26t30 10h145l-701 -1346q-11 -22 -26 -32t-37 -10h-134l225 412zM336 1191l159 248q14 24 30.5 34.5t47.5 10.5h111l-217 -264q-13 -16 -27 -22.5
t-34 -6.5h-70zM581 1191l197 248q17 23 32.5 34t46.5 11h123l-258 -264q-14 -15 -28 -22t-33 -7h-80z" />
    <glyph glyph-name="uni04F4" unicode="&#x4f4;" horiz-adv-x="1261" 
d="M121 0zM135 988l58 478h193l-59 -479q-12 -103 16 -165.5t100 -87t189 -13t279 56.5l85 688h192l-180 -1466h-192l78 639q-112 -32 -216 -50t-193 -17.5t-160 23t-118 72t-66.5 128t-5.5 193.5zM410 1703q0 25 9 45.5t25 37t36.5 26t43.5 9.5q24 0 44.5 -9.5t37 -26
t25.5 -37t9 -45.5q0 -24 -9 -44.5t-25.5 -35.5t-37.5 -24t-44 -9t-43.5 9t-36.5 24t-25 35.5t-9 44.5zM799 1703q0 25 9.5 45.5t24.5 37t36 26t45 9.5t44.5 -9.5t36.5 -26t25.5 -37t9.5 -45.5q0 -24 -9.5 -44.5t-25.5 -35.5t-37 -24t-44 -9q-24 0 -45 9t-36 24t-24.5 35.5
t-9.5 44.5z" />
    <glyph glyph-name="uni04F5" unicode="&#x4f5;" horiz-adv-x="980" 
d="M72 0zM81 519q-9 62 0 136l46 382h182l-46 -382q-5 -40 -1 -74t19 -59t41 -39.5t65 -14.5q45 0 88 16t80 45.5t67 71t50 92.5l42 344h181l-124 -1037h-182l58 488q-65 -80 -149 -126t-187 -46q-68 0 -116 25.5t-76.5 70.5t-37.5 107zM236 1320q0 24 9.5 45t25 37t36 25.5
t44.5 9.5t45 -9.5t37 -25.5t25.5 -37t9.5 -45t-9.5 -44.5t-25.5 -35.5t-37 -24.5t-45 -9.5t-44.5 9.5t-36 24.5t-25 35.5t-9.5 44.5zM606 1320q0 24 9 45t25 37t37 25.5t45 9.5t44.5 -9.5t36.5 -25.5t25 -37t9 -45t-9 -44.5t-25 -35.5t-37 -24.5t-44 -9.5q-24 0 -45 9.5
t-37 24.5t-25 35.5t-9 44.5z" />
    <glyph glyph-name="uni04F6" unicode="&#x4f6;" horiz-adv-x="1032" 
d="M99 0l181 1466h816l-19 -150h-623l-144 -1165h201l-55 -452q-4 -26 -23 -41t-46 -15h-114l44 357h-218z" />
    <glyph glyph-name="uni04F7" unicode="&#x4f7;" horiz-adv-x="836" 
d="M24 226q0 55 24 102t63 88t89 77t102.5 69t103 63.5t89.5 61t63 61.5t24 65q0 40 -36 67.5t-104 27.5q-45 0 -84 -11.5t-70 -26.5t-54 -27.5t-37 -12.5q-8 0 -17.5 4.5t-16.5 19.5l-39 74q34 29 74.5 51.5t84.5 38.5t90 24.5t91 8.5q58 0 111.5 -14t94 -42t64 -70
t23.5 -99q0 -54 -23.5 -99.5t-62.5 -85t-89 -74.5t-102 -66.5t-101.5 -62t-88.5 -62t-62.5 -64.5t-23.5 -71q0 -47 44.5 -79.5t121.5 -32.5q51 0 94 14t76.5 30.5t59 30.5t39.5 14t23.5 -5.5t17.5 -16.5l41 -64l-106 -435q-6 -25 -20 -39.5t-38 -14.5h-107l106 386
q-52 -22 -106.5 -32.5t-108.5 -10.5q-74 0 -132.5 18.5t-99.5 51t-63 76t-22 94.5z" />
    <glyph glyph-name="uni04F8" unicode="&#x4f8;" horiz-adv-x="1679" 
d="M99 0l181 1466h191l-79 -633h259q113 0 194.5 -26t134 -71.5t77.5 -108t25 -137.5q0 -111 -36 -201t-105.5 -154.5t-168.5 -99.5t-224 -35h-449zM99 0zM309 152h257q82 0 143 21.5t101.5 62t60.5 98.5t20 132q0 102 -61.5 158.5t-197.5 56.5h-258zM648 1703q0 25 9 45.5
t25 37t36.5 26t43.5 9.5q24 0 44.5 -9.5t37 -26t25.5 -37t9 -45.5q0 -24 -9 -44.5t-25.5 -35.5t-37.5 -24t-44 -9t-43.5 9t-36.5 24t-25 35.5t-9 44.5zM1037 1703q0 25 9.5 45.5t24.5 37t36 26t45 9.5t44.5 -9.5t36.5 -26t25.5 -37t9.5 -45.5q0 -24 -9.5 -44.5t-25.5 -35.5
t-37 -24t-44 -9q-24 0 -45 9t-36 24t-24.5 35.5t-9.5 44.5zM1235 0l180 1467h192l-179 -1467h-193z" />
    <glyph glyph-name="uni04F9" unicode="&#x4f9;" horiz-adv-x="1323" 
d="M84 247l94 790h178l-62 -513q32 41 69.5 75.5t79 58.5t84.5 37.5t84 13.5q55 0 100 -18.5t76 -52t47.5 -80t16.5 -102.5q0 -94 -40.5 -180t-109.5 -150.5t-160 -102t-192 -37.5q-73 0 -126 18.5t-86.5 52.5t-46.5 82t-6 108zM259 232q-5 -50 32 -84t112 -34q55 0 106 28
t89 73t60.5 101.5t22.5 113.5q0 30 -6 57t-21.5 47.5t-40 33t-61.5 12.5q-48 0 -96 -26.5t-88.5 -69t-69 -95.5t-34.5 -107zM460 1320q0 24 9 45t25 37t36.5 25.5t42.5 9.5q24 0 45.5 -9.5t37.5 -25.5t25.5 -37t9.5 -45t-9.5 -44.5t-25.5 -35.5t-37.5 -24.5t-45.5 -9.5
q-23 0 -43 9.5t-36 24.5t-25 35.5t-9 44.5zM829 1320q0 24 9.5 45t25 37t36.5 25.5t44 9.5q24 0 45 -9.5t36.5 -25.5t25 -37t9.5 -45t-9.5 -44.5t-25 -35.5t-36.5 -24.5t-45 -9.5t-44.5 9.5t-36 24.5t-25 35.5t-9.5 44.5zM931 0l125 1037h182l-125 -1037h-182z" />
    <glyph glyph-name="uni04FA" unicode="&#x4fa;" horiz-adv-x="1123" 
d="M38 691l17 146h236l78 629h816l-19 -150h-623l-60 -479h316l-18 -146h-315l-67 -540h200l-30 -243q-8 -63 -28 -115.5t-54 -89.5t-85 -57t-119 -20q-38 0 -73 9t-74 28l22 71q9 23 22 29.5t23 6.5q11 0 32.5 -8.5t53.5 -8.5q60 0 89.5 47.5t39.5 129.5l9 70h-239l85 691
h-235z" />
    <glyph glyph-name="uni04FB" unicode="&#x4fb;" horiz-adv-x="887" 
d="M53.5 222.5q0.5 16.5 3.5 33.5q6 36 25 68.5t46.5 63t61 57.5t71.5 52l-201 28l16 112l306 -48q45 27 86 54t72.5 54.5t50 56t18.5 59.5q0 40 -35.5 67.5t-103.5 27.5q-45 0 -84 -11.5t-69.5 -26.5t-54 -27.5t-38.5 -12.5q-8 0 -17 4.5t-17 19.5l-38 74q34 29 74 51.5
t84 38.5t90.5 24.5t91.5 8.5q53 0 102 -12t88 -35t64.5 -58t33.5 -81q5 -36 -1 -67q-6 -34 -24 -64.5t-44 -58.5t-58 -53.5t-67 -50.5l185 -27l-14 -112l-295 47q-46 -28 -87.5 -55.5t-73.5 -57t-51 -61t-19 -64.5q0 -47 45.5 -79.5t121.5 -32.5q44 0 82.5 11.5t71 26t58 28
t45.5 18.5q22 5 31 1q7 -3 15 -11.5t15.5 -20.5t15 -24.5l13.5 -22.5l10 -3l-25 -188q-8 -63 -27.5 -120.5t-54.5 -102t-85.5 -70t-120.5 -25.5q-38 0 -74 9t-75 28l22 71q8 23 20.5 29.5t23.5 6.5q12 0 33.5 -8.5t51.5 -8.5q62 0 91.5 47t39.5 130l13 100
q-53 -23 -108.5 -33.5t-110.5 -10.5q-68 0 -123 15.5t-95 43.5t-65 65t-31 81q-2 15 -1.5 31.5z" />
    <glyph glyph-name="uni04FC" unicode="&#x4fc;" horiz-adv-x="1342" 
d="M-70 0l583 783l-344 684h173q20 0 29.5 -7t17.5 -21l262 -553l10 18t12 20l373 514q11 15 21.5 22t26.5 7h197l-513 -675l315 -644h187l-25 -204q-8 -63 -28.5 -120.5t-55.5 -102t-86.5 -70t-119.5 -25.5q-39 0 -74 9t-74 28l23 71q8 23 20.5 29.5t24.5 6.5
q11 0 32.5 -8.5t52.5 -8.5q61 0 90.5 47t39.5 130l8 70h-115q-20 0 -31.5 12t-17.5 25l-299 640q-4 -8 -8.5 -16t-9.5 -15l-443 -609q-13 -20 -29 -28.5t-34 -8.5h-191z" />
    <glyph glyph-name="uni04FD" unicode="&#x4fd;" horiz-adv-x="1039" 
d="M-66 0l419 558l-249 479h163q20 0 29.5 -5.5t15.5 -19.5l174 -358q11 23 26 44l234 311q16 29 44 28h163l-370 -481l210 -422h170l-23 -190q-9 -71 -30 -130t-55.5 -100.5t-82 -64.5t-108.5 -23q-50 0 -85.5 10t-74.5 28l20 70q7 20 20.5 28t24.5 8t32.5 -8.5t52.5 -8.5
q61 0 90.5 47t40.5 130l9 70h-97q-20 0 -32 10t-19 26l-194 415q-10 -23 -22 -39l-283 -377q-11 -14 -23 -24.5t-31 -10.5h-159z" />
    <glyph glyph-name="uni04FE" unicode="&#x4fe;" horiz-adv-x="1323" 
d="M-30 0l515 692h-342l19 145h364l-317 630h173q20 0 29.5 -7t17.5 -21l262 -553l10 18t12 20l372 514q11 15 22 22t27 7h197l-479 -630h349l-17 -145h-318l339 -692h-172q-20 0 -31.5 12t-17.5 25l-299 640q-4 -8 -8.5 -16t-9.5 -15l-443 -609q-13 -20 -29 -28.5t-34 -8.5
h-191z" />
    <glyph glyph-name="uni04FF" unicode="&#x4ff;" horiz-adv-x="1015" 
d="M-29 0l361 481h-252l15 129h267l-221 427h163q20 0 29.5 -5.5t15.5 -19.5l174 -358q11 23 26 44l234 311q16 29 43 28h164l-328 -427h242l-15 -129h-233l240 -481h-162q-20 0 -32 10t-19 26l-195 415q-10 -23 -21 -39l-283 -377q-11 -14 -23.5 -24.5t-30.5 -10.5h-159z
" />
    <glyph glyph-name="uni2000" unicode="&#x2000;" horiz-adv-x="967" 
 />
    <glyph glyph-name="uni2001" unicode="&#x2001;" horiz-adv-x="1935" 
 />
    <glyph glyph-name="uni2002" unicode="&#x2002;" horiz-adv-x="967" 
 />
    <glyph glyph-name="uni2003" unicode="&#x2003;" horiz-adv-x="1935" 
 />
    <glyph glyph-name="uni2004" unicode="&#x2004;" horiz-adv-x="645" 
 />
    <glyph glyph-name="uni2005" unicode="&#x2005;" horiz-adv-x="483" 
 />
    <glyph glyph-name="uni2006" unicode="&#x2006;" horiz-adv-x="322" 
 />
    <glyph glyph-name="uni2007" unicode="&#x2007;" horiz-adv-x="322" 
 />
    <glyph glyph-name="uni2008" unicode="&#x2008;" horiz-adv-x="241" 
 />
    <glyph glyph-name="uni2009" unicode="&#x2009;" horiz-adv-x="387" 
 />
    <glyph glyph-name="uni200A" unicode="&#x200a;" horiz-adv-x="107" 
 />
    <glyph glyph-name="uni2010" unicode="&#x2010;" horiz-adv-x="718" 
d="M115 539l18 149h468l-18 -149h-468z" />
    <glyph glyph-name="uni2011" unicode="&#x2011;" horiz-adv-x="718" 
d="M115 539l18 149h468l-18 -149h-468z" />
    <glyph glyph-name="figuredash" unicode="&#x2012;" horiz-adv-x="718" 
d="M115 539l18 149h468l-18 -149h-468z" />
    <glyph glyph-name="endash" unicode="&#x2013;" 
d="M206 540l15 128h754l-16 -128h-753z" />
    <glyph glyph-name="emdash" unicode="&#x2014;" horiz-adv-x="1506" 
d="M115 540l15 128h1255l-16 -128h-1254z" />
    <glyph glyph-name="quoteleft" unicode="&#x2018;" horiz-adv-x="417" 
d="M172.5 1181q-1.5 70 22.5 137t70.5 129t112.5 116l48 -32q11 -8 11 -23q0 -8 -4 -15t-15 -19q-23 -27 -46 -63.5t-36 -80t-12.5 -93t23.5 -101.5q7 -16 -0.5 -30t-28.5 -23l-112 -43q-32 71 -33.5 141z" />
    <glyph glyph-name="quoteright" unicode="&#x2019;" horiz-adv-x="421" 
d="M154 1071q0 8 4 15.5t15 19.5q23 26 46 62t36 80t12.5 94t-23.5 102q-7 16 0.5 30t27.5 22l113 43q32 -71 33.5 -141t-22.5 -137t-70.5 -129t-112.5 -115l-48 32q-11 8 -11 22z" />
    <glyph glyph-name="quotesinglbase" unicode="&#x201a;" horiz-adv-x="411" 
d="M-26 -226q0 8 4.5 15t15.5 20q23 26 45.5 62t36 80t13 93.5t-23.5 101.5q-7 16 0.5 30t27.5 23l113 43q32 -71 33.5 -141t-22.5 -137t-71 -129t-112 -116l-48 32q-11 8 -12 23z" />
    <glyph glyph-name="quotedblleft" unicode="&#x201c;" horiz-adv-x="704" 
d="M171 1040zM172.5 1181q-1.5 70 22.5 137t70.5 129t112.5 116l48 -32q11 -8 11 -23q0 -8 -4 -15t-15 -19q-23 -27 -46 -63.5t-36 -80t-12.5 -93t23.5 -101.5q7 -16 -0.5 -30t-28.5 -23l-112 -43q-32 71 -33.5 141zM458.5 1181q-1.5 70 22.5 137t70.5 129t112.5 116l48 -32
q11 -8 11 -23q0 -8 -4 -15t-15 -19q-23 -27 -46 -63.5t-36 -80t-12.5 -93t23.5 -101.5q7 -16 -0.5 -30t-28.5 -23l-112 -43q-32 71 -33.5 141z" />
    <glyph glyph-name="quotedblright" unicode="&#x201d;" horiz-adv-x="707" 
d="M153 1071q0 8 4.5 15t15.5 20q23 26 45.5 62t36 80t13 93.5t-23.5 101.5q-7 16 0.5 30t27.5 23l113 43q32 -71 33.5 -141t-22.5 -137t-71 -129t-112 -116l-48 32q-11 8 -12 23zM154 1017zM439 1071q0 8 4.5 15t15.5 20q23 26 45.5 62t36 80t13 93.5t-23.5 101.5
q-7 16 0.5 30t27.5 23l113 43q32 -71 33.5 -141t-22.5 -137t-71 -129t-112 -116l-48 32q-11 8 -12 23z" />
    <glyph glyph-name="quotedblbase" unicode="&#x201e;" horiz-adv-x="697" 
d="M-26 -226q0 8 4.5 15t15.5 20q23 26 45.5 62t36 80t13 93.5t-23.5 101.5q-7 16 0.5 30t27.5 23l113 43q32 -71 33.5 -141t-22.5 -137t-71 -129t-112 -116l-48 32q-11 8 -12 23zM0 0zM260 -226q0 8 4.5 15t15.5 20q23 26 45.5 62t36 80t13 93.5t-23.5 101.5q-7 16 0.5 30
t27.5 23l113 43q32 -71 33.5 -141t-22.5 -137t-71 -129t-112 -116l-48 32q-11 8 -12 23z" />
    <glyph glyph-name="bullet" unicode="&#x2022;" 
d="M211 609q0 79 30 148.5t81.5 121.5t120.5 82t147 30q79 0 148.5 -30t121 -82t82 -121.5t30.5 -148.5t-30.5 -148t-82 -120t-121 -81.5t-148.5 -30.5q-78 0 -147 30.5t-120.5 81.5t-81.5 120t-30 148z" />
    <glyph glyph-name="ellipsis" unicode="&#x2026;" horiz-adv-x="1532" 
d="M53 113q0 27 10 50t26.5 40.5t40.5 28t50 10.5q27 0 50.5 -10.5t41 -28t27.5 -41t10 -49.5q0 -28 -10 -51t-27.5 -40.5t-41 -27t-50.5 -9.5t-50.5 9.5t-40 27t-26.5 40.5t-10 51zM580 113q0 27 9.5 50t26.5 40.5t40.5 28t50.5 10.5t50 -10.5t40.5 -28t28 -41t10.5 -49.5
q0 -28 -10.5 -51t-28 -40.5t-41 -27t-49.5 -9.5q-27 0 -50.5 9.5t-40.5 27t-26.5 40.5t-9.5 51zM1106 113q0 27 9.5 50t27 40.5t40.5 28t51 10.5q27 0 50 -10.5t40 -28t27.5 -41t10.5 -49.5q0 -28 -10.5 -51t-27.5 -40.5t-40 -27t-50 -9.5q-28 0 -51 9.5t-40.5 27t-27 40.5
t-9.5 51z" />
    <glyph glyph-name="uni202F" unicode="&#x202f;" horiz-adv-x="387" 
 />
    <glyph glyph-name="guilsinglleft" unicode="&#x2039;" horiz-adv-x="530" 
d="M81 530l3 23l286 397l53 -27q22 -11 24 -31.5t-16 -43.5l-179 -269q-19 -28 -33 -37q11 -11 23 -37l114 -269q10 -24 3.5 -44.5t-29.5 -31.5l-62 -28z" />
    <glyph glyph-name="guilsinglright" unicode="&#x203a;" horiz-adv-x="528" 
d="M63.5 191.5q-1.5 20.5 14.5 44.5l181 269q16 25 31 36q-13 12 -23 38l-114 269q-10 24 -2.5 43.5t30.5 31.5l60 27l186 -397l-2 -23l-284 -398l-54 28q-22 11 -23.5 31.5z" />
    <glyph glyph-name="uni205F" unicode="&#x205f;" horiz-adv-x="483" 
 />
    <glyph glyph-name="Euro" unicode="&#x20ac;" 
d="M16 567l13 102h138q3 76 15 148h-134l11 102h145q34 130 94.5 234t143 177t183.5 112t216 39q136 0 227 -51t152 -140l-69 -67q-8 -9 -17 -15t-23 -6q-16 0 -33 19.5t-47 43t-77.5 43t-125.5 19.5q-79 0 -148 -26.5t-126 -79t-100 -128.5t-70 -174h573l-5 -57
q-3 -17 -18 -31t-40 -14h-532q-6 -36 -9.5 -72.5t-5.5 -75.5h486l-8 -56q-2 -17 -17.5 -31.5t-39.5 -14.5h-422q7 -209 92.5 -319t234.5 -110q84 0 140.5 23t94.5 51t61 51t42 23q9 0 14 -2t11 -11l67 -69q-85 -103 -198 -161t-259 -58q-116 0 -204.5 42t-149.5 118
t-92.5 183.5t-34.5 238.5h-149z" />
    <glyph glyph-name="trademark" unicode="&#x2122;" horiz-adv-x="1418" 
d="M169 1362l14 103h459l-13 -103h-168l-62 -501h-123l61 501h-168zM655 861l74 604h105q16 0 23 -3.5t15 -16.5l117 -315q4 -13 7.5 -25.5t5.5 -26.5q5 13 12 26t15 26l194 315q11 13 19 16.5t25 3.5h103l-73 -604h-108l46 379l17 75l-211 -347q-17 -28 -47 -28h-17
q-14 0 -24.5 7t-14.5 21l-126 343l-2 -71l-46 -379h-109z" />
    <glyph glyph-name="uni25FC" unicode="&#x25fc;" horiz-adv-x="1038" 
d="M0 0v1039h1039v-1039h-1039z" />
    </font>
</defs>
</svg>
